{
.formatVersion = 3;
DisplayStrings = (
noaiepbcdlhkmurfszqgjtvywx
);
classes = (
{
code = "grave dieresis macron acute circumflex caron breve dotaccent ring tilde hungarumlaut";
name = case;
},
{
code = "grave.case dieresis.case macron.case acute.case circumflex.case caron.case breve.case dotaccent.case ring.case tilde.case hungarumlaut.case";
name = case2;
},
{
code = "zero one two three four five six seven eight nine";
name = ordn;
}
);
familyName = "UT Boldonse";
customParameters = (
{
name = glyphOrder;
value = (
.notdef,
NULL,
uni000D,
space,
exclam,
quotedbl,
numbersign,
dollar,
percent,
ampersand,
quotesingle,
parenleft,
parenright,
asterisk,
plus,
comma,
hyphen,
period,
slash,
zero,
one,
two,
three,
four,
five,
six,
seven,
eight,
nine,
colon,
semicolon,
less,
equal,
greater,
question,
at,
A,
B,
C,
D,
E,
F,
G,
H,
I,
J,
K,
L,
M,
N,
O,
P,
Q,
R,
S,
T,
U,
V,
W,
X,
Y,
Z,
bracketleft,
backslash,
bracketright,
asciicircum,
underscore,
grave,
a,
b,
c,
d,
e,
f,
g,
h,
i,
j,
k,
l,
m,
n,
o,
p,
q,
r,
s,
t,
u,
v,
w,
x,
y,
z,
braceleft,
bar,
braceright,
asciitilde,
uni00A0,
exclamdown,
cent,
sterling,
currency,
yen,
brokenbar,
section,
dieresis,
copyright,
ordfeminine,
guillemotleft,
logicalnot,
uni00AD,
registered,
macron,
degree,
plusminus,
twosuperior,
threesuperior,
acute,
paragraph,
periodcentered,
cedilla,
onesuperior,
ordmasculine,
guillemotright,
onequarter,
onehalf,
threequarters,
questiondown,
Agrave,
Aacute,
Acircumflex,
Atilde,
Adieresis,
Aring,
AE,
Ccedilla,
Egrave,
Eacute,
Ecircumflex,
Edieresis,
Igrave,
Iacute,
Icircumflex,
Idieresis,
Eth,
Ntilde,
Ograve,
Oacute,
Ocircumflex,
Otilde,
Odieresis,
multiply,
Oslash,
Ugrave,
Uacute,
Ucircumflex,
Udieresis,
Yacute,
Thorn,
germandbls,
agrave,
aacute,
acircumflex,
atilde,
adieresis,
aring,
ae,
ccedilla,
egrave,
eacute,
ecircumflex,
edieresis,
igrave,
iacute,
icircumflex,
idieresis,
eth,
ntilde,
ograve,
oacute,
ocircumflex,
otilde,
odieresis,
divide,
oslash,
ugrave,
uacute,
ucircumflex,
udieresis,
yacute,
thorn,

glyphs = (
{
glyphname = .notdef;
layers = (
{
layerId = "4B056265-F7A9-4FE5-8F86-068480F74FC7";
shapes = (
{
closed = 1;
nodes = (
(466,1205,ls),
(478,1205,o),
(501,1203,o),
(523,1200,o),
(544,1196,o),
(564,1191,o),
(583,1186,o),
(603,1182,o),
(621,1178,o),
(640,1175,o),
(659,1173,o),
(668,1173,qs),
(673,1173,o),
(683,1174,o),
(693,1176,o),
(702,1178,o),
(712,1181,o),
(722,1184,o),
(732,1187,o),
(742,1189,o),
(752,1191,o),
(763,1192,o),
(768,1192,qs),
(972,1192,l),
(1010,1125,l),
(1016,1130,o),
(1028,1141,o),
(1042,1151,o),
(1055,1160,o),
(1070,1168,o),
(1084,1176,o),
(1099,1182,o),
(1114,1187,o),
(1128,1190,o),
(1143,1192,o),
(1150,1192,q),
(1237,1047,l),
(1237,952,l),
(1208,913,l),
(1272,913,l),
(1179,624,l),
(1137,567,l),
(1138,416,l),
(1260,262,l),
(1255,258,l),
(1178,148,l),
(937,-48,l),
(833,84,l),
(822,73,o),
(799,54,o),
(775,36,o),
(749,21,o),
(722,8,o),
(694,-3,o),
(665,-12,o),
(635,-18,o),
(604,-23,o),
(573,-25,o),
(557,-25,qs),
(520,-25,o),
(448,-14,o),
(381,8,o),
(318,40,o),
(262,80,o),
(212,129,o),
(171,184,o),
(138,246,o),
(116,313,o),
(104,384,o),
(104,422,qs),
(104,436,o),
(106,463,o),
(109,490,o),
(113,517,o),
(119,543,o),
(126,568,o),
(135,592,o),
(144,615,o),
(155,637,o),
(167,658,o),
(174,668,q),
(93,668,l),
(90,676,o),
(83,692,o),
(78,708,o),
(73,722,o),
(69,737,o),
(66,751,o),
(64,764,o),
(62,777,o),
(61,790,o),
(60,803,o),
(60,809,qs),
(60,817,o),
(61,833,o),
(63,848,o),
(66,863,o),
(70,878,o),
(75,893,o),
(81,907,o),
(87,921,o),
(95,934,o),
(103,948,o),
(108,954,q),
(172,1045,l),
(180,1059,o),
(198,1085,o),
(220,1109,o),
(244,1131,o),
(271,1150,o),
(301,1167,o),
(332,1181,o),
(365,1193,o),
(400,1200,o),
(436,1205,o),
(454,1205,qs)
);
},
{
closed = 1;
nodes = (
(292,838,l),
(292,849,o),
(296,869,o),
(304,888,o),
(315,906,o),
(329,922,o),
(346,936,o),
(365,948,o),
(385,957,o),
(408,964,o),
(431,967,o),
(443,967,qs),
(455,967,o),
(475,967,o),
(492,967,o),
(508,966,o),
(522,966,o),
(535,965,o),
(548,964,o),
(561,962,o),
(574,960,o),
(588,957,o),
(596,956,q),
(596,431,l),
(660,431,ls),
(672,431,o),
(693,436,o),
(711,444,o),
(728,456,o),
(742,471,o),
(754,489,o),
(764,508,o),
(772,530,o),
(776,552,o),
(779,575,o),
(779,586,qs),
(779,609,o),
(778,649,o),
(776,685,o),
(773,717,o),
(770,748,o),
(767,779,o),
(764,812,o),
(761,849,o),
(759,892,o),
(758,941,o),
(758,971,qs),
(758,980,o),
(761,998,o),
(765,1017,o),
(772,1036,o),
(780,1054,o),
(788,1071,o),
(798,1087,o),
(807,1101,o),
(815,1112,o),
(823,1120,o),
(826,1122,q),
(826,1135,l),
(768,1135,ls),
(764,1135,o),
(755,1134,o),
(746,1132,o),
(737,1130,o),
(727,1127,o),
(717,1124,o),
(707,1121,o),
(696,1119,o),
(685,1117,o),
(674,1116,o),
(668,1116,qs),
(654,1116,o),
(630,1119,o),
(608,1123,o),
(587,1129,o),
(565,1135,o),
(541,1141,o),
(513,1145,o),
(480,1148,o),
(460,1148,qs),
(438,1148,o),
(396,1142,o),
(357,1131,o),
(321,1114,o),
(288,1094,o),
(259,1069,o),
(235,1041,o),
(216,1010,o),
(203,977,o),
(196,942,o),
(196,924,qs),
(196,919,o),
(196,909,o),
(197,899,o),
(198,890,o),
(199,881,o),
(200,873,o),
(202,864,o),
(204,857,o),
(206,849,o),
(208,842,o),
(210,838,q)
);
},
{
closed = 1;
nodes = (
(1180,271,l),
(1081,396,l),
(1080,682,l),
(1138,681,l),
(1194,856,l),
(1081,856,l),
(1081,868,o),
(1084,891,o),
(1090,914,o),
(1097,935,o),
(1107,954,o),
(1119,971,o),
(1131,985,o),
(1145,997,o),
(1159,1005,o),
(1173,1009,o),
(1180,1009,q),
(1180,1031,l),
(1117,1135,l),
(1110,1135,o),
(1096,1131,o),
(1081,1125,o),
(1067,1115,o),
(1053,1104,o),
(1040,1092,o),
(1030,1078,o),
(1021,1064,o),
(1014,1051,o),
(1011,1039,o),
(1011,1033,q),
(996,1033,l),
(939,1135,l),
(861,1135,l),
(806,963,l),
(806,931,l),
(882,931,l),
(882,459,ls),
(882,450,o),
(876,432,o),
(865,414,o),
(850,397,o),
(830,380,o),
(808,365,o),
(784,353,o),
(757,342,o),
(730,335,o),
(702,331,o),
(689,331,qs),
(668,331,o),
(628,338,o),
(590,352,o),
(555,373,o),
(523,398,o),
(496,429,o),
(473,464,o),
(454,503,o),
(442,545,o),
(435,589,o),
(435,612,qs),
(435,624,o),
(436,647,o),
(439,669,o),
(443,690,o),
(450,712,o),
(458,734,o),
(469,757,o),
(482,782,o),
(498,809,o),
(516,839,o),
(527,856,q),
(460,856,ls),
(442,856,o),
(408,847,o),
(375,831,o),
(345,808,o),
(317,779,o),
(293,743,o),
(272,704,o),
(256,660,o),
(245,613,o),
(239,563,o),
(239,537,qs),
(239,504,o),
(249,442,o),
(269,383,o),
(297,329,o),
(333,281,o),
(377,239,o),
(426,203,o),
(481,175,o),
(540,156,o),
(603,146,o),
(636,146,qs),
(653,146,o),
(686,149,o),
(719,155,o),
(751,164,o),
(781,175,o),
(810,189,o),
(837,206,o),
(862,226,o),
(885,248,o),
(906,272,o),
(915,286,q),
(1025,145,l)
);
}
);
width = 1332;
}
);
},
{
glyphname = exclam;
layers = (
{
layerId = "4B056265-F7A9-4FE5-8F86-068480F74FC7";
shapes = (
{
closed = 1;
nodes = (
(275,1190,l),
(255,390,l),
(70,390,l),
(50,1190,l)
);
},
{
closed = 1;
nodes = (
(174,258,o),
(195,255,o),
(215,248,o),
(234,238,o),
(250,226,o),
(265,212,o),
(277,195,o),
(287,177,o),
(293,157,o),
(297,135,o),
(297,124,qs),
(297,113,o),
(293,91,o),
(287,71,o),
(277,53,o),
(265,36,o),
(250,22,o),
(234,10,o),
(215,0,o),
(195,-7,o),
(174,-10,o),
(163,-10,qs),
(152,-10,o),
(131,-7,o),
(111,0,o),
(92,10,o),
(75,22,o),
(60,36,o),
(48,53,o),
(38,71,o),
(32,91,o),
(28,113,o),
(28,124,qs),
(28,135,o),
(32,157,o),
(38,177,o),
(48,195,o),
(60,212,o),
(75,226,o),
(92,238,o),
(111,248,o),
(131,255,o),
(152,258,o),
(163,258,qs)
);
}
);
width = 325;
}
);
unicode = 33;
},
{
glyphname = quotedbl;
layers = (
{
layerId = "4B056265-F7A9-4FE5-8F86-068480F74FC7";
shapes = (
{
closed = 1;
nodes = (
(45,840,l),
(25,1210,l),
(220,1210,l),
(200,840,l)
);
},
{
closed = 1;
nodes = (
(288,840,l),
(268,1210,l),
(463,1210,l),
(443,840,l)
);
}
);
width = 488;
}
);
leftKerningGroup = quotedbl2;
rightKerningGroup = quotedbl;
unicode = 34;
},
{
glyphname = numbersign;
layers = (
{
layerId = "4B056265-F7A9-4FE5-8F86-068480F74FC7";
shapes = (
{
closed = 1;
nodes = (
(127,0,l),
(183,289,l),
(25,289,l),
(25,499,l),
(223,499,l),
(251,640,l),
(93,640,l),
(93,850,l),
(291,850,l),
(359,1200,l),
(584,1200,l),
(516,850,l),
(652,850,l),
(720,1200,l),
(945,1200,l),
(877,850,l),
(1015,850,l),
(1015,640,l),
(837,640,l),
(809,499,l),
(947,499,l),
(947,289,l),
(769,289,l),
(713,0,l),
(488,0,l),
(544,289,l),
(408,289,l),
(352,0,l)
);
},
{
closed = 1;
nodes = (
(584,499,l),
(612,640,l),
(476,640,l),
(448,499,l)
);
}
);
width = 1040;
}
);
unicode = 35;
},
{
glyphname = dollar;
layers = (
{
layerId = "4B056265-F7A9-4FE5-8F86-068480F74FC7";
shapes = (
{
closed = 1;
nodes = (
(404,863,ls),
(404,911,o),
(371,960,o),
(339,960,qs),
(333,960,o),
(322,958,o),
(312,955,o),
(303,950,o),
(295,943,o),
(289,934,o),
(283,924,o),
(279,913,o),
(276,900,o),
(275,886,o),
(275,878,qs),
(275,871,o),
(276,858,o),
(280,844,o),
(285,831,o),
(294,817,o),
(306,801,o),
(321,784,o),
(341,764,o),
(366,742,o),
(395,717,o),
(413,702,qs),
(443,678,o),
(493,635,o),
(536,596,o),
(572,560,o),
(601,526,o),
(624,494,o),
(642,461,o),
(654,428,o),
(662,393,o),
(665,356,o),
(665,335,qs),
(665,311,o),
(661,267,o),
(652,226,o),
(639,190,o),
(623,156,o),
(602,127,o),
(577,101,o),
(548,80,o),
(515,62,o),
(478,48,o),
(458,43,q),
(458,-109,l),
(238,-109,l),
(238,42,l),
(217,47,o),
(180,62,o),
(147,80,o),
(118,103,o),
(93,130,o),
(72,161,o),
(55,197,o),
(43,236,o),
(34,280,o),
(30,327,o),
(30,353,qs),
(30,428,l),
(250,428,l),
(250,352,ls),
(250,340,o),
(252,319,o),
(256,299,o),
(261,282,o),
(269,268,o),
(278,255,o),
(290,245,o),
(303,238,o),
(317,233,o),
(334,230,o),
(343,230,qs),
(364,230,o),
(397,244,o),
(419,271,o),
(430,311,o),
(430,338,qs),
(430,347,o),
(429,364,o),
(425,379,o),
(419,394,o),
(410,409,o),
(397,425,o),
(381,443,o),
(360,462,o),
(334,484,o),
(303,509,o),
(285,523,qs),
(257,545,o),
(207,586,o),
(166,623,o),
(131,658,o),
(102,692,o),
(80,725,o),
(63,757,o),
(51,791,o),
(43,826,o),
(40,863,o),
(40,883,qs),
(40,995,o),
(140,1130,o),
(238,1151,q),
(238,1299,l),
(458,1299,l),
(458,1143,l),
(475,1138,o),
(504,1124,o),
(531,1107,o),
(554,1087,o),
(574,1064,o),
(591,1038,o),
(604,1009,o),
(614,976,o),
(621,940,o),
(624,902,o),
(624,881,qs),
(624,823,l),
(404,823,l)
);
}
);
width = 695;
}
);
unicode = 36;
},
{
glyphname = percent;
layers = (
{
layerId = "4B056265-F7A9-4FE5-8F86-068480F74FC7";
shapes = (
{
closed = 1;
nodes = (
(30,900,o),
(36,960,o),
(48,1014,o),
(65,1061,o),
(89,1101,o),
(118,1134,o),
(154,1160,o),
(195,1180,o),
(243,1193,o),
(296,1200,o),
(326,1200,qs),
(356,1200,o),
(409,1193,o),
(457,1180,o),
(498,1160,o),
(534,1134,o),
(563,1101,o),
(587,1061,o),
(604,1014,o),
(616,960,o),
(622,900,o),
(622,866,qs),
(622,831,o),
(616,769,o),
(605,714,o),
(587,667,o),
(564,626,o),
(534,592,o),
(499,565,o),
(457,545,o),
(410,532,o),
(356,525,o),
(326,525,qs),
(296,525,o),
(242,532,o),
(195,545,o),
(153,565,o),
(118,592,o),
(88,626,o),
(65,667,o),
(47,714,o),
(36,769,o),
(30,831,o),
(30,866,qs)
);
},
{
closed = 1;
nodes = (
(230,850,o),
(232,825,o),
(236,802,o),
(242,783,o),
(249,766,o),
(259,752,o),
(271,741,o),
(284,733,o),
(300,728,o),
(317,725,o),
(327,725,qs),
(336,725,o),
(353,728,o),
(369,733,o),
(382,741,o),
(393,752,o),
(403,766,o),
(411,783,o),
(416,802,o),
(420,825,o),
(422,850,o),
(422,864,qs),
(422,1000,o),
(327,1000,qs),
(230,1000,o),
(230,864,qs)
);
},
{
closed = 1;
nodes = (
(269,0,l),
(989,1200,l),
(1224,1200,l),
(504,0,l)
);
},
{
closed = 1;
nodes = (
(861,365,o),
(867,425,o),
(879,479,o),
(896,526,o),
(920,566,o),
(949,599,o),
(985,625,o),
(1026,645,o),
(1074,658,o),
(1127,665,o),
(1157,665,qs),
(1187,665,o),
(1240,658,o),
(1288,645,o),
(1329,625,o),
(1365,599,o),
(1394,566,o),
(1418,526,o),
(1435,479,o),
(1447,425,o),
(1453,365,o),
(1453,331,qs),
(1453,296,o),
(1447,234,o),
(1436,179,o),
(1418,132,o),
(1395,91,o),
(1365,57,o),
(1330,30,o),
(1288,10,o),
(1241,-3,o),
(1187,-10,o),
(1157,-10,qs),
(1127,-10,o),
(1073,-3,o),
(1026,10,o),
(984,30,o),
(949,57,o),
(919,91,o),
(896,132,o),
(878,179,o),
(867,234,o),
(861,296,o),
(861,331,qs)
);
},
{
closed = 1;
nodes = (
(1061,315,o),
(1063,290,o),
(1067,267,o),
(1073,248,o),
(1080,231,o),
(1090,217,o),
(1102,206,o),
(1115,198,o),
(1131,193,o),
(1148,190,o),
(1158,190,qs),
(1167,190,o),
(1184,193,o),
(1200,198,o),
(1213,206,o),
(1224,217,o),
(1234,231,o),
(1242,248,o),
(1247,267,o),
(1251,290,o),
(1253,315,o),
(1253,329,qs),
(1253,465,o),
(1158,465,qs),
(1061,465,o),
(1061,329,qs)
);
}
);
width = 1483;
}
);
unicode = 37;
},
{
glyphname = ampersand;
layers = (
{
layerId = "4B056265-F7A9-4FE5-8F86-068480F74FC7";
shapes = (
{
closed = 1;
nodes = (
(524,147,l),
(516,130,o),
(499,100,o),
(481,73,o),
(463,51,o),
(444,33,o),
(423,18,o),
(402,6,o),
(378,-2,o),
(353,-7,o),
(326,-10,o),
(311,-10,qs),
(285,-10,o),
(237,-3,o),
(194,12,o),
(154,33,o),
(120,60,o),
(91,93,o),
(67,132,o),
(49,177,o),
(36,227,o),
(30,281,o),
(30,311,qs),
(30,337,o),
(36,385,o),
(49,429,o),
(67,470,o),
(91,506,o),
(120,537,o),
(154,564,o),
(194,586,o),
(238,603,o),
(286,615,o),
(313,618,q),
(313,634,l),
(289,634,o),
(245,640,o),
(206,652,o),
(170,670,o),
(138,693,o),
(111,721,o),
(89,754,o),
(72,792,o),
(61,834,o),
(55,880,o),
(55,905,qs),
(55,931,o),
(62,979,o),
(76,1024,o),
(96,1065,o),
(121,1101,o),
(152,1133,o),
(188,1159,o),
(229,1179,o),
(273,1193,o),
(321,1200,o),
(347,1200,qs),
(375,1200,o),
(427,1194,o),
(475,1181,o),
(517,1163,o),
(554,1140,o),
(585,1111,o),
(611,1077,o),
(630,1038,o),
(643,995,o),
(650,947,o),
(650,921,qs),
(650,793,l),
(430,793,l),
(430,880,ls),
(430,891,o),
(429,910,o),
(426,927,o),
(422,943,o),
(417,956,o),
(411,967,o),
(404,976,o),
(395,983,o),
(385,988,o),
(374,990,o),
(368,990,qs),
(350,990,o),
(321,971,o),
(301,936,o),
(290,887,o),
(290,856,qs),
(290,844,o),
(292,821,o),
(296,800,o),
(301,781,o),
(308,765,o),
(317,752,o),
(327,740,o),
(339,732,o),
(352,726,o),
(367,723,o),
(375,723,qs),
(732,723,l),
(732,513,l),
(660,513,l),
(660,210,l),
(732,210,l),
(732,0,l),
(507,0,l),
(507,2,ls),
(507,9,o),
(508,24,o),
(510,40,o),
(512,55,o),
(515,71,o),
(519,86,o),
(523,101,o),
(528,115,o),
(532,129,o),
(537,141,o),
(540,147,q)
);
},
{
closed = 1;
nodes = (
(368,200,o),
(382,203,o),
(394,207,o),
(405,215,o),
(414,224,o),
(423,236,o),
(429,249,o),
(435,264,o),
(438,281,o),
(440,300,o),
(440,310,qs),
(440,513,l),
(360,513,ls),
(351,513,o),
(335,509,o),
(320,503,o),
(307,492,o),
(295,479,o),
(285,463,o),
(277,444,o),
(271,422,o),
(267,398,o),
(265,371,o),
(265,357,qs),
(265,342,o),
(267,315,o),
(271,291,o),
(277,269,o),
(286,250,o),
(295,234,o),
(307,220,o),
(320,210,o),
(335,204,o),
(352,200,o),
(361,200,qs)
);
}
);
width = 772;
}
);
unicode = 38;
},
{
glyphname = quotesingle;
layers = (
{
layerId = "4B056265-F7A9-4FE5-8F86-068480F74FC7";
shapes = (
{
closed = 1;
nodes = (
(45,840,l),
(25,1210,l),
(220,1210,l),
(200,840,l)
);
}
);
width = 245;
}
);
leftKerningGroup = quotedbl2;
rightKerningGroup = quotedbl;
unicode = 39;
},
{
glyphname = parenleft;
layers = (
{
layerId = "4B056265-F7A9-4FE5-8F86-068480F74FC7";
shapes = (
{
closed = 1;
nodes = (
(255,-150,l),
(232,-113,o),
(190,-39,o),
(153,32,o),
(121,103,o),
(93,172,o),
(70,239,o),
(52,306,o),
(39,371,o),
(30,435,o),
(25,499,o),
(25,530,qs),
(25,561,o),
(30,625,o),
(39,689,o),
(52,755,o),
(70,822,o),
(93,889,o),
(121,958,o),
(153,1028,o),
(190,1100,o),
(232,1173,o),
(255,1210,q),
(460,1210,l),
(439,1176,o),
(402,1109,o),
(368,1041,o),
(339,973,o),
(313,905,o),
(292,837,o),
(275,768,o),
(263,700,o),
(254,632,o),
(250,564,o),
(250,530,qs),
(250,496,o),
(254,428,o),
(263,360,o),
(275,292,o),
(292,223,o),
(313,155,o),
(339,87,o),
(368,19,o),
(402,-49,o),
(439,-116,o),
(460,-150,q)
);
}
);
width = 510;
}
);
unicode = 40;
},
{
glyphname = parenright;
layers = (
{
layerId = "4B056265-F7A9-4FE5-8F86-068480F74FC7";
shapes = (
{
closed = 1;
nodes = (
(50,-150,l),
(71,-116,o),
(108,-49,o),
(142,19,o),
(171,87,o),
(197,155,o),
(218,223,o),
(235,292,o),
(247,360,o),
(256,428,o),
(260,496,o),
(260,530,qs),
(260,564,o),
(256,632,o),
(247,700,o),
(235,768,o),
(218,837,o),
(197,905,o),
(171,973,o),
(142,1041,o),
(108,1109,o),
(71,1176,o),
(50,1210,q),
(255,1210,l),
(278,1173,o),
(320,1100,o),
(357,1028,o),
(389,958,o),
(417,889,o),
(440,822,o),
(458,755,o),
(471,689,o),
(480,625,o),
(485,561,o),
(485,530,qs),
(485,499,o),
(480,435,o),
(471,371,o),
(458,306,o),
(440,239,o),
(417,172,o),
(389,103,o),
(357,32,o),
(320,-39,o),
(278,-113,o),
(255,-150,q)
);
}
);
width = 510;
}
);
unicode = 41;
},
{
glyphname = asterisk;
layers = (
{
layerId = "4B056265-F7A9-4FE5-8F86-068480F74FC7";
shapes = (
{
closed = 1;
nodes = (
(220,885,l),
(25,937,l),
(84,1096,l),
(259,1013,l),
(242,1200,l),
(412,1200,l),
(395,1013,l),
(571,1096,l),
(629,937,l),
(433,885,l),
(579,741,l),
(448,632,l),
(327,807,l),
(206,632,l),
(75,741,l)
);
}
);
width = 654;
}
);
unicode = 42;
},
{
glyphname = plus;
layers = (
{
layerId = "4B056265-F7A9-4FE5-8F86-068480F74FC7";
shapes = (
{
closed = 1;
nodes = (
(50,700,l),
(204,700,l),
(204,882,l),
(429,882,l),
(429,700,l),
(583,700,l),
(583,490,l),
(429,490,l),
(429,308,l),
(204,308,l),
(204,490,l),
(50,490,l)
);
}
);
width = 633;
}
);
unicode = 43;
},
{
glyphname = comma;
layers = (
{
layerId = "4B056265-F7A9-4FE5-8F86-068480F74FC7";
shapes = (
{
closed = 1;
nodes = (
(85,186,l),
(310,186,l),
(165,-179,l),
(-30,-179,l)
);
}
);
width = 335;
}
);
leftKerningGroup = comma2;
rightKerningGroup = comma;
unicode = 44;
},
{
glyphname = hyphen;
layers = (
{
layerId = "4B056265-F7A9-4FE5-8F86-068480F74FC7";
shapes = (
{
closed = 1;
nodes = (
(50,540,l),
(513,540,l),
(513,330,l),
(50,330,l)
);
}
);
width = 563;
}
);
unicode = 45;
},
{
glyphname = period;
layers = (
{
layerId = "4B056265-F7A9-4FE5-8F86-068480F74FC7";
shapes = (
{
closed = 1;
nodes = (
(154,-10,o),
(132,-6,o),
(111,0,o),
(91,10,o),
(74,23,o),
(59,38,o),
(46,55,o),
(36,75,o),
(29,96,o),
(25,118,o),
(25,130,qs),
(25,142,o),
(29,164,o),
(36,185,o),
(46,204,o),
(59,222,o),
(74,237,o),
(91,250,o),
(111,259,o),
(132,266,o),
(154,270,o),
(166,270,qs),
(178,270,o),
(200,266,o),
(220,259,o),
(240,250,o),
(257,237,o),
(272,222,o),
(285,204,o),
(294,185,o),
(301,164,o),
(305,142,o),
(305,130,qs),
(305,118,o),
(301,96,o),
(294,75,o),
(285,55,o),
(272,38,o),
(257,23,o),
(240,10,o),
(220,0,o),
(200,-6,o),
(178,-10,o),
(166,-10,qs)
);
}
);
width = 330;
}
);
leftKerningGroup = comma2;
rightKerningGroup = comma;
unicode = 46;
},
{
glyphname = slash;
layers = (
{
layerId = "4B056265-F7A9-4FE5-8F86-068480F74FC7";
shapes = (
{
closed = 1;
nodes = (
(25,0,l),
(468,1200,l),
(693,1200,l),
(250,0,l)
);
}
);
width = 718;
}
);
unicode = 47;
},
{
glyphname = zero;
layers = (
{
layerId = "4B056265-F7A9-4FE5-8F86-068480F74FC7";
shapes = (
{
closed = 1;
nodes = (
(30,660,o),
(41,765,o),
(62,860,o),
(94,943,o),
(136,1015,o),
(188,1076,o),
(250,1125,o),
(321,1162,o),
(402,1187,o),
(492,1200,o),
(542,1200,qs),
(592,1200,o),
(681,1187,o),
(762,1162,o),
(834,1125,o),
(895,1076,o),
(947,1015,o),
(989,943,o),
(1021,860,o),
(1042,765,o),
(1053,660,o),
(1053,602,qs),
(1053,543,o),
(1042,435,o),
(1021,338,o),
(989,252,o),
(948,179,o),
(896,116,o),
(834,66,o),
(763,28,o),
(682,3,o),
(592,-10,o),
(542,-10,qs),
(492,-10,o),
(402,3,o),
(321,28,o),
(249,66,o),
(187,116,o),
(136,179,o),
(94,252,o),
(62,338,o),
(41,435,o),
(30,543,o),
(30,602,qs)
);
},
{
closed = 1;
nodes = (
(265,564,o),
(271,497,o),
(283,437,o),
(300,384,o),
(323,338,o),
(351,299,o),
(385,268,o),
(423,244,o),
(467,228,o),
(516,220,o),
(543,220,qs),
(569,220,o),
(617,228,o),
(660,244,o),
(699,268,o),
(732,299,o),
(760,338,o),
(783,384,o),
(800,437,o),
(812,497,o),
(818,564,o),
(818,600,qs),
(818,635,o),
(812,699,o),
(800,757,o),
(783,809,o),
(760,854,o),
(732,892,o),
(699,923,o),
(660,946,o),
(617,962,o),
(569,970,o),
(543,970,qs),
(516,970,o),
(468,962,o),
(424,946,o),
(386,923,o),
(352,892,o),
(323,854,o),
(300,809,o),
(283,758,o),
(271,700,o),
(265,635,o),
(265,600,qs)
);
}
);
width = 1083;
}
);
leftKerningGroup = C2;
rightKerningGroup = C;
unicode = 48;
},
{
glyphname = one;
layers = (
{
layerId = "4B056265-F7A9-4FE5-8F86-068480F74FC7";
shapes = (
{
closed = 1;
nodes = (
(395,1190,l),
(395,0,l),
(160,0,l),
(160,970,l),
(10,970,l),
(10,1190,l)
);
}
);
width = 455;
}
);
unicode = 49;
},
{
glyphname = two;
layers = (
{
layerId = "4B056265-F7A9-4FE5-8F86-068480F74FC7";
shapes = (
{
closed = 1;
nodes = (
(30,135,ls),
(30,153,o),
(33,187,o),
(39,221,o),
(49,255,o),
(63,292,o),
(83,333,o),
(109,378,o),
(142,429,o),
(181,488,o),
(229,555,o),
(257,594,qs),
(271,614,o),
(296,650,o),
(317,683,o),
(335,712,o),
(349,740,o),
(360,766,o),
(369,790,o),
(375,815,o),
(378,840,o),
(380,865,o),
(380,879,qs),
(380,907,o),
(373,948,o),
(359,976,o),
(336,990,o),
(321,990,qs),
(260,990,o),
(260,880,qs),
(260,833,l),
(40,833,l),
(40,921,ls),
(40,949,o),
(46,998,o),
(57,1043,o),
(75,1082,o),
(98,1115,o),
(127,1144,o),
(161,1166,o),
(202,1183,o),
(248,1194,o),
(299,1200,o),
(328,1200,qs),
(357,1200,o),
(410,1194,o),
(456,1182,o),
(497,1163,o),
(531,1138,o),
(559,1106,o),
(582,1068,o),
(598,1023,o),
(610,972,o),
(615,913,o),
(615,880,qs),
(615,856,o),
(612,810,o),
(605,765,o),
(594,720,o),
(579,675,o),
(559,629,o),
(533,580,o),
(502,528,o),
(465,471,o),
(421,410,o),
(396,376,qs),
(376,349,o),
(344,304,o),
(318,266,o),
(298,234,o),
(291,220,q),
(625,220,l),
(625,0,l),
(30,0,l)
);
}
);
width = 655;
}
);
unicode = 50;
},
{
glyphname = three;
layers = (
{
layerId = "4B056265-F7A9-4FE5-8F86-068480F74FC7";
shapes = (
{
closed = 1;
nodes = (
(338,200,o),
(355,204,o),
(370,210,o),
(383,220,o),
(395,234,o),
(404,250,o),
(413,269,o),
(419,291,o),
(423,315,o),
(425,342,o),
(425,357,qs),
(425,371,o),
(423,398,o),
(419,422,o),
(413,444,o),
(405,463,o),
(395,479,o),
(383,492,o),
(370,503,o),
(355,509,o),
(339,513,o),
(330,513,qs),
(227,513,l),
(227,723,l),
(315,723,ls),
(323,723,o),
(338,726,o),
(351,732,o),
(363,740,o),
(373,752,o),
(382,765,o),
(389,781,o),
(394,800,o),
(398,821,o),
(400,844,o),
(400,856,qs),
(400,887,o),
(389,936,o),
(369,971,o),
(340,990,o),
(322,990,qs),
(316,990,o),
(305,988,o),
(295,983,o),
(286,976,o),
(279,967,o),
(273,956,o),
(268,943,o),
(264,927,o),
(261,910,o),
(260,891,o),
(260,880,qs),
(260,833,l),
(40,833,l),
(40,921,ls),
(40,947,o),
(47,995,o),
(60,1038,o),
(79,1077,o),
(105,1111,o),
(136,1140,o),
(173,1163,o),
(215,1181,o),
(263,1194,o),
(315,1200,o),
(343,1200,qs),
(369,1200,o),
(417,1193,o),
(461,1179,o),
(502,1159,o),
(538,1133,o),
(569,1102,o),
(594,1066,o),
(614,1025,o),
(628,981,o),
(635,933,o),
(635,907,qs),
(635,885,o),
(630,843,o),
(620,805,o),
(606,770,o),
(588,739,o),
(566,712,o),
(540,689,o),
(511,669,o),
(480,653,o),
(445,642,o),
(427,638,q),
(427,622,l),
(448,619,o),
(486,608,o),
(522,592,o),
(554,571,o),
(583,544,o),
(608,513,o),
(628,477,o),
(644,436,o),
(654,390,o),
(660,340,o),
(660,313,qs),
(660,278,o),
(648,213,o),
(624,154,o),
(591,103,o),
(548,60,o),
(497,26,o),
(439,2,o),
(375,-10,o),
(340,-10,qs),
(311,-10,o),
(258,-4,o),
(210,9,o),
(166,27,o),
(129,50,o),
(97,79,o),
(70,113,o),
(50,152,o),
(37,195,o),
(30,243,o),
(30,269,qs),
(30,357,l),
(250,357,l),
(250,310,ls),
(250,300,o),
(252,281,o),
(255,264,o),
(261,249,o),
(267,236,o),
(276,224,o),
(285,215,o),
(296,207,o),
(308,203,o),
(322,200,o),
(329,200,qs)
);
}
);
width = 690;
}
);
unicode = 51;
},
{
glyphname = four;
layers = (
{
layerId = "4B056265-F7A9-4FE5-8F86-068480F74FC7";
shapes = (
{
closed = 1;
nodes = (
(10,327,l),
(10,490,l),
(206,1190,l),
(596,1190,l),
(596,537,l),
(676,537,l),
(676,327,l),
(596,327,l),
(596,0,l),
(361,0,l),
(361,327,l)
);
},
{
closed = 1;
nodes = (
(361,968,ls),
(361,973,o),
(361,984,o),
(362,995,o),
(363,1007,o),
(364,1020,o),
(365,1034,o),
(366,1047,o),
(368,1062,o),
(370,1076,o),
(372,1091,o),
(373,1098,q),
(361,1098,l),
(360,1092,o),
(359,1080,o),
(357,1067,o),
(355,1054,o),
(353,1040,o),
(351,1027,o),
(349,1014,o),
(346,1000,o),
(344,988,o),
(341,976,o),
(340,970,qs),
(246,537,l),
(361,537,l)
);
}
);
width = 676;
}
);
unicode = 52;
},
{
glyphname = five;
layers = (
{
layerId = "4B056265-F7A9-4FE5-8F86-068480F74FC7";
shapes = (
{
closed = 1;
nodes = (
(571,1190,l),
(571,970,l),
(262,970,l),
(241,747,l),
(248,749,o),
(262,753,o),
(275,756,o),
(288,759,o),
(301,761,o),
(314,763,o),
(326,764,o),
(339,765,o),
(352,766,o),
(364,766,o),
(371,766,qs),
(400,766,o),
(452,760,o),
(498,747,o),
(537,729,o),
(571,704,o),
(599,672,o),
(622,634,o),
(638,589,o),
(650,538,o),
(655,480,o),
(655,447,qs),
(655,269,ls),
(655,242,o),
(648,194,o),
(635,150,o),
(614,111,o),
(588,77,o),
(556,49,o),
(517,26,o),
(473,8,o),
(423,-4,o),
(368,-10,o),
(338,-10,qs),
(309,-10,o),
(256,-4,o),
(208,9,o),
(165,27,o),
(128,50,o),
(96,79,o),
(70,113,o),
(50,152,o),
(37,195,o),
(30,243,o),
(30,269,qs),
(30,377,l),
(250,377,l),
(250,295,ls),
(250,286,o),
(252,271,o),
(256,256,o),
(262,243,o),
(269,231,o),
(278,221,o),
(288,213,o),
(300,207,o),
(313,202,o),
(327,200,o),
(335,200,qs),
(343,200,o),
(357,202,o),
(370,207,o),
(382,213,o),
(392,221,o),
(401,231,o),
(408,243,o),
(414,256,o),
(418,271,o),
(420,286,o),
(420,295,qs),
(420,447,ls),
(420,461,o),
(418,486,o),
(413,509,o),
(405,528,o),
(395,545,o),
(382,559,o),
(367,570,o),
(349,578,o),
(329,583,o),
(306,586,o),
(293,586,qs),
(277,586,o),
(242,582,o),
(207,574,o),
(172,563,o),
(155,556,q),
(40,626,l),
(90,1190,l)
);
}
);
width = 685;
}
);
unicode = 53;
},
{
glyphname = six;
layers = (
{
layerId = "4B056265-F7A9-4FE5-8F86-068480F74FC7";
shapes = (
{
closed = 1;
nodes = (
(35,880,ls),
(35,913,o),
(41,972,o),
(53,1023,o),
(70,1068,o),
(94,1106,o),
(124,1138,o),
(161,1163,o),
(203,1182,o),
(253,1194,o),
(309,1200,o),
(340,1200,qs),
(492,1200,o),
(645,1059,o),
(645,921,qs),
(645,833,l),
(425,833,l),
(425,880,ls),
(425,891,o),
(423,911,o),
(420,928,o),
(416,944,o),
(410,957,o),
(402,968,o),
(392,977,o),
(381,983,o),
(369,988,o),
(354,990,o),
(346,990,qs),
(338,990,o),
(324,988,o),
(312,983,o),
(301,977,o),
(292,968,o),
(284,957,o),
(279,944,o),
(274,929,o),
(271,911,o),
(270,891,o),
(270,880,qs),
(270,672,l),
(305,694,o),
(387,716,o),
(435,716,qs),
(458,716,o),
(500,711,o),
(538,701,o),
(571,686,o),
(600,666,o),
(625,642,o),
(645,614,o),
(660,581,o),
(670,544,o),
(675,502,o),
(675,480,qs),
(675,274,ls),
(675,249,o),
(668,201,o),
(655,157,o),
(635,118,o),
(609,83,o),
(576,53,o),
(537,29,o),
(492,10,o),
(440,-3,o),
(382,-10,o),
(350,-10,qs),
(318,-10,o),
(261,-4,o),
(210,9,o),
(166,27,o),
(128,51,o),
(97,81,o),
(72,115,o),
(53,155,o),
(41,199,o),
(35,248,o),
(35,274,qs)
);
},
{
closed = 1;
nodes = (
(440,440,ls),
(440,455,o),
(435,481,o),
(425,502,o),
(411,519,o),
(392,530,o),
(369,536,o),
(356,536,qs),
(348,536,o),
(333,534,o),
(320,530,o),
(308,523,o),
(298,515,o),
(289,505,o),
(281,493,o),
(276,480,o),
(272,465,o),
(270,449,o),
(270,440,qs),
(270,296,ls),
(270,287,o),
(272,271,o),
(276,256,o),
(281,243,o),
(289,231,o),
(298,221,o),
(308,213,o),
(320,206,o),
(333,202,o),
(348,200,o),
(356,200,qs),
(369,200,o),
(392,206,o),
(411,217,o),
(425,234,o),
(435,255,o),
(440,281,o),
(440,296,qs)
);
}
);
width = 710;
}
);
unicode = 54;
},
{
glyphname = seven;
layers = (
{
layerId = "4B056265-F7A9-4FE5-8F86-068480F74FC7";
shapes = (
{
closed = 1;
nodes = (
(541,1027,l),
(321,0,l),
(86,0,l),
(294,970,l),
(10,970,l),
(10,1190,l),
(541,1190,l)
);
}
);
width = 551;
}
);
unicode = 55;
},
{
glyphname = eight;
layers = (
{
layerId = "4B056265-F7A9-4FE5-8F86-068480F74FC7";
shapes = (
{
closed = 1;
nodes = (
(670,275,ls),
(670,249,o),
(663,201,o),
(650,157,o),
(630,118,o),
(604,83,o),
(571,53,o),
(532,29,o),
(487,10,o),
(435,-3,o),
(377,-10,o),
(345,-10,qs),
(313,-10,o),
(256,-4,o),
(205,9,o),
(161,27,o),
(123,51,o),
(92,81,o),
(67,116,o),
(48,155,o),
(36,200,o),
(30,248,o),
(30,275,qs),
(30,433,ls),
(30,449,o),
(32,479,o),
(37,507,o),
(45,534,o),
(55,559,o),
(67,582,o),
(82,603,o),
(100,622,o),
(120,639,o),
(143,654,o),
(156,660,q),
(103,689,o),
(50,779,o),
(50,837,qs),
(50,955,ls),
(50,976,o),
(56,1015,o),
(67,1052,o),
(85,1086,o),
(108,1116,o),
(138,1143,o),
(173,1165,o),
(214,1182,o),
(262,1194,o),
(315,1200,o),
(345,1200,qs),
(375,1200,o),
(429,1194,o),
(478,1182,o),
(520,1164,o),
(557,1142,o),
(588,1115,o),
(613,1085,o),
(631,1051,o),
(644,1014,o),
(650,975,o),
(650,955,qs),
(650,837,ls),
(650,779,o),
(592,688,o),
(535,660,q),
(549,653,o),
(573,638,o),
(594,621,o),
(613,601,o),
(630,580,o),
(643,557,o),
(654,532,o),
(662,506,o),
(667,478,o),
(670,448,o),
(670,433,qs)
);
},
{
closed = 1;
nodes = (
(265,296,ls),
(265,288,o),
(267,272,o),
(271,258,o),
(276,245,o),
(284,233,o),
(293,223,o),
(303,214,o),
(315,207,o),
(328,202,o),
(343,200,o),
(351,200,qs),
(359,200,o),
(374,202,o),
(387,207,o),
(398,214,o),
(409,222,o),
(417,233,o),
(424,244,o),
(430,258,o),
(433,272,o),
(435,288,o),
(435,296,qs),
(435,472,ls),
(435,480,o),
(433,496,o),
(430,510,o),
(424,524,o),
(417,535,o),
(409,546,o),
(398,554,o),
(387,561,o),
(374,566,o),
(359,568,o),
(351,568,qs),
(343,568,o),
(328,566,o),
(315,561,o),
(303,554,o),
(293,545,o),
(284,535,o),
(276,523,o),
(271,510,o),
(267,496,o),
(265,480,o),
(265,472,qs)
);
},
{
closed = 1;
nodes = (
(285,807,ls),
(285,800,o),
(286,786,o),
(289,774,o),
(293,764,o),
(299,755,o),
(305,747,o),
(313,741,o),
(322,737,o),
(333,734,o),
(345,732,o),
(351,732,qs),
(415,732,o),
(415,807,qs),
(415,915,ls),
(415,990,o),
(351,990,qs),
(345,990,o),
(333,988,o),
(322,985,o),
(313,981,o),
(305,975,o),
(299,967,o),
(293,958,o),
(289,948,o),
(286,936,o),
(285,922,o),
(285,915,qs)
);
}
);
width = 700;
}
);
unicode = 56;
},
{
glyphname = nine;
layers = (
{
layerId = "4B056265-F7A9-4FE5-8F86-068480F74FC7";
shapes = (
{
closed = 1;
nodes = (
(60,367,l),
(280,367,l),
(280,306,ls),
(280,296,o),
(282,277,o),
(285,261,o),
(290,246,o),
(297,233,o),
(305,222,o),
(314,213,o),
(325,207,o),
(338,202,o),
(351,200,o),
(359,200,qs),
(398,200,o),
(435,254,o),
(435,310,qs),
(435,548,l),
(400,526,o),
(318,504,o),
(270,504,qs),
(247,504,o),
(205,509,o),
(167,519,o),
(134,534,o),
(105,554,o),
(80,578,o),
(60,606,o),
(45,639,o),
(35,676,o),
(30,717,o),
(30,740,qs),
(30,916,ls),
(30,942,o),
(37,989,o),
(50,1033,o),
(70,1072,o),
(96,1107,o),
(129,1137,o),
(168,1161,o),
(213,1180,o),
(265,1193,o),
(323,1200,o),
(355,1200,qs),
(387,1200,o),
(444,1194,o),
(495,1181,o),
(539,1163,o),
(577,1139,o),
(608,1109,o),
(633,1075,o),
(652,1035,o),
(664,991,o),
(670,942,o),
(670,916,qs),
(670,310,ls),
(670,230,o),
(632,110,o),
(556,30,o),
(441,-10,o),
(364,-10,qs),
(335,-10,o),
(282,-4,o),
(234,7,o),
(192,23,o),
(155,45,o),
(124,72,o),
(99,104,o),
(79,140,o),
(67,182,o),
(60,228,o),
(60,253,qs)
);
},
{
closed = 1;
nodes = (
(265,780,ls),
(265,765,o),
(270,739,o),
(280,718,o),
(294,701,o),
(313,690,o),
(336,684,o),
(349,684,qs),
(357,684,o),
(372,686,o),
(385,690,o),
(397,697,o),
(407,705,o),
(416,715,o),
(424,727,o),
(429,740,o),
(433,755,o),
(435,771,o),
(435,780,qs),
(435,894,ls),
(435,903,o),
(433,919,o),
(429,934,o),
(424,947,o),
(416,959,o),
(407,969,o),
(397,977,o),
(385,984,o),
(372,988,o),
(357,990,o),
(349,990,qs),
(336,990,o),
(313,984,o),
(294,973,o),
(280,956,o),
(270,935,o),
(265,909,o),
(265,894,qs)
);
}
);
width = 705;
}
);
unicode = 57;
},
{
glyphname = colon;
layers = (
{
layerId = "4B056265-F7A9-4FE5-8F86-068480F74FC7";
shapes = (
{
closed = 1;
nodes = (
(154,-10,o),
(132,-6,o),
(111,0,o),
(91,10,o),
(74,23,o),
(59,38,o),
(46,55,o),
(36,75,o),
(29,96,o),
(25,118,o),
(25,130,qs),
(25,142,o),
(29,164,o),
(36,185,o),
(46,204,o),
(59,222,o),
(74,237,o),
(91,250,o),
(111,259,o),
(132,266,o),
(154,270,o),
(166,270,qs),
(178,270,o),
(200,266,o),
(220,259,o),
(240,250,o),
(257,237,o),
(272,222,o),
(285,204,o),
(294,185,o),
(301,164,o),
(305,142,o),
(305,130,qs),
(305,118,o),
(301,96,o),
(294,75,o),
(285,55,o),
(272,38,o),
(257,23,o),
(240,10,o),
(220,0,o),
(200,-6,o),
(178,-10,o),
(166,-10,qs)
);
},
{
closed = 1;
nodes = (
(154,600,o),
(132,604,o),
(111,610,o),
(91,620,o),
(74,633,o),
(59,648,o),
(46,665,o),
(36,685,o),
(29,706,o),
(25,728,o),
(25,740,qs),
(25,752,o),
(29,774,o),
(36,795,o),
(46,814,o),
(59,832,o),
(74,847,o),
(91,860,o),
(111,869,o),
(132,876,o),
(154,880,o),
(166,880,qs),
(178,880,o),
(200,876,o),
(220,869,o),
(240,860,o),
(257,847,o),
(272,832,o),
(285,814,o),
(294,795,o),
(301,774,o),
(305,752,o),
(305,740,qs),
(305,728,o),
(301,706,o),
(294,685,o),
(285,665,o),
(272,648,o),
(257,633,o),
(240,620,o),
(220,610,o),
(200,604,o),
(178,600,o),
(166,600,qs)
);
}
);
width = 330;
}
);
leftKerningGroup = colon2;
rightKerningGroup = colon;
unicode = 58;
},
{
glyphname = semicolon;
layers = (
{
layerId = "4B056265-F7A9-4FE5-8F86-068480F74FC7";
shapes = (
{
closed = 1;
nodes = (
(154,600,o),
(132,604,o),
(111,610,o),
(91,620,o),
(74,633,o),
(59,648,o),
(46,665,o),
(36,685,o),
(29,706,o),
(25,728,o),
(25,740,qs),
(25,752,o),
(29,774,o),
(36,795,o),
(46,814,o),
(59,832,o),
(74,847,o),
(91,860,o),
(111,869,o),
(132,876,o),
(154,880,o),
(166,880,qs),
(178,880,o),
(200,876,o),
(220,869,o),
(240,860,o),
(257,847,o),
(272,832,o),
(285,814,o),
(294,795,o),
(301,774,o),
(305,752,o),
(305,740,qs),
(305,728,o),
(301,706,o),
(294,685,o),
(285,665,o),
(272,648,o),
(257,633,o),
(240,620,o),
(220,610,o),
(200,604,o),
(178,600,o),
(166,600,qs)
);
},
{
closed = 1;
nodes = (
(70,186,l),
(295,186,l),
(150,-179,l),
(-45,-179,l)
);
}
);
width = 330;
}
);
leftKerningGroup = colon2;
rightKerningGroup = colon;
unicode = 59;
},
{
glyphname = less;
layers = (
{
layerId = "4B056265-F7A9-4FE5-8F86-068480F74FC7";
shapes = (
{
closed = 1;
nodes = (
(25,529,l),
(558,758,l),
(558,548,l),
(223,436,l),
(558,323,l),
(558,113,l),
(25,342,l)
);
}
);
width = 598;
}
);
unicode = 60;
},
{
glyphname = equal;
layers = (
{
layerId = "4B056265-F7A9-4FE5-8F86-068480F74FC7";
shapes = (
{
closed = 1;
nodes = (
(25,677,l),
(518,677,l),
(518,467,l),
(25,467,l)
);
},
{
closed = 1;
nodes = (
(25,402,l),
(518,402,l),
(518,192,l),
(25,192,l)
);
}
);
width = 543;
}
);
unicode = 61;
},
{
glyphname = greater;
layers = (
{
layerId = "4B056265-F7A9-4FE5-8F86-068480F74FC7";
shapes = (
{
closed = 1;
nodes = (
(40,323,l),
(375,436,l),
(40,548,l),
(40,758,l),
(573,529,l),
(573,342,l),
(40,113,l)
);
}
);
width = 598;
}
);
unicode = 62;
},
{
glyphname = question;
layers = (
{
layerId = "4B056265-F7A9-4FE5-8F86-068480F74FC7";
shapes = (
{
closed = 1;
nodes = (
(295,258,o),
(316,255,o),
(336,248,o),
(355,238,o),
(371,226,o),
(386,212,o),
(398,195,o),
(408,177,o),
(414,157,o),
(418,135,o),
(418,124,qs),
(418,113,o),
(414,91,o),
(408,71,o),
(398,53,o),
(386,36,o),
(371,22,o),
(355,10,o),
(336,0,o),
(316,-7,o),
(295,-10,o),
(284,-10,qs),
(273,-10,o),
(252,-7,o),
(232,0,o),
(213,10,o),
(196,22,o),
(181,36,o),
(169,53,o),
(159,71,o),
(153,91,o),
(149,113,o),
(149,124,qs),
(149,135,o),
(153,157,o),
(159,177,o),
(169,195,o),
(181,212,o),
(196,226,o),
(213,238,o),
(232,248,o),
(252,255,o),
(273,258,o),
(284,258,qs)
);
},
{
closed = 1;
nodes = (
(179,390,l),
(179,419,o),
(189,475,o),
(207,531,o),
(231,585,o),
(258,639,o),
(286,691,o),
(313,743,o),
(337,793,o),
(355,843,o),
(365,891,o),
(365,915,qs),
(365,923,o),
(364,936,o),
(362,948,o),
(358,958,o),
(354,968,o),
(348,975,o),
(341,981,o),
(333,985,o),
(323,989,o),
(312,990,o),
(306,990,qs),
(245,990,o),
(245,880,qs),
(245,833,l),
(25,833,l),
(25,921,ls),
(25,1059,o),
(166,1200,o),
(305,1200,qs),
(333,1200,o),
(383,1194,o),
(428,1183,o),
(468,1167,o),
(502,1145,o),
(531,1118,o),
(554,1087,o),
(572,1050,o),
(584,1009,o),
(590,962,o),
(590,937,qs),
(590,901,o),
(578,833,o),
(559,768,o),
(532,708,o),
(503,652,o),
(471,598,o),
(442,548,o),
(415,500,o),
(396,454,o),
(384,411,o),
(384,390,q)
);
}
);
width = 615;
}
);
unicode = 63;
},
{
glyphname = at;
layers = (
{
layerId = "4B056265-F7A9-4FE5-8F86-068480F74FC7";
shapes = (
{
closed = 1;
nodes = (
(840,624,ls),
(840,606,o),
(841,575,o),
(844,546,o),
(849,521,o),
(855,499,o),
(863,481,o),
(872,466,o),
(883,455,o),
(896,448,o),
(911,444,o),
(919,444,qs),
(928,444,o),
(943,448,o),
(956,457,o),
(968,469,o),
(978,487,o),
(987,508,o),
(993,534,o),
(998,564,o),
(1001,599,o),
(1003,638,o),
(1003,660,qs),
(1003,692,o),
(993,753,o),
(975,808,o),
(948,859,o),
(914,904,o),
(872,942,o),
(823,974,o),
(769,999,o),
(708,1016,o),
(643,1025,o),
(608,1025,qs),
(574,1025,o),
(509,1014,o),
(449,994,o),
(394,964,o),
(345,926,o),
(302,880,o),
(267,828,o),
(239,769,o),
(220,705,o),
(210,636,o),
(210,600,qs),
(210,563,o),
(220,492,o),
(240,426,o),
(268,366,o),
(304,312,o),
(348,265,o),
(399,227,o),
(455,197,o),
(517,176,o),
(584,165,o),
(619,165,qs),
(629,165,o),
(650,166,o),
(670,168,o),
(690,172,o),
(710,176,o),
(730,182,o),
(749,188,o),
(769,196,o),
(788,204,o),
(806,214,o),
(815,219,q),
(898,65,l),
(885,58,o),
(859,44,o),
(832,32,o),
(805,22,o),
(777,13,o),
(749,5,o),
(721,-1,o),
(692,-5,o),
(662,-8,o),
(633,-10,o),
(618,-10,qs),
(568,-10,o),
(474,6,o),
(385,35,o),
(304,78,o),
(231,133,o),
(168,199,o),
(115,275,o),
(74,360,o),
(45,451,o),
(30,550,o),
(30,602,qs),
(30,652,o),
(45,748,o),
(73,838,o),
(114,921,o),
(166,995,o),
(228,1059,o),
(300,1113,o),
(379,1155,o),
(466,1185,o),
(558,1200,o),
(607,1200,qs),
(657,1200,o),
(751,1187,o),
(838,1161,o),
(918,1124,o),
(989,1076,o),
(1050,1018,o),
(1101,952,o),
(1141,878,o),
(1169,796,o),
(1183,708,o),
(1183,662,qs),
(1183,626,o),
(1177,559,o),
(1165,498,o),
(1148,444,o),
(1125,397,o),
(1097,357,o),
(1065,324,o),
(1027,299,o),
(985,283,o),
(938,274,o),
(913,274,qs),
(898,274,o),
(869,277,o),
(842,283,o),
(817,291,o),
(794,302,o),
(774,315,o),
(755,330,o),
(739,346,o),
(725,364,o),
(713,384,o),
(709,394,q),
(703,385,o),
(689,369,o),
(674,354,o),
(656,340,o),
(636,328,o),
(616,317,o),
(594,309,o),
(572,302,o),
(549,297,o),
(526,295,o),
(514,295,qs),
(501,295,o),
(477,298,o),
(456,305,o),
(437,315,o),
(421,328,o),
(407,345,o),
(396,365,o),
(388,388,o),
(382,415,o),
(379,446,o),
(379,463,qs),
(379,731,ls),
(379,747,o),
(382,777,o),
(389,804,o),
(399,828,o),
(412,849,o),
(427,867,o),
(446,881,o),
(466,892,o),
(490,900,o),
(515,904,o),
(529,904,qs),
(538,904,o),
(554,902,o),
(571,899,o),
(586,894,o),
(601,888,o),
(616,879,o),
(630,869,o),
(645,857,o),
(659,843,o),
(673,827,o),
(680,818,q),
(688,825,l),
(686,828,o),
(682,836,o),
(678,843,o),
(674,851,o),
(670,860,o),
(667,868,o),
(664,875,o),
(662,883,o),
(661,889,o),
(660,895,o),
(660,897,q),
(840,897,l)
);
},
{
closed = 1;
nodes = (
(667,676,ls),
(667,703,o),
(640,734,o),
(613,734,qs),
(586,734,o),
(559,703,o),
(559,676,qs),
(559,514,ls),
(559,509,o),
(560,501,o),
(562,493,o),
(565,486,o),
(570,480,o),
(575,474,o),
(582,470,o),
(589,466,o),
(598,464,o),
(608,463,o),
(613,463,qs),
(618,463,o),
(628,464,o),
(637,466,o),
(644,470,o),
(651,474,o),
(656,480,o),
(661,486,o),
(664,493,o),
(666,501,o),
(667,509,o),
(667,514,qs)
);
}
);
width = 1213;
}
);
leftKerningGroup = C2;
rightKerningGroup = C;
unicode = 64;
},
{
glyphname = A;
layers = (
{
layerId = "4B056265-F7A9-4FE5-8F86-068480F74FC7";
shapes = (
{
closed = 1;
nodes = (
(196,1190,l),
(532,1190,l),
(718,0,l),
(483,0,l),
(448,273,l),
(280,273,l),
(245,0,l),
(10,0,l)
);
},
{
closed = 1;
nodes = (
(380,866,ls),
(379,879,o),
(376,910,o),
(375,945,o),
(374,982,o),
(374,1000,q),
(354,1000,l),
(354,993,o),
(354,978,o),
(354,964,o),
(353,949,o),
(353,935,o),
(352,921,o),
(351,907,o),
(351,894,o),
(350,882,o),
(349,871,o),
(348,866,qs),
(308,493,l),
(420,493,l)
);
}
);
width = 728;
}
);
leftKerningGroup = A2;
rightKerningGroup = A;
unicode = 65;
},
{
glyphname = B;
layers = (
{
layerId = "4B056265-F7A9-4FE5-8F86-068480F74FC7";
shapes = (
{
closed = 1;
nodes = (
(685,842,o),
(659,752,o),
(604,688,o),
(517,648,o),
(457,638,q),
(457,622,l),
(481,619,o),
(525,608,o),
(565,593,o),
(599,572,o),
(629,546,o),
(654,515,o),
(674,480,o),
(690,440,o),
(700,395,o),
(705,345,o),
(705,318,qs),
(705,288,o),
(698,234,o),
(686,184,o),
(667,140,o),
(642,101,o),
(612,68,o),
(576,42,o),
(536,21,o),
(490,7,o),
(440,0,o),
(413,0,qs),
(60,0,l),
(60,1190,l),
(404,1190,ls),
(430,1190,o),
(478,1184,o),
(522,1171,o),
(561,1153,o),
(595,1128,o),
(624,1099,o),
(648,1064,o),
(666,1024,o),
(679,979,o),
(685,929,o),
(685,902,qs)
);
},
{
closed = 1;
nodes = (
(356,220,ls),
(367,220,o),
(386,223,o),
(404,229,o),
(420,238,o),
(434,250,o),
(446,265,o),
(455,282,o),
(462,302,o),
(467,324,o),
(470,349,o),
(470,362,qs),
(470,375,o),
(467,399,o),
(462,421,o),
(455,441,o),
(445,458,o),
(433,473,o),
(419,485,o),
(404,494,o),
(386,500,o),
(366,503,o),
(356,503,qs),
(295,503,l),
(295,220,l)
);
},
{
closed = 1;
nodes = (
(295,970,l),
(295,723,l),
(344,723,ls),
(354,723,o),
(372,726,o),
(389,731,o),
(404,739,o),
(417,750,o),
(428,762,o),
(436,777,o),
(443,794,o),
(448,814,o),
(450,835,o),
(450,846,qs),
(450,858,o),
(448,879,o),
(443,898,o),
(436,915,o),
(427,930,o),
(416,943,o),
(403,954,o),
(389,962,o),
(372,967,o),
(354,970,o),
(344,970,qs)
);
}
);
width = 735;
}
);
unicode = 66;
},
{
glyphname = C;
layers = (
{
layerId = "4B056265-F7A9-4FE5-8F86-068480F74FC7";
shapes = (
{
closed = 1;
nodes = (
(265,560,o),
(274,498,o),
(290,441,o),
(314,390,o),
(344,344,o),
(381,304,o),
(423,272,o),
(471,246,o),
(523,229,o),
(580,220,o),
(610,220,qs),
(634,220,o),
(680,226,o),
(723,237,o),
(763,254,o),
(799,276,o),
(831,303,o),
(859,334,o),
(883,369,o),
(902,408,o),
(916,451,o),
(921,474,q),
(1161,474,l),
(1157,433,o),
(1138,355,o),
(1107,282,o),
(1066,216,o),
(1016,156,o),
(957,103,o),
(891,60,o),
(818,26,o),
(739,2,o),
(656,-10,o),
(612,-10,qs),
(563,-10,o),
(469,6,o),
(381,35,o),
(301,79,o),
(229,133,o),
(166,199,o),
(114,274,o),
(73,357,o),
(45,448,o),
(30,544,o),
(30,595,qs),
(30,646,o),
(45,742,o),
(73,833,o),
(114,916,o),
(166,991,o),
(229,1057,o),
(301,1111,o),
(381,1155,o),
(469,1184,o),
(563,1200,o),
(612,1200,qs),
(656,1200,o),
(739,1188,o),
(818,1164,o),
(891,1130,o),
(957,1087,o),
(1016,1034,o),
(1066,974,o),
(1107,908,o),
(1138,835,o),
(1157,757,o),
(1161,716,q),
(921,716,l),
(917,739,o),
(902,782,o),
(883,821,o),
(859,856,o),
(831,887,o),
(799,914,o),
(763,936,o),
(723,953,o),
(680,964,o),
(634,970,o),
(610,970,qs),
(580,970,o),
(523,961,o),
(471,943,o),
(423,918,o),
(381,885,o),
(344,845,o),
(313,799,o),
(290,747,o),
(273,689,o),
(265,626,o),
(265,593,qs)
);
}
);
width = 1191;
}
);
leftKerningGroup = C2;
rightKerningGroup = C;
unicode = 67;
},
{
glyphname = D;
layers = (
{
layerId = "4B056265-F7A9-4FE5-8F86-068480F74FC7";
shapes = (
{
closed = 1;
nodes = (
(381,1190,ls),
(412,1190,o),
(469,1181,o),
(521,1162,o),
(567,1135,o),
(607,1100,o),
(640,1056,o),
(668,1004,o),
(689,945,o),
(703,878,o),
(710,804,o),
(710,764,qs),
(710,426,ls),
(710,386,o),
(703,312,o),
(689,245,o),
(668,186,o),
(640,134,o),
(607,90,o),
(567,55,o),
(521,28,o),
(469,9,o),
(412,0,o),
(381,0,qs),
(60,0,l),
(60,1190,l)
);
},
{
closed = 1;
nodes = (
(328,220,ls),
(401,220,o),
(475,324,o),
(475,426,qs),
(475,764,ls),
(475,866,o),
(401,970,o),
(328,970,qs),
(295,970,l),
(295,220,l)
);
}
);
width = 750;
}
);
rightKerningGroup = D;
unicode = 68;
},
{
glyphname = E;
layers = (
{
layerId = "4B056265-F7A9-4FE5-8F86-068480F74FC7";
shapes = (
{
closed = 1;
nodes = (
(60,0,l),
(60,1190,l),
(555,1190,l),
(555,970,l),
(295,970,l),
(295,743,l),
(535,743,l),
(535,523,l),
(295,523,l),
(295,220,l),
(560,220,l),
(560,0,l)
);
}
);
width = 590;
}
);
rightKerningGroup = E;
unicode = 69;
},
{
glyphname = F;
layers = (
{
layerId = "4B056265-F7A9-4FE5-8F86-068480F74FC7";
shapes = (
{
closed = 1;
nodes = (
(555,1190,l),
(555,970,l),
(295,970,l),
(295,713,l),
(535,713,l),
(535,493,l),
(295,493,l),
(295,0,l),
(60,0,l),
(60,1190,l)
);
}
);
width = 585;
}
);
rightKerningGroup = F;
unicode = 70;
},
{
glyphname = G;
layers = (
{
layerId = "4B056265-F7A9-4FE5-8F86-068480F74FC7";
shapes = (
{
closed = 1;
nodes = (
(1156,484,ls),
(1156,444,o),
(1141,367,o),
(1113,294,o),
(1072,226,o),
(1020,164,o),
(959,110,o),
(889,64,o),
(812,28,o),
(729,3,o),
(641,-10,o),
(595,-10,qs),
(546,-10,o),
(454,5,o),
(369,34,o),
(291,76,o),
(221,130,o),
(161,195,o),
(110,269,o),
(71,353,o),
(44,445,o),
(30,543,o),
(30,595,qs),
(30,646,o),
(43,742,o),
(69,833,o),
(107,916,o),
(156,991,o),
(216,1057,o),
(286,1111,o),
(365,1155,o),
(453,1184,o),
(550,1200,o),
(602,1200,qs),
(644,1200,o),
(723,1190,o),
(797,1170,o),
(866,1140,o),
(929,1102,o),
(985,1055,o),
(1034,1001,o),
(1075,938,o),
(1107,868,o),
(1130,792,o),
(1136,750,q),
(896,750,l),
(892,770,o),
(878,807,o),
(860,841,o),
(837,871,o),
(810,898,o),
(779,921,o),
(745,940,o),
(708,955,o),
(667,965,o),
(624,970,o),
(602,970,qs),
(572,970,o),
(516,961,o),
(465,943,o),
(418,918,o),
(377,885,o),
(341,845,o),
(312,799,o),
(289,747,o),
(273,689,o),
(265,626,o),
(265,593,qs),
(265,560,o),
(273,499,o),
(289,442,o),
(311,390,o),
(340,345,o),
(376,305,o),
(417,272,o),
(464,247,o),
(516,229,o),
(573,220,o),
(603,220,qs),
(625,220,o),
(668,225,o),
(708,235,o),
(746,249,o),
(781,267,o),
(813,289,o),
(841,315,o),
(866,345,o),
(886,378,o),
(902,414,o),
(908,433,q),
(603,433,l),
(603,633,l),
(1156,633,l)
);
}
);
width = 1186;
}
);
leftKerningGroup = C2;
rightKerningGroup = C;
unicode = 71;
},
{
glyphname = H;
layers = (
{
layerId = "4B056265-F7A9-4FE5-8F86-068480F74FC7";
shapes = (
{
closed = 1;
nodes = (
(60,1190,l),
(295,1190,l),
(295,773,l),
(470,773,l),
(470,1190,l),
(705,1190,l),
(705,0,l),
(470,0,l),
(470,553,l),
(295,553,l),
(295,0,l),
(60,0,l)
);
}
);
width = 765;
}
);
unicode = 72;
},
{
glyphname = I;
layers = (
{
layerId = "4B056265-F7A9-4FE5-8F86-068480F74FC7";
shapes = (
{
closed = 1;
nodes = (
(60,1190,l),
(295,1190,l),
(295,0,l),
(60,0,l)
);
}
);
width = 355;
}
);
unicode = 73;
},
{
glyphname = J;
layers = (
{
layerId = "4B056265-F7A9-4FE5-8F86-068480F74FC7";
shapes = (
{
closed = 1;
nodes = (
(30,418,l),
(250,418,l),
(250,309,ls),
(250,220,o),
(306,220,qs),
(360,220,o),
(360,310,qs),
(360,970,l),
(90,970,l),
(90,1190,l),
(595,1190,l),
(595,308,ls),
(595,277,o),
(589,221,o),
(577,171,o),
(559,126,o),
(536,88,o),
(507,56,o),
(472,30,o),
(432,10,o),
(387,-3,o),
(336,-10,o),
(308,-10,qs),
(240,-10,o),
(136,30,o),
(66,109,o),
(30,226,o),
(30,303,qs)
);
}
);
width = 645;
}
);
leftKerningGroup = J2;
rightKerningGroup = J;
unicode = 74;
},
{
glyphname = K;
layers = (
{
layerId = "4B056265-F7A9-4FE5-8F86-068480F74FC7";
shapes = (
{
closed = 1;
nodes = (
(295,972,ls),
(295,960,o),
(294,934,o),
(291,906,o),
(287,876,o),
(282,845,o),
(276,812,o),
(270,777,o),
(262,742,o),
(253,706,o),
(244,669,o),
(239,650,q),
(259,650,l),
(262,664,o),
(270,694,o),
(278,725,o),
(287,757,o),
(298,790,o),
(308,822,o),
(320,854,o),
(332,885,o),
(344,915,o),
(356,944,o),
(362,957,qs),
(470,1190,l),
(705,1190,l),
(480,724,l),
(725,0,l),
(490,0,l),
(333,464,l),
(295,408,l),
(295,0,l),
(60,0,l),
(60,1190,l),
(295,1190,l)
);
}
);
width = 745;
}
);
rightKerningGroup = K;
unicode = 75;
},
{
glyphname = L;
layers = (
{
layerId = "4B056265-F7A9-4FE5-8F86-068480F74FC7";
shapes = (
{
closed = 1;
nodes = (
(60,1190,l),
(295,1190,l),
(295,220,l),
(540,220,l),
(540,0,l),
(60,0,l)
);
}
);
width = 570;
}
);
rightKerningGroup = L;
unicode = 76;
},
{
glyphname = M;
layers = (
{
layerId = "4B056265-F7A9-4FE5-8F86-068480F74FC7";
shapes = (
{
closed = 1;
nodes = (
(467,714,ls),
(471,690,o),
(477,639,o),
(483,584,o),
(487,528,o),
(491,470,o),
(494,410,o),
(497,351,o),
(498,292,o),
(500,233,o),
(500,177,o),
(500,150,q),
(520,150,l),
(520,177,o),
(521,233,o),
(522,292,o),
(524,351,o),
(526,410,o),
(529,470,o),
(533,528,o),
(538,584,o),
(544,639,o),
(550,690,o),
(554,714,qs),
(629,1190,l),
(960,1190,l),
(960,0,l),
(725,0,l),
(725,141,ls),
(725,182,o),
(727,268,o),
(731,357,o),
(736,450,o),
(743,544,o),
(751,638,o),
(759,732,o),
(768,824,o),
(777,914,o),
(786,1000,o),
(790,1040,q),
(770,1040,l),
(766,1000,o),
(756,914,o),
(745,825,o),
(732,734,o),
(719,641,o),
(704,547,o),
(689,455,o),
(673,363,o),
(657,275,o),
(640,191,o),
(632,151,qs),
(600,0,l),
(420,0,l),
(388,151,ls),
(380,191,o),
(363,275,o),
(347,363,o),
(331,455,o),
(316,547,o),
(301,641,o),
(288,734,o),
(275,825,o),
(264,914,o),
(254,1000,o),
(250,1040,q),
(230,1040,l),
(234,1000,o),
(243,914,o),
(252,824,o),
(261,732,o),
(269,638,o),
(277,544,o),
(284,450,o),
(289,357,o),
(293,268,o),
(295,181,o),
(295,141,qs),
(295,0,l),
(60,0,l),
(60,1190,l),
(391,1190,l)
);
}
);
width = 1020;
}
);
unicode = 77;
},
{
glyphname = N;
layers = (
{
layerId = "4B056265-F7A9-4FE5-8F86-068480F74FC7";
shapes = (
{
closed = 1;
nodes = (
(295,0,l),
(60,0,l),
(60,1190,l),
(335,1190,l),
(424,870,ls),
(433,838,o),
(451,770,o),
(468,699,o),
(486,625,o),
(502,550,o),
(518,474,o),
(533,398,o),
(547,324,o),
(560,252,o),
(570,183,o),
(575,150,q),
(595,150,l),
(590,183,o),
(579,252,o),
(567,325,o),
(556,401,o),
(545,478,o),
(535,556,o),
(526,633,o),
(518,709,o),
(513,783,o),
(510,854,o),
(510,887,qs),
(510,1190,l),
(745,1190,l),
(745,0,l),
(485,0,l),
(393,309,ls),
(383,342,o),
(364,412,o),
(344,484,o),
(325,560,o),
(307,637,o),
(290,714,o),
(273,790,o),
(258,866,o),
(245,938,o),
(233,1008,o),
(228,1040,q),
(208,1040,l),
(213,1008,o),
(225,938,o),
(236,864,o),
(248,788,o),
(259,710,o),
(270,631,o),
(279,552,o),
(287,474,o),
(292,398,o),
(295,325,o),
(295,291,qs)
);
}
);
width = 805;
}
);
unicode = 78;
},
{
glyphname = O;
layers = (
{
layerId = "4B056265-F7A9-4FE5-8F86-068480F74FC7";
shapes = (
{
closed = 1;
nodes = (
(30,651,o),
(46,745,o),
(76,834,o),
(120,916,o),
(175,991,o),
(241,1056,o),
(316,1111,o),
(399,1154,o),
(488,1184,o),
(583,1200,o),
(632,1200,qs),
(681,1200,o),
(776,1184,o),
(865,1154,o),
(947,1111,o),
(1022,1056,o),
(1088,991,o),
(1143,916,o),
(1187,834,o),
(1217,745,o),
(1233,651,o),
(1233,602,qs),
(1233,552,o),
(1217,455,o),
(1187,364,o),
(1144,279,o),
(1089,203,o),
(1023,137,o),
(948,81,o),
(865,37,o),
(776,6,o),
(681,-10,o),
(632,-10,qs),
(583,-10,o),
(487,6,o),
(398,37,o),
(315,81,o),
(240,137,o),
(174,203,o),
(119,279,o),
(76,364,o),
(46,455,o),
(30,552,o),
(30,602,qs)
);
},
{
closed = 1;
nodes = (
(265,569,o),
(275,508,o),
(293,452,o),
(319,399,o),
(353,352,o),
(393,311,o),
(439,276,o),
(489,249,o),
(544,230,o),
(603,220,o),
(633,220,qs),
(663,220,o),
(721,230,o),
(775,249,o),
(825,276,o),
(871,311,o),
(910,352,o),
(944,399,o),
(970,452,o),
(988,508,o),
(998,568,o),
(998,600,qs),
(998,630,o),
(988,688,o),
(970,743,o),
(944,794,o),
(910,840,o),
(870,881,o),
(825,915,o),
(774,941,o),
(720,960,o),
(663,970,o),
(633,970,qs),
(603,970,o),
(545,960,o),
(490,942,o),
(440,915,o),
(394,881,o),
(353,841,o),
(320,795,o),
(293,744,o),
(275,689,o),
(265,630,o),
(265,600,qs)
);
}
);
width = 1263;
}
);
leftKerningGroup = C2;
rightKerningGroup = C;
unicode = 79;
},
{
glyphname = P;
layers = (
{
layerId = "4B056265-F7A9-4FE5-8F86-068480F74FC7";
shapes = (
{
closed = 1;
nodes = (
(410,1190,ls),
(454,1190,o),
(530,1167,o),
(594,1123,o),
(643,1059,o),
(677,977,o),
(695,878,o),
(695,821,qs),
(695,787,o),
(689,724,o),
(676,667,o),
(657,615,o),
(633,571,o),
(604,532,o),
(569,501,o),
(529,477,o),
(485,461,o),
(436,453,o),
(410,453,qs),
(295,453,l),
(295,0,l),
(60,0,l),
(60,1190,l)
);
},
{
closed = 1;
nodes = (
(350,673,ls),
(360,673,o),
(379,676,o),
(397,683,o),
(412,692,o),
(425,705,o),
(437,720,o),
(446,738,o),
(453,759,o),
(458,782,o),
(460,807,o),
(460,821,qs),
(460,835,o),
(458,860,o),
(453,883,o),
(446,904,o),
(436,922,o),
(425,938,o),
(411,950,o),
(396,960,o),
(379,967,o),
(360,970,o),
(350,970,qs),
(295,970,l),
(295,673,l)
);
}
);
width = 725;
}
);
rightKerningGroup = P;
unicode = 80;
},
{
glyphname = Q;
layers = (
{
layerId = "4B056265-F7A9-4FE5-8F86-068480F74FC7";
shapes = (
{
closed = 1;
nodes = (
(30,651,o),
(46,745,o),
(76,834,o),
(120,916,o),
(175,991,o),
(241,1056,o),
(316,1111,o),
(399,1154,o),
(488,1184,o),
(583,1200,o),
(632,1200,qs),
(681,1200,o),
(776,1184,o),
(865,1154,o),
(947,1111,o),
(1022,1056,o),
(1088,991,o),
(1143,916,o),
(1187,834,o),
(1217,745,o),
(1233,651,o),
(1233,602,qs),
(1233,558,o),
(1221,472,o),
(1197,391,o),
(1164,315,o),
(1120,245,o),
(1068,181,o),
(1009,125,o),
(942,77,o),
(869,39,o),
(791,11,o),
(750,2,q),
(759,-220,l),
(529,-220,l),
(529,-1,l),
(487,7,o),
(406,33,o),
(331,71,o),
(262,118,o),
(201,175,o),
(147,239,o),
(102,310,o),
(67,388,o),
(43,470,o),
(30,557,o),
(30,602,qs)
);
},
{
closed = 1;
nodes = (
(265,571,o),
(272,520,o),
(284,472,o),
(302,426,o),
(326,384,o),
(354,345,o),
(387,311,o),
(423,281,o),
(463,256,o),
(506,237,o),
(529,230,q),
(529,410,l),
(734,410,l),
(741,232,l),
(763,239,o),
(805,259,o),
(844,284,o),
(880,313,o),
(911,348,o),
(939,386,o),
(962,428,o),
(979,473,o),
(992,521,o),
(998,572,o),
(998,598,qs),
(998,628,o),
(988,687,o),
(970,742,o),
(944,793,o),
(910,839,o),
(870,880,o),
(825,914,o),
(774,941,o),
(720,960,o),
(663,970,o),
(633,970,qs),
(603,970,o),
(545,960,o),
(490,941,o),
(440,915,o),
(394,880,o),
(353,840,o),
(320,794,o),
(293,742,o),
(275,687,o),
(265,628,o),
(265,598,qs)
);
}
);
width = 1263;
}
);
leftKerningGroup = C2;
rightKerningGroup = C;
unicode = 81;
},
{
glyphname = R;
layers = (
{
layerId = "4B056265-F7A9-4FE5-8F86-068480F74FC7";
shapes = (
{
closed = 1;
nodes = (
(695,858,o),
(690,816,o),
(681,778,o),
(667,743,o),
(649,712,o),
(628,685,o),
(602,662,o),
(572,643,o),
(539,629,o),
(503,620,o),
(483,618,q),
(483,602,l),
(492,602,o),
(511,599,o),
(530,593,o),
(547,584,o),
(564,573,o),
(579,560,o),
(593,544,o),
(606,527,o),
(616,508,o),
(623,488,o),
(626,478,qs),
(745,0,l),
(510,0,l),
(371,503,l),
(295,503,l),
(295,0,l),
(60,0,l),
(60,1190,l),
(410,1190,ls),
(435,1190,o),
(482,1182,o),
(526,1168,o),
(565,1147,o),
(600,1119,o),
(631,1086,o),
(656,1048,o),
(675,1005,o),
(688,958,o),
(695,907,o),
(695,880,qs)
);
},
{
closed = 1;
nodes = (
(350,723,ls),
(360,723,o),
(379,726,o),
(397,731,o),
(412,739,o),
(425,749,o),
(437,762,o),
(446,777,o),
(453,794,o),
(458,813,o),
(460,834,o),
(460,846,qs),
(460,875,o),
(445,921,o),
(416,953,o),
(376,970,o),
(350,970,qs),
(295,970,l),
(295,723,l)
);
}
);
width = 760;
}
);
rightKerningGroup = R;
unicode = 82;
},
{
glyphname = S;
layers = (
{
layerId = "4B056265-F7A9-4FE5-8F86-068480F74FC7";
shapes = (
{
closed = 1;
nodes = (
(404,903,ls),
(404,951,o),
(371,1000,o),
(339,1000,qs),
(324,1000,o),
(300,988,o),
(284,965,o),
(275,932,o),
(275,911,qs),
(275,903,o),
(276,889,o),
(280,874,o),
(285,859,o),
(294,843,o),
(306,826,o),
(321,806,o),
(341,784,o),
(366,759,o),
(395,730,o),
(413,714,qs),
(443,687,o),
(493,638,o),
(536,594,o),
(572,553,o),
(601,516,o),
(624,480,o),
(642,444,o),
(654,408,o),
(662,371,o),
(665,331,o),
(665,309,qs),
(665,278,o),
(658,222,o),
(645,171,o),
(625,127,o),
(599,88,o),
(566,56,o),
(527,30,o),
(483,10,o),
(432,-3,o),
(375,-10,o),
(344,-10,qs),
(313,-10,o),
(257,-3,o),
(207,10,o),
(163,30,o),
(125,56,o),
(94,88,o),
(68,127,o),
(49,172,o),
(36,224,o),
(30,281,o),
(30,313,qs),
(30,418,l),
(250,418,l),
(250,312,ls),
(250,292,o),
(255,259,o),
(266,232,o),
(281,211,o),
(302,197,o),
(327,190,o),
(342,190,qs),
(351,190,o),
(366,192,o),
(380,197,o),
(393,204,o),
(403,214,o),
(412,225,o),
(419,239,o),
(425,256,o),
(428,274,o),
(430,295,o),
(430,306,qs),
(430,316,o),
(429,334,o),
(425,351,o),
(419,367,o),
(410,384,o),
(397,402,o),
(381,421,o),
(360,442,o),
(334,467,o),
(303,495,o),
(285,511,qs),
(257,536,o),
(207,582,o),
(166,625,o),
(131,664,o),
(102,702,o),
(80,738,o),
(63,774,o),
(51,810,o),
(43,847,o),
(40,887,o),
(40,908,qs),
(40,937,o),
(46,989,o),
(58,1035,o),
(76,1076,o),
(100,1111,o),
(130,1141,o),
(165,1164,o),
(206,1182,o),
(253,1194,o),
(306,1200,o),
(335,1200,qs),
(364,1200,o),
(415,1194,o),
(461,1183,o),
(501,1166,o),
(536,1144,o),
(565,1115,o),
(589,1082,o),
(606,1043,o),
(618,998,o),
(624,949,o),
(624,921,qs),
(624,833,l),
(404,833,l)
);
}
);
width = 695;
}
);
leftKerningGroup = S2;
rightKerningGroup = S;
unicode = 83;
},
{
glyphname = T;
layers = (
{
layerId = "4B056265-F7A9-4FE5-8F86-068480F74FC7";
shapes = (
{
closed = 1;
nodes = (
(200,970,l),
(15,970,l),
(15,1190,l),
(620,1190,l),
(620,970,l),
(435,970,l),
(435,0,l),
(200,0,l)
);
}
);
width = 635;
}
);
leftKerningGroup = T2;
rightKerningGroup = T;
unicode = 84;
},
{
glyphname = U;
layers = (
{
layerId = "4B056265-F7A9-4FE5-8F86-068480F74FC7";
shapes = (
{
closed = 1;
nodes = (
(50,1190,l),
(285,1190,l),
(285,294,ls),
(285,287,o),
(287,274,o),
(291,263,o),
(297,253,o),
(304,244,o),
(312,236,o),
(322,230,o),
(333,225,o),
(344,222,o),
(357,220,o),
(363,220,qs),
(379,220,o),
(407,230,o),
(428,249,o),
(440,277,o),
(440,294,qs),
(440,1190,l),
(675,1190,l),
(675,294,ls),
(675,266,o),
(668,215,o),
(654,168,o),
(634,126,o),
(607,89,o),
(575,57,o),
(537,31,o),
(493,11,o),
(445,-3,o),
(392,-10,o),
(363,-10,qs),
(334,-10,o),
(281,-3,o),
(232,11,o),
(189,31,o),
(151,57,o),
(118,89,o),
(92,126,o),
(71,168,o),
(57,215,o),
(50,266,o),
(50,294,qs)
);
}
);
width = 725;
}
);
leftKerningGroup = U2;
rightKerningGroup = U;
unicode = 85;
},
{
glyphname = V;
layers = (
{
layerId = "4B056265-F7A9-4FE5-8F86-068480F74FC7";
shapes = (
{
closed = 1;
nodes = (
(339,423,l),
(341,411,o),
(343,386,o),
(346,360,o),
(348,332,o),
(350,304,o),
(351,275,o),
(352,246,o),
(353,218,o),
(354,190,o),
(354,163,o),
(354,150,q),
(374,150,l),
(374,163,o),
(374,190,o),
(375,218,o),
(376,246,o),
(377,275,o),
(378,304,o),
(380,332,o),
(382,360,o),
(385,386,o),
(387,411,o),
(389,423,q),
(483,1190,l),
(718,1190,l),
(532,0,l),
(196,0,l),
(10,1190,l),
(245,1190,l)
);
}
);
width = 728;
}
);
leftKerningGroup = V2;
rightKerningGroup = V;
unicode = 86;
},
{
glyphname = W;
layers = (
{
layerId = "4B056265-F7A9-4FE5-8F86-068480F74FC7";
shapes = (
{
closed = 1;
nodes = (
(315,583,ls),
(316,575,o),
(317,557,o),
(319,537,o),
(320,517,o),
(321,496,o),
(322,473,o),
(322,450,o),
(323,425,o),
(323,399,o),
(323,373,o),
(323,359,q),
(322,150,l),
(342,150,l),
(342,170,o),
(343,213,o),
(343,257,o),
(344,302,o),
(346,347,o),
(348,392,o),
(350,437,o),
(353,481,o),
(357,523,o),
(361,563,o),
(364,582,qs),
(450,1190,l),
(631,1190,l),
(717,582,ls),
(720,563,o),
(724,523,o),
(728,481,o),
(731,437,o),
(733,392,o),
(735,347,o),
(737,302,o),
(738,257,o),
(738,213,o),
(739,170,o),
(739,150,q),
(759,150,l),
(757,392,l),
(757,397,o),
(757,412,o),
(757,429,o),
(758,448,o),
(758,468,o),
(759,490,o),
(760,512,o),
(762,534,o),
(763,555,o),
(765,574,o),
(766,583,qs),
(836,1190,l),
(1071,1190,l),
(905,0,l),
(619,0,l),
(577,354,ls),
(575,373,o),
(571,415,o),
(567,457,o),
(563,502,o),
(560,547,o),
(557,592,o),
(555,638,o),
(553,682,o),
(552,725,o),
(551,766,o),
(551,786,q),
(531,786,l),
(531,767,o),
(530,725,o),
(529,682,o),
(528,637,o),
(525,592,o),
(523,547,o),
(519,502,o),
(516,457,o),
(512,415,o),
(507,373,o),
(505,354,qs),
(462,0,l),
(176,0,l),
(10,1190,l),
(245,1190,l)
);
}
);
width = 1081;
}
);
leftKerningGroup = V2;
rightKerningGroup = V;
unicode = 87;
},
{
glyphname = X;
layers = (
{
layerId = "4B056265-F7A9-4FE5-8F86-068480F74FC7";
shapes = (
{
closed = 1;
nodes = (
(365,907,ls),
(367,901,o),
(370,890,o),
(374,877,o),
(377,864,o),
(379,851,o),
(382,838,o),
(384,825,o),
(385,811,o),
(386,799,o),
(387,786,o),
(387,780,q),
(407,780,l),
(407,786,o),
(408,799,o),
(409,812,o),
(410,825,o),
(412,838,o),
(415,852,o),
(417,865,o),
(420,878,o),
(424,891,o),
(427,902,o),
(429,908,qs),
(522,1190,l),
(757,1190,l),
(526,595,l),
(757,0,l),
(522,0,l),
(427,311,ls),
(425,317,o),
(421,330,o),
(418,344,o),
(415,357,o),
(413,371,o),
(410,385,o),
(408,398,o),
(407,411,o),
(406,424,o),
(405,436,o),
(405,442,q),
(385,442,l),
(385,433,o),
(385,416,o),
(384,400,o),
(383,385,o),
(382,371,o),
(380,358,o),
(378,346,o),
(375,334,o),
(373,324,o),
(370,314,o),
(369,310,qs),
(270,0,l),
(30,0,l),
(261,595,l),
(30,1190,l),
(270,1190,l)
);
}
);
width = 787;
}
);
unicode = 88;
},
{
glyphname = Y;
layers = (
{
layerId = "4B056265-F7A9-4FE5-8F86-068480F74FC7";
shapes = (
{
closed = 1;
nodes = (
(312,863,ls),
(315,850,o),
(321,824,o),
(326,797,o),
(330,769,o),
(334,741,o),
(337,713,o),
(340,685,o),
(342,658,o),
(343,632,o),
(344,607,o),
(344,595,q),
(364,595,l),
(364,607,o),
(365,632,o),
(366,658,o),
(368,685,o),
(371,713,o),
(374,741,o),
(378,769,o),
(382,797,o),
(387,824,o),
(393,850,o),
(396,863,qs),
(473,1190,l),
(708,1190,l),
(472,419,l),
(472,0,l),
(237,0,l),
(237,419,l),
(0,1190,l),
(235,1190,l)
);
}
);
width = 708;
}
);
leftKerningGroup = V2;
rightKerningGroup = V;
unicode = 89;
},
{
glyphname = Z;
layers = (
{
layerId = "4B056265-F7A9-4FE5-8F86-068480F74FC7";
shapes = (
{
closed = 1;
nodes = (
(30,120,l),
(351,970,l),
(40,970,l),
(40,1190,l),
(625,1190,l),
(625,1070,l),
(304,220,l),
(635,220,l),
(635,0,l),
(30,0,l)
);
}
);
width = 665;
}
);
leftKerningGroup = Z2;
rightKerningGroup = Z;
unicode = 90;
},
{
glyphname = bracketleft;
layers = (
{
layerId = "4B056265-F7A9-4FE5-8F86-068480F74FC7";
shapes = (
{
closed = 1;
nodes = (
(50,1210,l),
(430,1210,l),
(430,1000,l),
(275,1000,l),
(275,60,l),
(430,60,l),
(430,-150,l),
(50,-150,l)
);
}
);
width = 480;
}
);
unicode = 91;
},
{
glyphname = backslash;
layers = (
{
layerId = "4B056265-F7A9-4FE5-8F86-068480F74FC7";
shapes = (
{
closed = 1;
nodes = (
(25,1200,l),
(250,1200,l),
(693,0,l),
(468,0,l)
);
}
);
width = 718;
}
);
unicode = 92;
},
{
glyphname = bracketright;
layers = (
{
layerId = "4B056265-F7A9-4FE5-8F86-068480F74FC7";
shapes = (
{
closed = 1;
nodes = (
(50,-150,l),
(50,60,l),
(205,60,l),
(205,1000,l),
(50,1000,l),
(50,1210,l),
(430,1210,l),
(430,-150,l)
);
}
);
width = 480;
}
);
unicode = 93;
},
{
glyphname = asciicircum;
layers = (
{
layerId = "4B056265-F7A9-4FE5-8F86-068480F74FC7";
shapes = (
{
closed = 1;
nodes = (
(440,537,l),
(345,807,l),
(250,537,l),
(25,537,l),
(208,1000,l),
(482,1000,l),
(665,537,l)
);
}
);
width = 690;
}
);
unicode = 94;
},
{
glyphname = underscore;
layers = (
{
layerId = "4B056265-F7A9-4FE5-8F86-068480F74FC7";
shapes = (
{
closed = 1;
nodes = (
(50,0,l),
(493,0,l),
(493,-210,l),
(50,-210,l)
);
}
);
width = 543;
}
);
unicode = 95;
},
{
glyphname = grave;
layers = (
{
layerId = "4B056265-F7A9-4FE5-8F86-068480F74FC7";
shapes = (
{
closed = 1;
nodes = (
(25,1220,l),
(227,1220,l),
(356,930,l),
(196,930,l)
);
}
);
width = 381;
}
);
unicode = 96;
},
{
glyphname = a;
layers = (
{
layerId = "4B056265-F7A9-4FE5-8F86-068480F74FC7";
shapes = (
{
closed = 1;
nodes = (
(25,253,o),
(32,301,o),
(46,344,o),
(68,383,o),
(97,417,o),
(134,447,o),
(179,472,o),
(232,493,o),
(294,511,o),
(364,524,o),
(403,529,q),
(403,595,ls),
(403,601,o),
(401,612,o),
(398,623,o),
(394,633,o),
(388,641,o),
(382,649,o),
(373,655,o),
(364,660,o),
(354,663,o),
(343,665,o),
(337,665,qs),
(331,665,o),
(320,663,o),
(310,660,o),
(300,656,o),
(292,650,o),
(285,643,o),
(279,635,o),
(275,625,o),
(272,615,o),
(270,604,o),
(270,598,qs),
(270,575,l),
(50,575,l),
(50,634,ls),
(50,657,o),
(56,700,o),
(69,738,o),
(87,773,o),
(111,802,o),
(141,828,o),
(176,848,o),
(217,864,o),
(262,875,o),
(313,880,o),
(340,880,qs),
(386,880,o),
(464,865,o),
(528,836,o),
(577,794,o),
(611,739,o),
(628,673,o),
(628,634,qs),
(628,0,l),
(403,0,l),
(403,5,o),
(404,16,o),
(406,26,o),
(408,37,o),
(412,48,o),
(416,59,o),
(421,70,o),
(426,81,o),
(432,92,o),
(439,102,o),
(443,107,q),
(431,117,l),
(424,105,o),
(408,82,o),
(391,62,o),
(373,45,o),
(353,29,o),
(333,16,o),
(311,6,o),
(287,-2,o),
(263,-7,o),
(238,-10,o),
(225,-10,qs),
(206,-10,o),
(172,-4,o),
(141,6,o),
(113,22,o),
(88,42,o),
(68,67,o),
(51,96,o),
(38,129,o),
(29,165,o),
(25,205,o),
(25,226,qs)
);
},
{
closed = 1;
nodes = (
(255,253,o),
(257,240,o),
(260,228,o),
(264,218,o),
(270,209,o),
(278,201,o),
(286,195,o),
(296,190,o),
(307,187,o),
(319,185,o),
(325,185,qs),
(343,185,o),
(382,198,o),
(403,210,q),
(403,395,l),
(388,390,o),
(360,380,o),
(336,369,o),
(315,357,o),
(298,344,o),
(283,331,o),
(272,317,o),
(263,302,o),
(258,286,o),
(255,269,o),
(255,260,qs)
);
}
);
width = 678;
}
);
leftKerningGroup = a2;
rightKerningGroup = a;
unicode = 97;
},
{
glyphname = b;
layers = (
{
layerId = "4B056265-F7A9-4FE5-8F86-068480F74FC7";
shapes = (
{
closed = 1;
nodes = (
(50,0,l),
(50,1200,l),
(275,1200,l),
(275,798,l),
(283,807,o),
(299,822,o),
(316,835,o),
(332,847,o),
(349,856,o),
(366,864,o),
(383,871,o),
(401,875,o),
(419,878,o),
(438,880,o),
(448,880,qs),
(466,880,o),
(499,875,o),
(530,865,o),
(558,850,o),
(583,830,o),
(604,805,o),
(622,775,o),
(636,740,o),
(645,700,o),
(650,655,o),
(650,630,qs),
(650,243,ls),
(650,116,o),
(556,-10,o),
(461,-10,qs),
(447,-10,o),
(419,-7,o),
(393,-2,o),
(368,6,o),
(345,17,o),
(323,30,o),
(303,45,o),
(285,63,o),
(268,83,o),
(253,105,o),
(247,117,q),
(235,107,l),
(238,102,o),
(244,91,o),
(250,80,o),
(256,68,o),
(261,56,o),
(265,44,o),
(269,33,o),
(272,22,o),
(274,12,o),
(275,4,o),
(275,0,q)
);
},
{
closed = 1;
nodes = (
(265,296,ls),
(265,288,o),
(267,272,o),
(270,258,o),
(275,245,o),
(281,234,o),
(290,225,o),
(299,217,o),
(310,211,o),
(323,207,o),
(337,205,o),
(345,205,qs),
(353,205,o),
(367,207,o),
(380,211,o),
(391,217,o),
(400,225,o),
(409,234,o),
(415,245,o),
(420,258,o),
(423,272,o),
(425,288,o),
(425,296,qs),
(425,574,ls),
(425,582,o),
(423,598,o),
(420,612,o),
(415,625,o),
(409,636,o),
(400,645,o),
(391,653,o),
(380,659,o),
(367,663,o),
(353,665,o),
(345,665,qs),
(337,665,o),
(323,663,o),
(310,659,o),
(299,653,o),
(290,645,o),
(281,636,o),
(275,625,o),
(270,612,o),
(267,598,o),
(265,582,o),
(265,574,qs)
);
}
);
width = 690;
}
);
rightKerningGroup = b;
unicode = 98;
},
{
glyphname = c;
layers = (
{
layerId = "4B056265-F7A9-4FE5-8F86-068480F74FC7";
shapes = (
{
closed = 1;
nodes = (
(851,383,l),
(850,348,o),
(837,283,o),
(815,223,o),
(785,169,o),
(748,121,o),
(703,79,o),
(653,45,o),
(598,18,o),
(538,0,o),
(476,-10,o),
(443,-10,qs),
(408,-10,o),
(340,1,o),
(278,23,o),
(220,55,o),
(168,95,o),
(123,144,o),
(86,200,o),
(56,262,o),
(36,329,o),
(26,402,o),
(26,440,qs),
(26,478,o),
(37,550,o),
(57,617,o),
(87,678,o),
(124,732,o),
(169,779,o),
(221,818,o),
(278,848,o),
(341,869,o),
(408,880,o),
(443,880,qs),
(475,880,o),
(538,871,o),
(597,853,o),
(652,827,o),
(702,793,o),
(746,752,o),
(784,704,o),
(814,650,o),
(836,590,o),
(849,524,o),
(850,488,q),
(624,488,l),
(623,504,o),
(618,533,o),
(609,560,o),
(597,585,o),
(581,607,o),
(562,625,o),
(540,641,o),
(515,653,o),
(488,661,o),
(459,665,o),
(444,665,qs),
(427,665,o),
(395,660,o),
(365,649,o),
(338,633,o),
(315,614,o),
(294,589,o),
(277,561,o),
(264,529,o),
(256,494,o),
(251,456,o),
(251,435,qs),
(251,414,o),
(256,376,o),
(264,341,o),
(277,309,o),
(294,281,o),
(315,256,o),
(338,237,o),
(365,221,o),
(395,210,o),
(427,205,o),
(444,205,qs),
(460,205,o),
(489,209,o),
(516,217,o),
(540,229,o),
(562,245,o),
(581,264,o),
(597,285,o),
(609,310,o),
(618,337,o),
(623,367,o),
(624,383,q)
);
}
);
width = 876;
}
);
leftKerningGroup = c2;
rightKerningGroup = c;
unicode = 99;
},
{
glyphname = d;
layers = (
{
layerId = "4B056265-F7A9-4FE5-8F86-068480F74FC7";
shapes = (
{
closed = 1;
nodes = (
(415,0,l),
(415,4,o),
(416,12,o),
(418,22,o),
(421,33,o),
(425,44,o),
(429,56,o),
(434,68,o),
(440,80,o),
(446,91,o),
(452,102,o),
(455,107,q),
(443,117,l),
(437,105,o),
(422,83,o),
(405,63,o),
(387,45,o),
(367,30,o),
(345,17,o),
(322,6,o),
(297,-2,o),
(271,-7,o),
(243,-10,o),
(229,-10,qs),
(134,-10,o),
(40,116,o),
(40,243,qs),
(40,630,ls),
(40,655,o),
(45,700,o),
(54,740,o),
(68,775,o),
(86,805,o),
(107,830,o),
(132,850,o),
(160,865,o),
(191,875,o),
(224,880,o),
(242,880,qs),
(252,880,o),
(271,878,o),
(289,875,o),
(307,871,o),
(324,864,o),
(341,856,o),
(358,847,o),
(374,835,o),
(391,822,o),
(407,807,o),
(415,798,q),
(415,1200,l),
(640,1200,l),
(640,0,l)
);
},
{
closed = 1;
nodes = (
(425,574,ls),
(425,582,o),
(423,598,o),
(420,612,o),
(415,625,o),
(409,636,o),
(400,645,o),
(391,653,o),
(380,659,o),
(367,663,o),
(353,665,o),
(345,665,qs),
(337,665,o),
(323,663,o),
(310,659,o),
(299,653,o),
(290,645,o),
(281,636,o),
(275,625,o),
(270,612,o),
(267,598,o),
(265,582,o),
(265,574,qs),
(265,296,ls),
(265,288,o),
(267,272,o),
(270,258,o),
(275,245,o),
(281,234,o),
(290,225,o),
(299,217,o),
(310,211,o),
(323,207,o),
(337,205,o),
(345,205,qs),
(353,205,o),
(367,207,o),
(380,211,o),
(391,217,o),
(400,225,o),
(409,234,o),
(415,245,o),
(420,258,o),
(423,272,o),
(425,288,o),
(425,296,qs)
);
}
);
width = 690;
}
);
leftKerningGroup = d;
unicode = 100;
},
{
glyphname = e;
layers = (
{
layerId = "4B056265-F7A9-4FE5-8F86-068480F74FC7";
shapes = (
{
closed = 1;
nodes = (
(855,365,l),
(247,365,l),
(250,350,o),
(260,322,o),
(273,297,o),
(288,275,o),
(306,256,o),
(326,239,o),
(349,226,o),
(374,216,o),
(401,209,o),
(430,205,o),
(446,205,qs),
(458,205,o),
(481,207,o),
(503,211,o),
(524,217,o),
(544,225,o),
(562,235,o),
(579,246,o),
(593,259,o),
(605,273,o),
(615,289,o),
(619,297,q),
(848,297,l),
(842,270,o),
(824,220,o),
(798,173,o),
(766,130,o),
(728,93,o),
(685,60,o),
(637,33,o),
(585,12,o),
(531,-2,o),
(473,-10,o),
(443,-10,qs),
(407,-10,o),
(339,1,o),
(275,22,o),
(218,53,o),
(166,93,o),
(121,141,o),
(84,196,o),
(55,258,o),
(35,326,o),
(25,399,o),
(25,438,qs),
(25,477,o),
(36,549,o),
(57,617,o),
(86,678,o),
(124,732,o),
(170,779,o),
(222,818,o),
(280,848,o),
(343,869,o),
(410,880,o),
(445,880,qs),
(480,880,o),
(546,868,o),
(607,846,o),
(664,815,o),
(714,774,o),
(759,726,o),
(796,671,o),
(825,610,o),
(845,544,o),
(855,474,o),
(855,438,qs)
);
},
{
closed = 1;
nodes = (
(634,515,l),
(630,528,o),
(619,553,o),
(605,576,o),
(589,597,o),
(571,615,o),
(551,631,o),
(529,644,o),
(505,654,o),
(480,661,o),
(454,665,o),
(440,665,qs),
(426,665,o),
(400,661,o),
(376,654,o),
(353,644,o),
(331,631,o),
(312,615,o),
(294,597,o),
(279,576,o),
(266,553,o),
(255,528,o),
(251,515,q)
);
}
);
width = 880;
}
);
leftKerningGroup = c2;
rightKerningGroup = c;
unicode = 101;
},
{
glyphname = f;
layers = (
{
layerId = "4B056265-F7A9-4FE5-8F86-068480F74FC7";
shapes = (
{
closed = 1;
nodes = (
(90,660,l),
(10,660,l),
(10,870,l),
(164,870,l),
(164,886,l),
(154,890,o),
(135,901,o),
(118,913,o),
(103,927,o),
(90,942,o),
(78,959,o),
(69,977,o),
(62,996,o),
(57,1016,o),
(55,1037,o),
(55,1048,qs),
(55,1063,o),
(59,1089,o),
(68,1113,o),
(81,1135,o),
(98,1153,o),
(119,1168,o),
(144,1181,o),
(173,1190,o),
(206,1197,o),
(242,1200,o),
(262,1200,qs),
(490,1200,l),
(480,985,l),
(335,985,ls),
(330,985,o),
(320,984,o),
(311,981,o),
(304,978,o),
(297,973,o),
(291,967,o),
(286,960,o),
(283,952,o),
(280,943,o),
(279,933,o),
(279,928,qs),
(279,923,o),
(280,913,o),
(283,904,o),
(286,896,o),
(291,889,o),
(297,882,o),
(304,878,o),
(311,874,o),
(320,871,o),
(330,870,o),
(335,870,qs),
(480,870,l),
(480,660,l),
(315,660,l),
(315,0,l),
(90,0,l)
);
}
);
width = 510;
}
);
leftKerningGroup = f2;
rightKerningGroup = f;
unicode = 102;
},
{
glyphname = g;
layers = (
{
layerId = "4B056265-F7A9-4FE5-8F86-068480F74FC7";
shapes = (
{
closed = 1;
nodes = (
(114,-85,l),
(385,-85,ls),
(415,-85,o),
(415,-55,qs),
(415,102,l),
(408,95,o),
(392,81,o),
(374,68,o),
(356,57,o),
(336,47,o),
(316,38,o),
(295,31,o),
(274,26,o),
(252,22,o),
(230,20,o),
(219,20,qs),
(202,20,o),
(170,25,o),
(142,34,o),
(117,49,o),
(95,68,o),
(77,92,o),
(63,122,o),
(51,156,o),
(44,196,o),
(40,240,o),
(40,265,qs),
(40,639,ls),
(40,661,o),
(45,702,o),
(54,740,o),
(67,773,o),
(84,802,o),
(105,828,o),
(129,848,o),
(156,864,o),
(187,874,o),
(221,880,o),
(239,880,qs),
(251,880,o),
(274,878,o),
(295,873,o),
(317,866,o),
(337,856,o),
(357,843,o),
(376,828,o),
(396,810,o),
(415,790,o),
(434,766,o),
(443,753,q),
(455,763,l),
(452,768,o),
(446,779,o),
(440,790,o),
(434,802,o),
(429,814,o),
(425,826,o),
(421,837,o),
(418,848,o),
(416,858,o),
(415,866,o),
(415,870,q),
(640,870,l),
(640,-100,ls),
(640,-120,o),
(636,-156,o),
(628,-188,o),
(616,-216,o),
(600,-240,o),
(580,-260,o),
(556,-276,o),
(528,-288,o),
(496,-296,o),
(460,-300,o),
(440,-300,qs),
(104,-300,l)
);
},
{
closed = 1;
nodes = (
(425,580,ls),
(425,588,o),
(423,603,o),
(420,616,o),
(415,628,o),
(409,638,o),
(400,647,o),
(391,654,o),
(380,659,o),
(367,663,o),
(353,665,o),
(345,665,qs),
(337,665,o),
(323,663,o),
(310,659,o),
(299,654,o),
(290,647,o),
(281,638,o),
(275,628,o),
(270,616,o),
(267,603,o),
(265,588,o),
(265,580,qs),
(265,320,ls),
(265,312,o),
(267,297,o),
(270,284,o),
(275,272,o),
(281,262,o),
(290,253,o),
(299,246,o),
(310,241,o),
(323,237,o),
(337,235,o),
(345,235,qs),
(353,235,o),
(367,237,o),
(380,241,o),
(391,246,o),
(400,253,o),
(409,262,o),
(415,272,o),
(420,284,o),
(423,297,o),
(425,312,o),
(425,320,qs)
);
}
);
width = 690;
}
);
leftKerningGroup = d;
unicode = 103;
},
{
glyphname = h;
layers = (
{
layerId = "4B056265-F7A9-4FE5-8F86-068480F74FC7";
shapes = (
{
closed = 1;
nodes = (
(275,870,ls),
(275,866,o),
(274,858,o),
(272,848,o),
(269,837,o),
(265,826,o),
(261,814,o),
(256,802,o),
(250,790,o),
(244,779,o),
(238,768,o),
(235,763,q),
(247,753,l),
(255,765,o),
(273,788,o),
(291,808,o),
(311,825,o),
(331,841,o),
(352,854,o),
(374,864,o),
(396,872,o),
(419,877,o),
(442,880,o),
(454,880,qs),
(471,880,o),
(501,875,o),
(529,865,o),
(554,851,o),
(575,832,o),
(593,808,o),
(608,780,o),
(619,748,o),
(626,712,o),
(630,672,o),
(630,650,qs),
(630,0,l),
(405,0,l),
(405,610,ls),
(405,616,o),
(404,626,o),
(401,635,o),
(397,642,o),
(393,649,o),
(387,654,o),
(380,659,o),
(373,662,o),
(364,664,o),
(356,665,o),
(351,665,qs),
(347,665,o),
(340,664,o),
(332,663,o),
(325,661,o),
(317,659,o),
(309,656,o),
(301,652,o),
(294,648,o),
(286,644,o),
(279,639,o),
(275,636,q),
(275,0,l),
(50,0,l),
(50,1200,l),
(275,1200,l)
);
}
);
width = 680;
}
);
rightKerningGroup = h;
unicode = 104;
},
{
glyphname = i;
layers = (
{
layerId = "4B056265-F7A9-4FE5-8F86-068480F74FC7";
shapes = (
{
closed = 1;
nodes = (
(50,870,l),
(275,870,l),
(275,0,l),
(50,0,l)
);
},
{
closed = 1;
nodes = (
(152,952,o),
(131,955,o),
(111,962,o),
(92,972,o),
(75,984,o),
(60,998,o),
(48,1015,o),
(38,1033,o),
(32,1053,o),
(28,1075,o),
(28,1086,qs),
(28,1097,o),
(32,1119,o),
(38,1139,o),
(48,1157,o),
(60,1174,o),
(75,1188,o),
(92,1200,o),
(111,1210,o),
(131,1217,o),
(152,1220,o),
(163,1220,qs),
(174,1220,o),
(195,1217,o),
(215,1210,o),
(234,1200,o),
(250,1188,o),
(265,1174,o),
(277,1157,o),
(287,1139,o),
(293,1119,o),
(297,1097,o),
(297,1086,qs),
(297,1075,o),
(293,1053,o),
(287,1033,o),
(277,1015,o),
(265,998,o),
(250,984,o),
(234,972,o),
(215,962,o),
(195,955,o),
(174,952,o),
(163,952,qs)
);
}
);
width = 325;
}
);
unicode = 105;
},
{
glyphname = j;
layers = (
{
layerId = "4B056265-F7A9-4FE5-8F86-068480F74FC7";
shapes = (
{
closed = 1;
nodes = (
(275,870,l),
(275,-100,ls),
(275,-120,o),
(271,-156,o),
(263,-188,o),
(251,-216,o),
(235,-240,o),
(215,-260,o),
(191,-276,o),
(163,-288,o),
(131,-296,o),
(95,-300,o),
(75,-300,qs),
(-90,-300,l),
(-80,-85,l),
(20,-85,ls),
(50,-85,o),
(50,-55,qs),
(50,870,l)
);
},
{
closed = 1;
nodes = (
(152,952,o),
(131,955,o),
(111,962,o),
(92,972,o),
(75,984,o),
(60,998,o),
(48,1015,o),
(38,1033,o),
(32,1053,o),
(28,1075,o),
(28,1086,qs),
(28,1097,o),
(32,1119,o),
(38,1139,o),
(48,1157,o),
(60,1174,o),
(75,1188,o),
(92,1200,o),
(111,1210,o),
(131,1217,o),
(152,1220,o),
(163,1220,qs),
(174,1220,o),
(195,1217,o),
(215,1210,o),
(234,1200,o),
(250,1188,o),
(265,1174,o),
(277,1157,o),
(287,1139,o),
(293,1119,o),
(297,1097,o),
(297,1086,qs),
(297,1075,o),
(293,1053,o),
(287,1033,o),
(277,1015,o),
(265,998,o),
(250,984,o),
(234,972,o),
(215,962,o),
(195,955,o),
(174,952,o),
(163,952,qs)
);
}
);
width = 325;
}
);
unicode = 106;
},
{
glyphname = k;
layers = (
{
layerId = "4B056265-F7A9-4FE5-8F86-068480F74FC7";
shapes = (
{
closed = 1;
nodes = (
(275,716,ls),
(275,710,o),
(274,696,o),
(273,682,o),
(271,666,o),
(268,650,o),
(264,632,o),
(260,613,o),
(255,593,o),
(250,573,o),
(243,551,o),
(240,540,q),
(256,540,l),
(258,547,o),
(262,563,o),
(267,579,o),
(273,595,o),
(279,612,o),
(286,630,o),
(293,647,o),
(301,664,o),
(309,681,o),
(317,697,o),
(321,705,q),
(410,870,l),
(635,870,l),
(447,560,l),
(650,0,l),
(425,0,l),
(301,343,l),
(275,305,l),
(275,0,l),
(50,0,l),
(50,1200,l),
(275,1200,l)
);
}
);
width = 675;
}
);
rightKerningGroup = k;
unicode = 107;
},
{
glyphname = l;
layers = (
{
layerId = "4B056265-F7A9-4FE5-8F86-068480F74FC7";
shapes = (
{
closed = 1;
nodes = (
(50,0,l),
(50,1200,l),
(275,1200,l),
(275,0,l)
);
}
);
width = 325;
}
);
unicode = 108;
},
{
glyphname = m;
layers = (
{
layerId = "4B056265-F7A9-4FE5-8F86-068480F74FC7";
shapes = (
{
closed = 1;
nodes = (
(354,665,o),
(347,664,o),
(339,663,o),
(330,661,o),
(322,659,o),
(313,656,o),
(305,652,o),
(296,648,o),
(287,644,o),
(279,639,o),
(275,636,q),
(275,0,l),
(50,0,l),
(50,870,l),
(275,870,l),
(275,866,o),
(274,856,o),
(272,846,o),
(268,835,o),
(264,823,o),
(260,811,o),
(255,800,o),
(249,788,o),
(244,778,o),
(238,767,o),
(235,763,q),
(247,753,l),
(255,765,o),
(273,786,o),
(292,806,o),
(312,824,o),
(333,839,o),
(355,853,o),
(378,864,o),
(401,872,o),
(424,877,o),
(447,880,o),
(458,880,qs),
(467,880,o),
(483,878,o),
(499,874,o),
(513,869,o),
(527,862,o),
(541,853,o),
(553,843,o),
(565,831,o),
(576,818,o),
(585,803,o),
(590,795,q),
(599,803,o),
(619,818,o),
(639,831,o),
(659,843,o),
(680,853,o),
(701,862,o),
(723,869,o),
(744,875,o),
(766,878,o),
(787,880,o),
(797,880,qs),
(814,880,o),
(846,875,o),
(875,865,o),
(900,851,o),
(923,833,o),
(942,810,o),
(957,783,o),
(969,753,o),
(977,718,o),
(981,681,o),
(981,660,qs),
(981,0,l),
(756,0,l),
(756,610,ls),
(756,615,o),
(755,625,o),
(753,633,o),
(749,641,o),
(745,648,o),
(740,653,o),
(733,658,o),
(726,661,o),
(718,664,o),
(709,665,o),
(704,665,qs),
(682,665,o),
(637,644,o),
(618,625,q),
(618,0,l),
(413,0,l),
(413,610,ls),
(413,615,o),
(412,625,o),
(409,633,o),
(406,641,o),
(401,647,o),
(395,653,o),
(389,658,o),
(381,661,o),
(373,664,o),
(363,665,o),
(358,665,qs)
);
}
);
width = 1031;
}
);
rightKerningGroup = h;
unicode = 109;
},
{
glyphname = n;
layers = (
{
layerId = "4B056265-F7A9-4FE5-8F86-068480F74FC7";
shapes = (
{
closed = 1;
nodes = (
(275,870,l),
(275,867,o),
(274,859,o),
(272,850,o),
(270,839,o),
(266,828,o),
(262,817,o),
(257,805,o),
(251,792,o),
(245,780,o),
(239,769,o),
(235,763,q),
(247,753,l),
(255,765,o),
(273,788,o),
(291,808,o),
(311,825,o),
(331,841,o),
(352,854,o),
(374,864,o),
(396,872,o),
(419,877,o),
(442,880,o),
(454,880,qs),
(471,880,o),
(501,875,o),
(529,865,o),
(554,851,o),
(575,832,o),
(593,808,o),
(608,780,o),
(619,748,o),
(626,712,o),
(630,672,o),
(630,650,qs),
(630,0,l),
(405,0,l),
(405,610,ls),
(405,616,o),
(404,626,o),
(401,635,o),
(397,642,o),
(393,649,o),
(387,654,o),
(380,659,o),
(373,662,o),
(364,664,o),
(356,665,o),
(351,665,qs),
(347,665,o),
(340,664,o),
(332,663,o),
(325,661,o),
(317,659,o),
(309,656,o),
(301,652,o),
(294,648,o),
(286,644,o),
(279,639,o),
(275,636,q),
(275,0,l),
(50,0,l),
(50,870,l)
);
}
);
width = 680;
}
);
rightKerningGroup = h;
unicode = 110;
},
{
glyphname = o;
layers = (
{
layerId = "4B056265-F7A9-4FE5-8F86-068480F74FC7";
shapes = (
{
closed = 1;
nodes = (
(428,-10,o),
(358,2,o),
(292,24,o),
(232,56,o),
(177,97,o),
(129,145,o),
(89,201,o),
(58,263,o),
(36,330,o),
(25,401,o),
(25,438,qs),
(25,474,o),
(36,544,o),
(58,610,o),
(89,671,o),
(129,726,o),
(177,774,o),
(232,815,o),
(292,846,o),
(358,868,o),
(428,880,o),
(465,880,qs),
(501,880,o),
(571,868,o),
(636,846,o),
(697,815,o),
(752,774,o),
(800,726,o),
(840,671,o),
(872,610,o),
(893,544,o),
(905,474,o),
(905,438,qs),
(905,401,o),
(893,330,o),
(872,263,o),
(840,201,o),
(800,145,o),
(752,97,o),
(697,56,o),
(636,24,o),
(571,2,o),
(501,-10,o),
(465,-10,qs)
);
},
{
closed = 1;
nodes = (
(484,205,o),
(517,211,o),
(549,222,o),
(579,238,o),
(605,259,o),
(629,284,o),
(648,313,o),
(664,344,o),
(674,379,o),
(680,416,o),
(680,435,qs),
(680,455,o),
(674,492,o),
(664,526,o),
(648,558,o),
(629,586,o),
(605,611,o),
(579,632,o),
(549,648,o),
(517,659,o),
(484,665,o),
(466,665,qs),
(448,665,o),
(414,659,o),
(382,648,o),
(352,632,o),
(325,611,o),
(302,586,o),
(282,558,o),
(266,526,o),
(256,492,o),
(250,454,o),
(250,435,qs),
(250,416,o),
(256,379,o),
(266,344,o),
(282,313,o),
(302,284,o),
(325,259,o),
(352,238,o),
(382,222,o),
(414,211,o),
(448,205,o),
(466,205,qs)
);
}
);
width = 930;
}
);
leftKerningGroup = c2;
rightKerningGroup = c;
unicode = 111;
},
{
glyphname = p;
layers = (
{
layerId = "4B056265-F7A9-4FE5-8F86-068480F74FC7";
shapes = (
{
closed = 1;
nodes = (
(275,870,l),
(275,866,o),
(274,858,o),
(272,848,o),
(269,837,o),
(265,826,o),
(261,814,o),
(256,802,o),
(250,790,o),
(244,779,o),
(238,768,o),
(235,763,q),
(247,753,l),
(288,816,o),
(396,880,o),
(464,880,qs),
(483,880,o),
(517,875,o),
(547,865,o),
(573,850,o),
(595,830,o),
(613,805,o),
(628,775,o),
(639,740,o),
(646,700,o),
(650,655,o),
(650,630,qs),
(650,243,ls),
(650,217,o),
(646,171,o),
(638,130,o),
(627,95,o),
(611,65,o),
(592,39,o),
(569,20,o),
(542,5,o),
(511,-5,o),
(475,-10,o),
(456,-10,qs),
(446,-10,o),
(425,-9,o),
(405,-6,o),
(386,-2,o),
(367,4,o),
(349,10,o),
(331,18,o),
(314,27,o),
(298,36,o),
(282,47,o),
(275,53,q),
(275,-300,l),
(50,-300,l),
(50,870,l)
);
},
{
closed = 1;
nodes = (
(265,296,ls),
(265,288,o),
(267,272,o),
(270,258,o),
(275,245,o),
(281,234,o),
(290,225,o),
(299,217,o),
(310,211,o),
(323,207,o),
(337,205,o),
(345,205,qs),
(353,205,o),
(367,207,o),
(380,211,o),
(391,217,o),
(400,225,o),
(409,234,o),
(415,245,o),
(420,258,o),
(423,272,o),
(425,288,o),
(425,296,qs),
(425,574,ls),
(425,582,o),
(423,598,o),
(420,612,o),
(415,625,o),
(409,636,o),
(400,645,o),
(391,653,o),
(380,659,o),
(367,663,o),
(353,665,o),
(345,665,qs),
(337,665,o),
(323,663,o),
(310,659,o),
(299,653,o),
(290,645,o),
(281,636,o),
(275,625,o),
(270,612,o),
(267,598,o),
(265,582,o),
(265,574,qs)
);
}
);
width = 690;
}
);
rightKerningGroup = b;
unicode = 112;
},
{
glyphname = q;
layers = (
{
layerId = "4B056265-F7A9-4FE5-8F86-068480F74FC7";
shapes = (
{
closed = 1;
nodes = (
(640,870,l),
(640,-300,l),
(415,-300,l),
(415,68,l),
(372,30,o),
(275,-10,o),
(223,-10,qs),
(178,-10,o),
(110,21,o),
(64,83,o),
(40,179,o),
(40,243,qs),
(40,630,ls),
(40,655,o),
(44,699,o),
(52,739,o),
(65,774,o),
(81,804,o),
(101,829,o),
(125,849,o),
(153,865,o),
(184,875,o),
(219,880,o),
(239,880,qs),
(251,880,o),
(274,878,o),
(295,873,o),
(317,866,o),
(337,856,o),
(357,843,o),
(376,828,o),
(396,810,o),
(415,790,o),
(434,766,o),
(443,753,q),
(455,763,l),
(452,768,o),
(446,779,o),
(440,790,o),
(434,802,o),
(429,814,o),
(425,826,o),
(421,837,o),
(418,848,o),
(416,858,o),
(415,866,o),
(415,870,q)
);
},
{
closed = 1;
nodes = (
(425,574,ls),
(425,582,o),
(423,598,o),
(420,612,o),
(415,625,o),
(409,636,o),
(400,645,o),
(391,653,o),
(380,659,o),
(367,663,o),
(353,665,o),
(345,665,qs),
(337,665,o),
(323,663,o),
(310,659,o),
(299,653,o),
(290,645,o),
(281,636,o),
(275,625,o),
(270,612,o),
(267,598,o),
(265,582,o),
(265,574,qs),
(265,296,ls),
(265,288,o),
(267,272,o),
(270,258,o),
(275,245,o),
(281,234,o),
(290,225,o),
(299,217,o),
(310,211,o),
(323,207,o),
(337,205,o),
(345,205,qs),
(353,205,o),
(367,207,o),
(380,211,o),
(391,217,o),
(400,225,o),
(409,234,o),
(415,245,o),
(420,258,o),
(423,272,o),
(425,288,o),
(425,296,qs)
);
}
);
width = 690;
}
);
leftKerningGroup = d;
unicode = 113;
},
{
glyphname = r;
layers = (
{
layerId = "4B056265-F7A9-4FE5-8F86-068480F74FC7";
shapes = (
{
closed = 1;
nodes = (
(275,870,l),
(275,866,o),
(274,856,o),
(272,845,o),
(268,834,o),
(264,822,o),
(260,811,o),
(255,799,o),
(249,788,o),
(244,777,o),
(238,767,o),
(235,763,q),
(247,753,l),
(255,765,o),
(271,787,o),
(289,807,o),
(308,823,o),
(328,837,o),
(350,848,o),
(374,857,o),
(400,864,o),
(427,868,o),
(458,870,o),
(474,870,qs),
(513,870,l),
(503,655,l),
(440,655,ls),
(414,655,o),
(370,649,o),
(333,638,o),
(305,621,o),
(285,599,o),
(275,572,o),
(275,556,qs),
(275,0,l),
(50,0,l),
(50,870,l)
);
}
);
width = 528;
}
);
rightKerningGroup = r;
unicode = 114;
},
{
glyphname = s;
layers = (
{
layerId = "4B056265-F7A9-4FE5-8F86-068480F74FC7";
shapes = (
{
closed = 1;
nodes = (
(370,648,ls),
(370,695,o),
(311,695,qs),
(299,695,o),
(280,689,o),
(267,677,o),
(260,659,o),
(260,646,qs),
(260,644,o),
(260,639,o),
(262,633,o),
(265,626,o),
(271,617,o),
(280,606,o),
(292,593,o),
(309,577,o),
(330,559,o),
(357,537,o),
(374,525,q),
(400,505,o),
(446,469,o),
(484,437,o),
(515,407,o),
(541,379,o),
(560,353,o),
(575,327,o),
(586,301,o),
(592,273,o),
(595,245,o),
(595,229,qs),
(595,171,o),
(558,82,o),
(485,21,o),
(378,-10,o),
(307,-10,qs),
(279,-10,o),
(229,-5,o),
(184,5,o),
(145,19,o),
(111,38,o),
(82,62,o),
(60,91,o),
(42,124,o),
(31,162,o),
(25,204,o),
(25,227,qs),
(25,305,l),
(220,305,l),
(220,247,ls),
(220,240,o),
(222,228,o),
(225,217,o),
(230,207,o),
(237,198,o),
(244,190,o),
(254,184,o),
(265,180,o),
(277,177,o),
(290,175,o),
(297,175,qs),
(304,175,o),
(316,176,o),
(328,179,o),
(338,183,o),
(347,188,o),
(354,194,o),
(360,201,o),
(365,209,o),
(368,219,o),
(370,229,o),
(370,234,qs),
(370,239,o),
(369,249,o),
(365,259,o),
(360,269,o),
(352,280,o),
(340,292,o),
(326,305,o),
(308,321,o),
(286,339,o),
(260,359,o),
(244,371,qs),
(219,390,o),
(177,424,o),
(141,455,o),
(111,484,o),
(87,512,o),
(68,538,o),
(54,564,o),
(44,590,o),
(38,617,o),
(35,645,o),
(35,660,qs),
(35,769,o),
(170,880,o),
(303,880,qs),
(329,880,o),
(375,876,o),
(417,867,o),
(454,855,o),
(485,838,o),
(512,817,o),
(533,793,o),
(549,764,o),
(560,732,o),
(565,695,o),
(565,675,qs),
(565,610,l),
(370,610,l)
);
}
);
width = 620;
}
);
leftKerningGroup = s2;
rightKerningGroup = s;
unicode = 115;
},
{
glyphname = t;
layers = (
{
layerId = "4B056265-F7A9-4FE5-8F86-068480F74FC7";
shapes = (
{
closed = 1;
nodes = (
(315,1022,ls),
(315,966,o),
(271,889,o),
(226,866,q),
(226,850,l),
(248,860,o),
(296,870,o),
(321,870,qs),
(480,870,l),
(480,660,l),
(315,660,l),
(315,245,ls),
(315,215,o),
(345,215,qs),
(480,215,l),
(490,0,l),
(290,0,ls),
(270,0,o),
(234,4,o),
(202,12,o),
(174,24,o),
(150,39,o),
(130,59,o),
(114,83,o),
(102,110,o),
(94,142,o),
(90,178,o),
(90,198,qs),
(90,660,l),
(10,660,l),
(10,870,l),
(90,870,l),
(90,1080,l),
(315,1080,l)
);
}
);
width = 520;
}
);
leftKerningGroup = t2;
rightKerningGroup = t;
unicode = 116;
},
{
glyphname = u;
layers = (
{
layerId = "4B056265-F7A9-4FE5-8F86-068480F74FC7";
shapes = (
{
closed = 1;
nodes = (
(50,870,l),
(275,870,l),
(275,260,ls),
(275,254,o),
(276,244,o),
(279,235,o),
(283,227,o),
(287,221,o),
(293,216,o),
(300,211,o),
(307,208,o),
(316,206,o),
(324,205,o),
(329,205,qs),
(333,205,o),
(340,206,o),
(348,207,o),
(355,209,o),
(363,211,o),
(371,214,o),
(379,218,o),
(386,222,o),
(394,226,o),
(401,231,o),
(405,234,q),
(405,870,l),
(630,870,l),
(630,0,l),
(405,0,l),
(405,5,o),
(406,15,o),
(408,26,o),
(411,38,o),
(414,50,o),
(418,62,o),
(422,74,o),
(427,86,o),
(433,97,o),
(438,107,o),
(441,111,q),
(433,117,l),
(424,105,o),
(406,82,o),
(387,62,o),
(368,44,o),
(347,29,o),
(327,16,o),
(305,6,o),
(283,-2,o),
(261,-7,o),
(238,-10,o),
(226,-10,qs),
(210,-10,o),
(180,-5,o),
(152,5,o),
(128,20,o),
(106,39,o),
(88,63,o),
(73,91,o),
(62,123,o),
(54,159,o),
(50,199,o),
(50,220,qs)
);
}
);
width = 680;
}
);
leftKerningGroup = u;
unicode = 117;
},
{
glyphname = v;
layers = (
{
layerId = "4B056265-F7A9-4FE5-8F86-068480F74FC7";
shapes = (
{
closed = 1;
nodes = (
(306,422,ls),
(308,410,o),
(312,384,o),
(315,357,o),
(318,329,o),
(320,301,o),
(322,272,o),
(324,244,o),
(326,216,o),
(327,188,o),
(327,162,o),
(327,150,q),
(343,150,l),
(343,162,o),
(344,188,o),
(345,216,o),
(347,244,o),
(350,272,o),
(353,301,o),
(357,329,o),
(360,357,o),
(364,384,o),
(368,410,o),
(370,422,qs),
(440,870,l),
(660,870,l),
(492,0,l),
(178,0,l),
(10,870,l),
(235,870,l)
);
}
);
width = 670;
}
);
leftKerningGroup = v2;
rightKerningGroup = v;
unicode = 118;
},
{
glyphname = w;
layers = (
{
layerId = "4B056265-F7A9-4FE5-8F86-068480F74FC7";
shapes = (
{
closed = 1;
nodes = (
(567,229,ls),
(564,244,o),
(559,276,o),
(555,310,o),
(551,345,o),
(547,381,o),
(544,417,o),
(542,452,o),
(540,488,o),
(539,522,o),
(538,555,o),
(538,570,q),
(522,570,l),
(522,555,o),
(521,522,o),
(520,488,o),
(518,452,o),
(515,417,o),
(512,381,o),
(509,345,o),
(504,310,o),
(500,276,o),
(495,244,o),
(492,229,qs),
(452,0,l),
(178,0,l),
(10,870,l),
(235,870,l),
(304,415,ls),
(306,403,o),
(309,378,o),
(312,352,o),
(315,325,o),
(317,298,o),
(320,270,o),
(321,242,o),
(323,215,o),
(324,188,o),
(324,162,o),
(324,150,q),
(340,150,l),
(340,184,ls),
(340,195,o),
(340,219,o),
(340,243,o),
(341,267,o),
(341,291,o),
(342,314,o),
(344,338,o),
(345,361,o),
(348,383,o),
(350,405,o),
(352,415,q),
(429,870,l),
(630,870,l),
(707,415,l),
(709,405,o),
(711,383,o),
(714,361,o),
(715,338,o),
(717,314,o),
(718,291,o),
(718,267,o),
(719,243,o),
(719,219,o),
(719,195,o),
(719,184,qs),
(719,150,l),
(735,150,l),
(735,162,o),
(735,188,o),
(736,215,o),
(738,242,o),
(739,270,o),
(742,298,o),
(744,325,o),
(747,352,o),
(750,378,o),
(753,403,o),
(755,415,qs),
(824,870,l),
(1049,870,l),
(881,0,l),
(607,0,l)
);
}
);
width = 1059;
}
);
leftKerningGroup = v2;
rightKerningGroup = v;
unicode = 119;
},
{
glyphname = x;
layers = (
{
layerId = "4B056265-F7A9-4FE5-8F86-068480F74FC7";
shapes = (
{
closed = 1;
nodes = (
(347,663,ls),
(348,660,o),
(350,654,o),
(353,648,o),
(355,641,o),
(356,634,o),
(358,627,o),
(359,620,o),
(360,613,o),
(361,606,o),
(361,599,o),
(361,596,q),
(377,596,l),
(377,599,o),
(377,606,o),
(378,613,o),
(379,620,o),
(380,627,o),
(381,634,o),
(383,641,o),
(385,648,o),
(387,654,o),
(389,660,o),
(390,663,qs),
(471,870,l),
(706,870,l),
(498,435,l),
(706,0,l),
(471,0,l),
(384,209,ls),
(383,212,o),
(380,218,o),
(378,224,o),
(376,231,o),
(374,238,o),
(373,245,o),
(371,252,o),
(370,259,o),
(369,265,o),
(369,272,o),
(369,275,q),
(353,275,l),
(353,272,o),
(353,265,o),
(352,258,o),
(351,251,o),
(350,244,o),
(349,237,o),
(348,230,o),
(346,223,o),
(344,217,o),
(342,211,o),
(341,208,qs),
(265,0,l),
(25,0,l),
(233,435,l),
(25,870,l),
(265,870,l)
);
}
);
width = 731;
}
);
unicode = 120;
},
{
glyphname = y;
layers = (
{
layerId = "4B056265-F7A9-4FE5-8F86-068480F74FC7";
shapes = (
{
closed = 1;
nodes = (
(309,406,ls),
(311,394,o),
(314,370,o),
(317,345,o),
(320,318,o),
(322,292,o),
(324,265,o),
(326,238,o),
(327,212,o),
(328,186,o),
(328,162,o),
(328,150,q),
(344,150,l),
(344,162,o),
(344,186,o),
(345,212,o),
(347,239,o),
(348,265,o),
(351,292,o),
(353,319,o),
(356,345,o),
(359,370,o),
(362,395,o),
(364,406,qs),
(440,870,l),
(660,870,l),
(434,-300,l),
(209,-300,l),
(289,0,l),
(178,0,l),
(10,870,l),
(235,870,l)
);
}
);
width = 670;
}
);
leftKerningGroup = v2;
rightKerningGroup = v;
unicode = 121;
},
{
glyphname = z;
layers = (
{
layerId = "4B056265-F7A9-4FE5-8F86-068480F74FC7";
shapes = (
{
closed = 1;
nodes = (
(30,110,l),
(274,660,l),
(40,660,l),
(40,870,l),
(560,870,l),
(560,760,l),
(315,210,l),
(570,210,l),
(570,0,l),
(30,0,l)
);
}
);
width = 600;
}
);
leftKerningGroup = z2;
rightKerningGroup = z;
unicode = 122;
},
{
glyphname = braceleft;
layers = (
{
layerId = "4B056265-F7A9-4FE5-8F86-068480F74FC7";
shapes = (
{
closed = 1;
nodes = (
(141,325,ls),
(141,425,o),
(41,425,qs),
(10,425,l),
(10,635,l),
(41,635,ls),
(141,635,o),
(141,735,qs),
(141,860,ls),
(141,895,o),
(148,958,o),
(162,1014,o),
(183,1063,o),
(211,1105,o),
(246,1140,o),
(288,1168,o),
(337,1189,o),
(393,1203,o),
(456,1210,o),
(491,1210,qs),
(521,1210,l),
(521,1000,l),
(466,1000,ls),
(366,1000,o),
(366,900,qs),
(366,685,ls),
(366,676,o),
(364,659,o),
(361,641,o),
(357,623,o),
(350,606,o),
(342,589,o),
(333,573,o),
(321,559,o),
(309,546,o),
(294,534,o),
(286,530,q),
(294,525,o),
(309,514,o),
(321,500,o),
(333,486,o),
(342,470,o),
(350,454,o),
(357,436,o),
(361,419,o),
(364,401,o),
(366,384,o),
(366,375,qs),
(366,160,ls),
(366,60,o),
(466,60,qs),
(521,60,l),
(521,-150,l),
(491,-150,ls),
(456,-150,o),
(393,-143,o),
(337,-129,o),
(288,-108,o),
(246,-80,o),
(211,-45,o),
(183,-3,o),
(162,46,o),
(148,102,o),
(141,165,o),
(141,200,qs)
);
}
);
width = 571;
}
);
unicode = 123;
},
{
glyphname = bar;
layers = (
{
layerId = "4B056265-F7A9-4FE5-8F86-068480F74FC7";
shapes = (
{
closed = 1;
nodes = (
(50,1250,l),
(275,1250,l),
(275,-190,l),
(50,-190,l)
);
}
);
width = 325;
}
);
unicode = 124;
},
{
glyphname = braceright;
layers = (
{
layerId = "4B056265-F7A9-4FE5-8F86-068480F74FC7";
shapes = (
{
closed = 1;
nodes = (
(430,200,ls),
(430,165,o),
(423,102,o),
(409,46,o),
(388,-3,o),
(360,-45,o),
(325,-80,o),
(283,-108,o),
(234,-129,o),
(178,-143,o),
(115,-150,o),
(80,-150,qs),
(50,-150,l),
(50,60,l),
(105,60,ls),
(205,60,o),
(205,160,qs),
(205,375,ls),
(205,384,o),
(207,401,o),
(210,419,o),
(214,436,o),
(221,454,o),
(229,470,o),
(238,486,o),
(250,500,o),
(262,514,o),
(277,525,o),
(285,530,q),
(277,535,o),
(262,546,o),
(250,559,o),
(238,573,o),
(229,589,o),
(221,606,o),
(214,623,o),
(210,641,o),
(207,659,o),
(205,676,o),
(205,685,qs),
(205,900,ls),
(205,1000,o),
(105,1000,qs),
(50,1000,l),
(50,1210,l),
(80,1210,ls),
(115,1210,o),
(178,1203,o),
(234,1189,o),
(283,1168,o),
(325,1140,o),
(360,1105,o),
(388,1063,o),
(409,1014,o),
(423,958,o),
(430,895,o),
(430,860,qs),
(430,735,ls),
(430,635,o),
(530,635,qs),
(561,635,l),
(561,425,l),
(530,425,ls),
(430,425,o),
(430,325,qs)
);
}
);
width = 571;
}
);
unicode = 125;
},
{
glyphname = asciitilde;
layers = (
{
layerId = "4B056265-F7A9-4FE5-8F86-068480F74FC7";
shapes = (
{
closed = 1;
nodes = (
(25,1060,l),
(30,1063,o),
(40,1069,o),
(51,1075,o),
(61,1081,o),
(73,1087,o),
(85,1093,o),
(98,1097,o),
(112,1101,o),
(127,1104,o),
(143,1106,o),
(152,1106,qs),
(164,1106,o),
(188,1103,o),
(213,1098,o),
(239,1091,o),
(264,1084,o),
(290,1076,o),
(315,1069,o),
(341,1062,o),
(366,1057,o),
(390,1054,o),
(402,1054,qs),
(411,1054,o),
(427,1056,o),
(442,1059,o),
(456,1063,o),
(469,1067,o),
(481,1073,o),
(493,1079,o),
(503,1085,o),
(514,1091,o),
(524,1097,o),
(529,1100,q),
(529,890,l),
(524,887,o),
(514,881,o),
(503,875,o),
(493,869,o),
(481,863,o),
(469,857,o),
(456,853,o),
(442,849,o),
(427,846,o),
(411,844,o),
(402,844,qs),
(390,844,o),
(366,847,o),
(341,852,o),
(315,859,o),
(290,866,o),
(264,874,o),
(239,881,o),
(213,888,o),
(188,893,o),
(164,896,o),
(152,896,qs),
(143,896,o),
(127,894,o),
(112,891,o),
(98,887,o),
(85,883,o),
(73,877,o),
(61,871,o),
(51,865,o),
(40,859,o),
(30,853,o),
(25,850,q)
);
}
);
width = 572;
}
);
unicode = 126;
},
{
glyphname = exclamdown;
layers = (
{
layerId = "4B056265-F7A9-4FE5-8F86-068480F74FC7";
shapes = (
{
closed = 1;
nodes = (
(50,-300,l),
(70,480,l),
(255,480,l),
(275,-300,l)
);
},
{
closed = 1;
nodes = (
(151,612,o),
(130,615,o),
(110,622,o),
(91,632,o),
(75,644,o),
(60,658,o),
(48,675,o),
(38,693,o),
(32,713,o),
(28,735,o),
(28,746,qs),
(28,757,o),
(32,779,o),
(38,799,o),
(48,817,o),
(60,834,o),
(75,848,o),
(91,860,o),
(110,870,o),
(130,877,o),
(151,880,o),
(162,880,qs),
(173,880,o),
(194,877,o),
(214,870,o),
(233,860,o),
(250,848,o),
(265,834,o),
(277,817,o),
(287,799,o),
(293,779,o),
(297,757,o),
(297,746,qs),
(297,735,o),
(293,713,o),
(287,693,o),
(277,675,o),
(265,658,o),
(250,644,o),
(233,632,o),
(214,622,o),
(194,615,o),
(173,612,o),
(162,612,qs)
);
}
);
width = 325;
}
);
unicode = 161;
},
{
glyphname = cent;
layers = (
{
layerId = "4B056265-F7A9-4FE5-8F86-068480F74FC7";
shapes = (
{
closed = 1;
nodes = (
(876,543,l),
(875,514,o),
(866,458,o),
(850,406,o),
(828,357,o),
(800,312,o),
(767,271,o),
(729,235,o),
(687,204,o),
(640,179,o),
(590,159,o),
(563,153,q),
(563,-20,l),
(343,-20,l),
(343,156,l),
(316,164,o),
(264,187,o),
(216,216,o),
(173,252,o),
(135,293,o),
(101,339,o),
(74,391,o),
(53,446,o),
(38,505,o),
(31,567,o),
(31,600,qs),
(31,632,o),
(39,694,o),
(53,753,o),
(75,807,o),
(102,857,o),
(135,902,o),
(173,943,o),
(216,977,o),
(264,1006,o),
(315,1027,o),
(343,1035,q),
(343,1210,l),
(563,1210,l),
(563,1038,l),
(590,1032,o),
(640,1012,o),
(687,987,o),
(729,956,o),
(767,921,o),
(800,880,o),
(827,835,o),
(849,786,o),
(865,733,o),
(874,677,o),
(875,648,q),
(639,648,l),
(638,664,o),
(633,693,o),
(624,720,o),
(612,745,o),
(596,767,o),
(577,785,o),
(555,801,o),
(530,813,o),
(503,821,o),
(474,825,o),
(459,825,qs),
(442,825,o),
(410,820,o),
(380,809,o),
(353,793,o),
(330,774,o),
(309,749,o),
(292,721,o),
(279,689,o),
(271,654,o),
(266,616,o),
(266,595,qs),
(266,574,o),
(271,536,o),
(279,501,o),
(292,469,o),
(309,441,o),
(330,416,o),
(353,397,o),
(380,381,o),
(410,370,o),
(442,365,o),
(459,365,qs),
(475,365,o),
(504,369,o),
(531,377,o),
(555,389,o),
(577,405,o),
(596,424,o),
(612,445,o),
(624,470,o),
(633,497,o),
(638,527,o),
(639,543,q)
);
}
);
width = 906;
}
);
unicode = 162;
},
{
glyphname = sterling;
layers = (
{
layerId = "4B056265-F7A9-4FE5-8F86-068480F74FC7";
shapes = (
{
closed = 1;
nodes = (
(10,170,l),
(16,182,o),
(28,209,o),
(40,239,o),
(51,270,o),
(60,303,o),
(69,337,o),
(76,372,o),
(82,407,o),
(87,443,o),
(90,479,o),
(90,497,q),
(11,497,l),
(11,707,l),
(90,707,l),
(90,880,ls),
(90,913,o),
(95,972,o),
(107,1023,o),
(123,1068,o),
(146,1106,o),
(174,1138,o),
(208,1163,o),
(249,1182,o),
(295,1194,o),
(348,1200,o),
(377,1200,qs),
(406,1200,o),
(457,1194,o),
(503,1183,o),
(544,1166,o),
(578,1144,o),
(607,1115,o),
(630,1082,o),
(648,1043,o),
(659,998,o),
(665,949,o),
(665,921,qs),
(665,833,l),
(445,833,l),
(445,880,ls),
(445,990,o),
(384,990,qs),
(369,990,o),
(346,976,o),
(332,948,o),
(325,907,o),
(325,879,qs),
(325,707,l),
(503,707,l),
(503,497,l),
(325,497,l),
(325,484,o),
(323,457,o),
(321,429,o),
(318,402,o),
(313,374,o),
(308,346,o),
(302,317,o),
(294,289,o),
(285,261,o),
(276,234,o),
(270,220,q),
(675,220,l),
(675,0,l),
(10,0,l)
);
}
);
width = 715;
}
);
unicode = 163;
},
{
glyphname = currency;
layers = (
{
layerId = "4B056265-F7A9-4FE5-8F86-068480F74FC7";
shapes = (
{
closed = 1;
nodes = (
(70,489,o),
(97,580,o),
(121,621,q),
(0,743,l),
(127,870,l),
(248,749,l),
(256,754,o),
(273,763,o),
(290,771,o),
(308,778,o),
(326,784,o),
(345,789,o),
(364,794,o),
(383,797,o),
(403,799,o),
(423,800,o),
(433,800,qs),
(443,800,o),
(463,799,o),
(483,797,o),
(502,793,o),
(521,789,o),
(540,784,o),
(558,777,o),
(576,770,o),
(593,762,o),
(610,753,o),
(618,748,q),
(739,870,l),
(866,743,l),
(745,621,l),
(769,580,o),
(796,489,o),
(796,439,qs),
(796,387,o),
(769,291,o),
(744,249,q),
(866,127,l),
(739,0,l),
(617,122,l),
(597,110,o),
(553,90,o),
(507,77,o),
(458,70,o),
(433,70,qs),
(423,70,o),
(403,71,o),
(383,73,o),
(364,77,o),
(345,81,o),
(326,86,o),
(308,93,o),
(290,100,o),
(273,108,o),
(256,117,o),
(248,122,q),
(127,0,l),
(0,127,l),
(122,249,l),
(97,291,o),
(70,387,o),
(70,439,qs)
);
},
{
closed = 1;
nodes = (
(255,422,o),
(260,392,o),
(269,364,o),
(281,338,o),
(298,315,o),
(317,295,o),
(339,278,o),
(364,264,o),
(391,255,o),
(419,250,o),
(434,250,qs),
(449,250,o),
(477,255,o),
(503,264,o),
(527,278,o),
(549,295,o),
(569,315,o),
(585,338,o),
(597,364,o),
(606,392,o),
(611,422,o),
(611,437,qs),
(611,452,o),
(606,481,o),
(597,508,o),
(585,533,o),
(569,556,o),
(549,576,o),
(527,593,o),
(503,606,o),
(477,615,o),
(449,620,o),
(434,620,qs),
(419,620,o),
(391,615,o),
(365,606,o),
(340,593,o),
(318,576,o),
(298,556,o),
(282,534,o),
(269,508,o),
(260,481,o),
(255,452,o),
(255,437,qs)
);
}
);
width = 866;
}
);
unicode = 164;
},
{
glyphname = yen;
layers = (
{
layerId = "4B056265-F7A9-4FE5-8F86-068480F74FC7";
shapes = (
{
closed = 1;
nodes = (
(322,855,ls),
(325,843,o),
(330,816,o),
(335,789,o),
(340,761,o),
(343,733,o),
(347,704,o),
(350,676,o),
(352,649,o),
(353,622,o),
(354,597,o),
(354,585,q),
(374,585,l),
(374,597,o),
(375,622,o),
(376,649,o),
(378,676,o),
(381,704,o),
(385,733,o),
(388,761,o),
(393,789,o),
(398,816,o),
(403,843,o),
(406,855,qs),
(483,1190,l),
(718,1190,l),
(524,564,l),
(661,564,l),
(661,384,l),
(482,384,l),
(482,323,l),
(661,323,l),
(661,143,l),
(482,143,l),
(482,0,l),
(247,0,l),
(247,143,l),
(68,143,l),
(68,323,l),
(247,323,l),
(247,384,l),
(68,384,l),
(68,564,l),
(205,564,l),
(10,1190,l),
(245,1190,l)
);
}
);
width = 728;
}
);
unicode = 165;
},
{
glyphname = brokenbar;
layers = (
{
layerId = "4B056265-F7A9-4FE5-8F86-068480F74FC7";
shapes = (
{
closed = 1;
nodes = (
(275,430,l),
(275,-190,l),
(50,-190,l),
(50,430,l)
);
},
{
closed = 1;
nodes = (
(50,630,l),
(50,1250,l),
(275,1250,l),
(275,630,l)
);
}
);
width = 325;
}
);
unicode = 166;
},
{
glyphname = section;
layers = (
{
layerId = "4B056265-F7A9-4FE5-8F86-068480F74FC7";
shapes = (
{
closed = 1;
nodes = (
(25,305,l),
(220,305,l),
(220,247,ls),
(220,240,o),
(222,228,o),
(225,217,o),
(230,207,o),
(237,198,o),
(244,190,o),
(254,184,o),
(265,180,o),
(277,177,o),
(290,175,o),
(297,175,qs),
(314,175,o),
(341,183,o),
(360,198,o),
(370,219,o),
(370,232,qs),
(370,237,o),
(369,247,o),
(365,256,o),
(360,266,o),
(352,277,o),
(340,288,o),
(326,301,o),
(308,316,o),
(286,334,o),
(260,353,o),
(244,365,qs),
(219,383,o),
(177,416,o),
(141,447,o),
(111,475,o),
(87,502,o),
(68,528,o),
(54,553,o),
(44,579,o),
(38,605,o),
(35,632,o),
(35,647,qs),
(35,760,o),
(113,814,q),
(104,823,o),
(88,840,o),
(75,857,o),
(64,874,o),
(55,890,o),
(48,907,o),
(42,923,o),
(39,940,o),
(36,957,o),
(35,976,o),
(35,985,qs),
(35,1092,o),
(170,1200,o),
(302,1200,qs),
(328,1200,o),
(375,1196,o),
(417,1187,o),
(453,1175,o),
(485,1158,o),
(512,1137,o),
(533,1113,o),
(549,1084,o),
(560,1052,o),
(565,1015,o),
(565,995,qs),
(565,930,l),
(370,930,l),
(370,968,ls),
(370,1015,o),
(311,1015,qs),
(287,1015,o),
(260,992,o),
(260,968,qs),
(260,966,o),
(260,961,o),
(262,956,o),
(265,949,o),
(271,940,o),
(280,929,o),
(292,916,o),
(309,901,o),
(330,883,o),
(357,862,o),
(374,850,qs),
(400,831,o),
(446,796,o),
(484,765,o),
(515,736,o),
(541,709,o),
(560,683,o),
(575,657,o),
(586,632,o),
(592,605,o),
(595,577,o),
(595,562,qs),
(595,505,o),
(558,418,o),
(521,389,q),
(529,380,o),
(544,364,o),
(556,348,o),
(567,332,o),
(576,316,o),
(582,300,o),
(588,283,o),
(591,267,o),
(594,249,o),
(595,231,o),
(595,222,qs),
(595,200,o),
(589,159,o),
(577,122,o),
(560,90,o),
(536,62,o),
(507,38,o),
(473,19,o),
(433,5,o),
(388,-5,o),
(337,-10,o),
(309,-10,qs),
(281,-10,o),
(230,-5,o),
(185,5,o),
(145,19,o),
(111,38,o),
(83,62,o),
(60,91,o),
(42,124,o),
(31,162,o),
(25,204,o),
(25,227,qs)
);
},
{
closed = 1;
nodes = (
(260,626,o),
(260,622,o),
(262,617,o),
(264,610,o),
(269,603,o),
(275,594,o),
(285,583,o),
(298,570,o),
(315,556,o),
(335,539,o),
(348,529,q),
(350,531,o),
(354,534,o),
(357,537,o),
(360,541,o),
(363,545,o),
(365,550,o),
(367,554,o),
(369,559,o),
(370,564,o),
(370,569,o),
(370,572,qs),
(370,576,o),
(369,584,o),
(367,592,o),
(363,600,o),
(358,609,o),
(351,618,o),
(341,628,o),
(330,639,o),
(316,651,o),
(299,664,o),
(289,672,q),
(286,671,o),
(281,669,o),
(276,666,o),
(272,663,o),
(269,659,o),
(266,655,o),
(264,650,o),
(262,644,o),
(261,638,o),
(260,632,o),
(260,628,qs)
);
}
);
width = 620;
}
);
unicode = 167;
},
{
glyphname = dieresis;
layers = (
{
layerId = "4B056265-F7A9-4FE5-8F86-068480F74FC7";
shapes = (
{
closed = 1;
nodes = (
(25,1061,o),
(28,1080,o),
(34,1098,o),
(42,1115,o),
(52,1129,o),
(64,1142,o),
(79,1152,o),
(94,1160,o),
(112,1166,o),
(130,1169,o),
(140,1169,qs),
(150,1169,o),
(168,1166,o),
(185,1160,o),
(201,1152,o),
(215,1142,o),
(228,1129,o),
(238,1115,o),
(246,1098,o),
(252,1080,o),
(255,1061,o),
(255,1051,qs),
(255,1041,o),
(252,1022,o),
(247,1004,o),
(239,987,o),
(229,972,o),
(216,959,o),
(202,948,o),
(186,939,o),
(169,933,o),
(150,930,o),
(140,930,qs),
(130,930,o),
(112,933,o),
(94,939,o),
(79,948,o),
(64,959,o),
(52,972,o),
(42,987,o),
(34,1004,o),
(28,1022,o),
(25,1041,o),
(25,1051,qs)
);
},
{
closed = 1;
nodes = (
(331,1061,o),
(334,1080,o),
(340,1098,o),
(348,1115,o),
(358,1129,o),
(370,1142,o),
(385,1152,o),
(400,1160,o),
(418,1166,o),
(436,1169,o),
(446,1169,qs),
(456,1169,o),
(474,1166,o),
(491,1160,o),
(507,1152,o),
(521,1142,o),
(534,1129,o),
(544,1115,o),
(552,1098,o),
(558,1080,o),
(561,1061,o),
(561,1051,qs),
(561,1041,o),
(558,1022,o),
(553,1004,o),
(545,987,o),
(535,972,o),
(522,959,o),
(508,948,o),
(492,939,o),
(475,933,o),
(456,930,o),
(446,930,qs),
(436,930,o),
(418,933,o),
(400,939,o),
(385,948,o),
(370,959,o),
(358,972,o),
(348,987,o),
(340,1004,o),
(334,1022,o),
(331,1041,o),
(331,1051,qs)
);
}
);
width = 586;
}
);
unicode = 168;
},
{
glyphname = copyright;
layers = (
{
layerId = "4B056265-F7A9-4FE5-8F86-068480F74FC7";
shapes = (
{
closed = 1;
nodes = (
(913,558,l),
(912,535,o),
(904,492,o),
(889,451,o),
(870,414,o),
(845,381,o),
(815,352,o),
(782,328,o),
(745,309,o),
(704,296,o),
(661,289,o),
(639,289,qs),
(615,289,o),
(570,297,o),
(527,312,o),
(489,333,o),
(454,361,o),
(423,393,o),
(398,431,o),
(378,473,o),
(365,519,o),
(358,568,o),
(358,594,qs),
(358,620,o),
(366,669,o),
(379,715,o),
(399,757,o),
(424,795,o),
(455,827,o),
(489,854,o),
(528,876,o),
(570,890,o),
(615,898,o),
(639,898,qs),
(662,898,o),
(704,891,o),
(744,878,o),
(781,860,o),
(815,836,o),
(844,807,o),
(869,774,o),
(889,737,o),
(903,696,o),
(911,653,o),
(912,630,q),
(758,630,l),
(758,638,o),
(754,652,o),
(748,666,o),
(740,679,o),
(730,691,o),
(718,701,o),
(705,709,o),
(691,716,o),
(675,721,o),
(659,723,o),
(651,723,qs),
(641,723,o),
(622,720,o),
(604,714,o),
(589,705,o),
(575,694,o),
(563,681,o),
(553,665,o),
(546,647,o),
(541,628,o),
(538,606,o),
(538,595,qs),
(538,583,o),
(541,561,o),
(546,541,o),
(553,523,o),
(563,507,o),
(575,493,o),
(589,482,o),
(604,473,o),
(622,467,o),
(641,464,o),
(651,464,qs),
(659,464,o),
(676,466,o),
(691,471,o),
(705,478,o),
(719,486,o),
(730,497,o),
(740,508,o),
(748,521,o),
(754,535,o),
(758,550,o),
(758,558,q)
);
},
{
closed = 1;
nodes = (
(30,651,o),
(46,745,o),
(76,834,o),
(120,916,o),
(175,991,o),
(241,1056,o),
(316,1111,o),
(399,1154,o),
(488,1184,o),
(583,1200,o),
(632,1200,qs),
(681,1200,o),
(776,1184,o),
(865,1154,o),
(947,1111,o),
(1022,1056,o),
(1088,991,o),
(1143,916,o),
(1187,834,o),
(1217,745,o),
(1233,651,o),
(1233,602,qs),
(1233,552,o),
(1217,455,o),
(1187,364,o),
(1144,279,o),
(1089,203,o),
(1023,137,o),
(948,81,o),
(865,37,o),
(776,6,o),
(681,-10,o),
(632,-10,qs),
(583,-10,o),
(487,6,o),
(398,37,o),
(315,81,o),
(240,137,o),
(174,203,o),
(119,279,o),
(76,364,o),
(46,455,o),
(30,552,o),
(30,602,qs)
);
},
{
closed = 1;
nodes = (
(210,564,o),
(221,495,o),
(242,430,o),
(273,370,o),
(311,316,o),
(357,269,o),
(410,229,o),
(468,198,o),
(531,176,o),
(598,165,o),
(633,165,qs),
(668,165,o),
(734,176,o),
(796,198,o),
(854,229,o),
(906,269,o),
(952,316,o),
(991,370,o),
(1021,430,o),
(1042,495,o),
(1053,564,o),
(1053,600,qs),
(1053,635,o),
(1042,701,o),
(1021,764,o),
(990,823,o),
(952,876,o),
(906,922,o),
(854,961,o),
(796,992,o),
(733,1014,o),
(667,1025,o),
(633,1025,qs),
(598,1025,o),
(532,1014,o),
(469,992,o),
(411,962,o),
(358,923,o),
(312,876,o),
(273,823,o),
(242,765,o),
(221,702,o),
(210,635,o),
(210,600,qs)
);
}
);
width = 1263;
}
);
leftKerningGroup = C2;
rightKerningGroup = C;
unicode = 169;
},
{
glyphname = ordfeminine;
layers = (
{
layerId = "4B056265-F7A9-4FE5-8F86-068480F74FC7";
shapes = (
{
closed = 1;
nodes = (
(30,823,o),
(35,847,o),
(44,869,o),
(59,889,o),
(79,906,o),
(104,921,o),
(134,934,o),
(170,945,o),
(211,954,o),
(258,960,o),
(285,963,q),
(285,1030,ls),
(285,1053,o),
(266,1076,o),
(251,1076,qs),
(248,1076,o),
(242,1076,o),
(237,1074,o),
(232,1072,o),
(228,1070,o),
(225,1065,o),
(222,1060,o),
(219,1053,o),
(218,1045,o),
(217,1035,o),
(217,1029,qs),
(217,986,l),
(42,986,l),
(42,1028,ls),
(42,1069,o),
(71,1132,o),
(127,1177,o),
(209,1200,o),
(262,1200,qs),
(281,1200,o),
(316,1197,o),
(347,1191,o),
(376,1182,o),
(400,1170,o),
(421,1156,o),
(438,1139,o),
(452,1119,o),
(460,1097,o),
(465,1072,o),
(465,1059,qs),
(465,694,l),
(285,694,l),
(285,697,o),
(285,702,o),
(286,707,o),
(287,713,o),
(289,719,o),
(291,724,o),
(294,730,o),
(296,735,o),
(300,741,o),
(303,746,o),
(305,748,q),
(299,753,l),
(294,747,o),
(284,736,o),
(273,726,o),
(260,717,o),
(247,709,o),
(233,702,o),
(219,697,o),
(203,693,o),
(187,690,o),
(171,689,o),
(162,689,qs),
(150,689,o),
(127,692,o),
(107,697,o),
(88,705,o),
(72,716,o),
(58,728,o),
(47,743,o),
(39,760,o),
(33,778,o),
(30,798,o),
(30,809,qs)
);
},
{
closed = 1;
nodes = (
(210,814,o),
(228,798,o),
(244,798,qs),
(246,798,o),
(250,798,o),
(254,799,o),
(258,799,o),
(262,800,o),
(266,802,o),
(270,803,o),
(275,805,o),
(279,807,o),
(283,810,o),
(285,811,q),
(285,885,l),
(277,883,o),
(263,878,o),
(250,873,o),
(240,869,o),
(231,863,o),
(224,858,o),
(218,852,o),
(214,846,o),
(211,840,o),
(210,833,o),
(210,829,qs)
);
}
);
width = 515;
}
);
unicode = 170;
},
{
glyphname = guillemotleft;
layers = (
{
layerId = "4B056265-F7A9-4FE5-8F86-068480F74FC7";
shapes = (
{
closed = 1;
nodes = (
(367,833,l),
(515,685,l),
(245,435,l),
(515,185,l),
(367,37,l),
(25,407,l),
(25,463,l)
);
},
{
closed = 1;
nodes = (
(735,833,l),
(883,685,l),
(613,435,l),
(883,185,l),
(735,37,l),
(393,407,l),
(393,463,l)
);
}
);
width = 933;
}
);
unicode = 171;
},
{
glyphname = logicalnot;
layers = (
{
layerId = "4B056265-F7A9-4FE5-8F86-068480F74FC7";
shapes = (
{
closed = 1;
nodes = (
(50,541,l),
(593,541,l),
(593,189,l),
(383,189,l),
(383,331,l),
(50,331,l)
);
}
);
width = 643;
}
);
unicode = 172;
},
{
glyphname = uni00AD;
layers = (
{
layerId = "4B056265-F7A9-4FE5-8F86-068480F74FC7";
shapes = (
{
closed = 1;
nodes = (
(50,700,l),
(593,700,l),
(593,490,l),
(50,490,l)
);
}
);
width = 643;
}
);
unicode = 173;
},
{
glyphname = registered;
layers = (
{
layerId = "4B056265-F7A9-4FE5-8F86-068480F74FC7";
shapes = (
{
closed = 1;
nodes = (
(30,651,o),
(46,745,o),
(76,834,o),
(120,916,o),
(175,991,o),
(241,1056,o),
(316,1111,o),
(399,1154,o),
(488,1184,o),
(583,1200,o),
(632,1200,qs),
(681,1200,o),
(776,1184,o),
(865,1154,o),
(947,1111,o),
(1022,1056,o),
(1088,991,o),
(1143,916,o),
(1187,834,o),
(1217,745,o),
(1233,651,o),
(1233,602,qs),
(1233,552,o),
(1217,455,o),
(1187,364,o),
(1144,279,o),
(1089,203,o),
(1023,137,o),
(948,81,o),
(865,37,o),
(776,6,o),
(681,-10,o),
(632,-10,qs),
(583,-10,o),
(487,6,o),
(398,37,o),
(315,81,o),
(240,137,o),
(174,203,o),
(119,279,o),
(76,364,o),
(46,455,o),
(30,552,o),
(30,602,qs)
);
},
{
closed = 1;
nodes = (
(862,726,o),
(860,705,o),
(855,686,o),
(848,668,o),
(839,652,o),
(828,639,o),
(815,627,o),
(800,618,o),
(784,611,o),
(766,606,o),
(756,605,q),
(756,598,l),
(761,598,o),
(770,596,o),
(779,593,o),
(788,589,o),
(796,583,o),
(804,577,o),
(811,569,o),
(817,560,o),
(822,551,o),
(826,540,o),
(827,535,qs),
(887,296,l),
(707,296,l),
(660,514,l),
(599,514,l),
(599,296,l),
(419,296,l),
(419,891,l),
(717,891,ls),
(730,891,o),
(754,887,o),
(776,880,o),
(796,869,o),
(814,856,o),
(829,840,o),
(842,821,o),
(852,799,o),
(858,776,o),
(862,750,o),
(862,737,qs)
);
},
{
closed = 1;
nodes = (
(210,564,o),
(221,495,o),
(242,430,o),
(273,370,o),
(311,316,o),
(357,269,o),
(410,229,o),
(468,198,o),
(531,176,o),
(598,165,o),
(633,165,qs),
(668,165,o),
(734,176,o),
(796,198,o),
(854,229,o),
(906,269,o),
(952,316,o),
(991,370,o),
(1021,430,o),
(1042,495,o),
(1053,564,o),
(1053,600,qs),
(1053,635,o),
(1042,701,o),
(1021,764,o),
(990,823,o),
(952,876,o),
(906,922,o),
(854,961,o),
(796,992,o),
(733,1014,o),
(667,1025,o),
(633,1025,qs),
(598,1025,o),
(532,1014,o),
(469,992,o),
(411,962,o),
(358,923,o),
(312,876,o),
(273,823,o),
(242,765,o),
(221,702,o),
(210,635,o),
(210,600,qs)
);
},
{
closed = 1;
nodes = (
(626,659,ls),
(631,659,o),
(641,660,o),
(649,662,o),
(657,665,o),
(664,670,o),
(670,675,o),
(674,681,o),
(678,688,o),
(681,696,o),
(682,705,o),
(682,710,qs),
(682,715,o),
(681,723,o),
(678,731,o),
(674,738,o),
(670,744,o),
(664,750,o),
(657,754,o),
(649,758,o),
(641,760,o),
(631,761,o),
(626,761,qs),
(599,761,l),
(599,659,l)
);
}
);
width = 1263;
}
);
leftKerningGroup = C2;
rightKerningGroup = C;
unicode = 174;
},
{
glyphname = macron;
layers = (
{
layerId = "4B056265-F7A9-4FE5-8F86-068480F74FC7";
shapes = (
{
closed = 1;
nodes = (
(50,1110,l),
(473,1110,l),
(473,930,l),
(50,930,l)
);
}
);
width = 523;
}
);
unicode = 175;
},
{
glyphname = degree;
layers = (
{
layerId = "4B056265-F7A9-4FE5-8F86-068480F74FC7";
shapes = (
{
closed = 1;
nodes = (
(30,922,o),
(38,971,o),
(52,1017,o),
(73,1059,o),
(99,1096,o),
(131,1129,o),
(168,1156,o),
(208,1178,o),
(253,1192,o),
(301,1200,o),
(326,1200,qs),
(351,1200,o),
(399,1192,o),
(444,1178,o),
(484,1156,o),
(521,1129,o),
(553,1096,o),
(579,1059,o),
(600,1017,o),
(614,971,o),
(622,922,o),
(622,896,qs),
(622,869,o),
(615,819,o),
(600,772,o),
(580,729,o),
(554,690,o),
(522,657,o),
(485,629,o),
(444,608,o),
(400,593,o),
(351,585,o),
(326,585,qs),
(301,585,o),
(252,593,o),
(208,608,o),
(167,629,o),
(130,657,o),
(98,690,o),
(72,729,o),
(52,772,o),
(37,819,o),
(30,869,o),
(30,896,qs)
);
},
{
closed = 1;
nodes = (
(230,885,o),
(232,867,o),
(237,850,o),
(244,835,o),
(252,822,o),
(263,810,o),
(275,800,o),
(288,793,o),
(303,788,o),
(319,785,o),
(327,785,qs),
(335,785,o),
(350,788,o),
(365,793,o),
(378,800,o),
(390,810,o),
(400,822,o),
(408,835,o),
(415,850,o),
(420,867,o),
(422,885,o),
(422,894,qs),
(422,903,o),
(420,920,o),
(415,936,o),
(408,951,o),
(400,964,o),
(390,975,o),
(378,985,o),
(365,992,o),
(350,997,o),
(335,1000,o),
(327,1000,qs),
(319,1000,o),
(303,997,o),
(288,992,o),
(275,985,o),
(263,975,o),
(252,964,o),
(244,951,o),
(237,936,o),
(232,920,o),
(230,903,o),
(230,894,qs)
);
}
);
width = 652;
}
);
unicode = 176;
},
{
glyphname = plusminus;
layers = (
{
layerId = "4B056265-F7A9-4FE5-8F86-068480F74FC7";
shapes = (
{
closed = 1;
nodes = (
(50,700,l),
(204,700,l),
(204,882,l),
(429,882,l),
(429,700,l),
(583,700,l),
(583,490,l),
(429,490,l),
(429,308,l),
(204,308,l),
(204,490,l),
(50,490,l)
);
}
);
width = 633;
}
);
unicode = 177;
},
{
glyphname = twosuperior;
layers = (
{
layerId = "4B056265-F7A9-4FE5-8F86-068480F74FC7";
shapes = (
{
closed = 1;
nodes = (
(30,678,ls),
(30,686,o),
(33,703,o),
(38,720,o),
(46,738,o),
(57,756,o),
(72,775,o),
(90,795,o),
(112,817,o),
(138,840,o),
(168,865,o),
(185,879,qs),
(195,887,o),
(212,901,o),
(226,914,o),
(238,926,o),
(248,938,o),
(255,949,o),
(261,960,o),
(264,971,o),
(267,983,o),
(268,995,o),
(268,1002,qs),
(268,1007,o),
(267,1016,o),
(266,1024,o),
(265,1031,o),
(262,1037,o),
(259,1042,o),
(256,1046,o),
(252,1050,o),
(247,1052,o),
(241,1053,o),
(238,1053,qs),
(207,1053,o),
(207,997,qs),
(207,973,l),
(37,973,l),
(37,1018,ls),
(37,1032,o),
(40,1060,o),
(46,1086,o),
(57,1111,o),
(71,1134,o),
(90,1154,o),
(114,1172,o),
(143,1185,o),
(178,1195,o),
(218,1200,o),
(242,1200,qs),
(260,1200,o),
(294,1197,o),
(325,1191,o),
(353,1181,o),
(379,1168,o),
(401,1152,o),
(419,1131,o),
(433,1107,o),
(443,1079,o),
(448,1047,o),
(448,1029,qs),
(448,1018,o),
(446,997,o),
(442,976,o),
(435,955,o),
(424,933,o),
(411,910,o),
(394,886,o),
(372,861,o),
(346,833,o),
(316,802,o),
(298,786,qs),
(275,765,l),
(453,765,l),
(453,595,l),
(30,595,l)
);
}
);
width = 483;
}
);
unicode = 178;
},
{
glyphname = threesuperior;
layers = (
{
layerId = "4B056265-F7A9-4FE5-8F86-068480F74FC7";
shapes = (
{
closed = 1;
nodes = (
(245,733,o),
(253,734,o),
(261,737,o),
(268,740,o),
(274,745,o),
(279,751,o),
(283,758,o),
(286,766,o),
(288,775,o),
(289,785,o),
(289,790,qs),
(289,795,o),
(288,805,o),
(286,814,o),
(283,822,o),
(279,829,o),
(274,835,o),
(268,839,o),
(261,843,o),
(254,846,o),
(245,847,o),
(241,847,qs),
(188,847,l),
(188,963,l),
(233,963,ls),
(243,963,o),
(259,970,o),
(270,983,o),
(276,1002,o),
(276,1014,qs),
(276,1019,o),
(275,1027,o),
(273,1035,o),
(271,1041,o),
(267,1048,o),
(263,1053,o),
(258,1057,o),
(253,1061,o),
(247,1063,o),
(240,1064,o),
(236,1064,qs),
(221,1064,o),
(205,1043,o),
(205,1022,qs),
(205,1004,l),
(35,1004,l),
(35,1051,ls),
(35,1065,o),
(40,1091,o),
(49,1114,o),
(63,1135,o),
(81,1153,o),
(104,1168,o),
(130,1181,o),
(160,1190,o),
(193,1197,o),
(230,1200,o),
(250,1200,qs),
(268,1200,o),
(302,1196,o),
(334,1190,o),
(362,1180,o),
(387,1167,o),
(409,1152,o),
(427,1134,o),
(441,1115,o),
(451,1093,o),
(456,1069,o),
(456,1057,qs),
(456,1046,o),
(453,1025,o),
(449,1007,o),
(441,990,o),
(432,975,o),
(421,961,o),
(408,950,o),
(394,940,o),
(378,933,o),
(360,927,o),
(351,925,q),
(351,917,l),
(362,916,o),
(381,910,o),
(399,901,o),
(416,890,o),
(430,876,o),
(442,860,o),
(453,841,o),
(461,819,o),
(466,795,o),
(469,769,o),
(469,755,qs),
(469,740,o),
(463,712,o),
(453,686,o),
(438,663,o),
(418,642,o),
(394,624,o),
(367,609,o),
(336,597,o),
(302,589,o),
(266,585,o),
(247,585,qs),
(227,585,o),
(190,588,o),
(156,595,o),
(126,605,o),
(100,617,o),
(77,633,o),
(59,651,o),
(44,672,o),
(35,696,o),
(30,722,o),
(30,736,qs),
(30,782,l),
(200,782,l),
(200,767,ls),
(200,764,o),
(201,758,o),
(203,753,o),
(205,748,o),
(209,744,o),
(213,740,o),
(218,737,o),
(224,735,o),
(230,734,o),
(236,733,o),
(240,733,qs)
);
}
);
width = 499;
}
);
unicode = 179;
},
{
glyphname = acute;
layers = (
{
layerId = "4B056265-F7A9-4FE5-8F86-068480F74FC7";
shapes = (
{
closed = 1;
nodes = (
(25,930,l),
(154,1220,l),
(356,1220,l),
(185,930,l)
);
}
);
width = 381;
}
);
unicode = 180;
},
{
glyphname = paragraph;
layers = (
{
layerId = "4B056265-F7A9-4FE5-8F86-068480F74FC7";
shapes = (
{
closed = 1;
nodes = (
(339,515,l),
(321,515,ls),
(291,515,o),
(237,522,o),
(190,535,o),
(148,555,o),
(113,582,o),
(83,616,o),
(60,657,o),
(42,704,o),
(31,759,o),
(25,821,o),
(25,856,qs),
(25,890,o),
(31,950,o),
(43,1004,o),
(60,1051,o),
(84,1091,o),
(113,1124,o),
(149,1150,o),
(190,1170,o),
(238,1183,o),
(291,1190,o),
(321,1190,qs),
(564,1190,l),
(564,-100,l),
(339,-100,l)
);
},
{
closed = 1;
nodes = (
(653,1190,l),
(878,1190,l),
(878,-100,l),
(653,-100,l)
);
}
);
width = 928;
}
);
unicode = 182;
},
{
glyphname = periodcentered;
layers = (
{
layerId = "4B056265-F7A9-4FE5-8F86-068480F74FC7";
shapes = (
{
closed = 1;
nodes = (
(154,295,o),
(132,299,o),
(111,305,o),
(91,315,o),
(74,328,o),
(59,343,o),
(46,360,o),
(36,380,o),
(29,401,o),
(25,423,o),
(25,435,qs),
(25,447,o),
(29,469,o),
(36,490,o),
(46,509,o),
(59,527,o),
(74,542,o),
(91,555,o),
(111,564,o),
(132,571,o),
(154,575,o),
(166,575,qs),
(178,575,o),
(200,571,o),
(220,564,o),
(240,555,o),
(257,542,o),
(272,527,o),
(285,509,o),
(294,490,o),
(301,469,o),
(305,447,o),
(305,435,qs),
(305,423,o),
(301,401,o),
(294,380,o),
(285,360,o),
(272,343,o),
(257,328,o),
(240,315,o),
(220,305,o),
(200,299,o),
(178,295,o),
(166,295,qs)
);
}
);
width = 405;
}
);
unicode = 183;
},
{
glyphname = cedilla;
layers = (
{
layerId = "4B056265-F7A9-4FE5-8F86-068480F74FC7";
shapes = (
{
closed = 1;
nodes = (
(61,-63,l),
(119,68,l),
(220,68,l),
(166,-56,l),
(179,-60,o),
(202,-71,o),
(224,-83,o),
(243,-97,o),
(261,-112,o),
(275,-129,o),
(287,-147,o),
(296,-167,o),
(303,-187,o),
(306,-209,o),
(306,-220,qs),
(306,-238,o),
(299,-271,o),
(287,-301,o),
(268,-329,o),
(244,-353,o),
(214,-374,o),
(180,-391,o),
(141,-404,o),
(98,-413,o),
(50,-418,o),
(25,-418,q),
(25,-268,l),
(55,-268,o),
(104,-260,o),
(139,-245,o),
(158,-224,o),
(158,-211,qs),
(158,-207,o),
(156,-198,o),
(151,-190,o),
(145,-183,o),
(136,-177,o),
(126,-171,o),
(114,-166,o),
(101,-163,o),
(86,-160,o),
(70,-159,o),
(62,-159,q)
);
}
);
width = 306;
}
);
unicode = 184;
},
{
glyphname = onesuperior;
layers = (
{
layerId = "4B056265-F7A9-4FE5-8F86-068480F74FC7";
shapes = (
{
closed = 1;
nodes = (
(291,1190,l),
(291,595,l),
(111,595,l),
(111,1020,l),
(15,1020,l),
(15,1190,l)
);
}
);
width = 351;
}
);
unicode = 185;
},
{
glyphname = ordmasculine;
layers = (
{
layerId = "4B056265-F7A9-4FE5-8F86-068480F74FC7";
shapes = (
{
closed = 1;
nodes = (
(257,685,o),
(217,692,o),
(179,704,o),
(144,723,o),
(113,746,o),
(85,774,o),
(62,806,o),
(44,842,o),
(32,881,o),
(25,922,o),
(25,943,qs),
(25,964,o),
(32,1005,o),
(44,1043,o),
(62,1078,o),
(85,1110,o),
(113,1138,o),
(144,1162,o),
(179,1180,o),
(217,1193,o),
(257,1200,o),
(278,1200,qs),
(299,1200,o),
(339,1193,o),
(377,1180,o),
(412,1162,o),
(444,1138,o),
(471,1110,o),
(494,1078,o),
(513,1043,o),
(525,1005,o),
(532,964,o),
(532,943,qs),
(532,922,o),
(525,881,o),
(513,842,o),
(494,806,o),
(471,774,o),
(444,746,o),
(412,723,o),
(377,704,o),
(339,692,o),
(299,685,o),
(278,685,qs)
);
},
{
closed = 1;
nodes = (
(286,852,o),
(299,854,o),
(311,859,o),
(323,865,o),
(333,873,o),
(342,883,o),
(350,894,o),
(356,907,o),
(360,920,o),
(362,934,o),
(362,942,qs),
(362,950,o),
(360,964,o),
(356,978,o),
(350,990,o),
(342,1001,o),
(333,1011,o),
(323,1019,o),
(311,1025,o),
(299,1030,o),
(286,1032,o),
(279,1032,qs),
(261,1032,o),
(231,1018,o),
(208,994,o),
(195,961,o),
(195,942,qs),
(195,935,o),
(197,920,o),
(201,907,o),
(207,894,o),
(215,883,o),
(224,873,o),
(234,865,o),
(246,859,o),
(259,854,o),
(272,852,o),
(279,852,qs)
);
}
);
width = 557;
}
);
unicode = 186;
},
{
glyphname = guillemotright;
layers = (
{
layerId = "4B056265-F7A9-4FE5-8F86-068480F74FC7";
shapes = (
{
closed = 1;
nodes = (
(540,407,l),
(198,37,l),
(50,185,l),
(320,435,l),
(50,685,l),
(198,833,l),
(540,463,l)
);
},
{
closed = 1;
nodes = (
(908,407,l),
(566,37,l),
(418,185,l),
(688,435,l),
(418,685,l),
(566,833,l),
(908,463,l)
);
}
);
width = 933;
}
);
unicode = 187;
},
{
glyphname = onequarter;
layers = (
{
layerId = "4B056265-F7A9-4FE5-8F86-068480F74FC7";
shapes = (
{
closed = 1;
nodes = (
(614,234,l),
(714,595,l),
(1022,595,l),
(1022,258,l),
(1062,258,l),
(1062,118,l),
(1022,118,l),
(1022,0,l),
(852,0,l),
(852,118,l),
(614,118,l)
);
},
{
closed = 1;
nodes = (
(-5,0,l),
(765,1200,l),
(990,1200,l),
(220,0,l)
);
},
{
closed = 1;
nodes = (
(291,1190,l),
(291,595,l),
(111,595,l),
(111,1020,l),
(15,1020,l),
(15,1190,l)
);
},
{
closed = 1;
nodes = (
(852,258,l),
(852,514,l),
(780,258,l)
);
}
);
width = 1092;
}
);
unicode = 188;
},
{
glyphname = onehalf;
layers = (
{
layerId = "4B056265-F7A9-4FE5-8F86-068480F74FC7";
shapes = (
{
closed = 1;
nodes = (
(618,88,ls),
(618,96,o),
(621,112,o),
(626,128,o),
(634,145,o),
(645,162,o),
(660,180,o),
(678,199,o),
(700,219,o),
(726,242,o),
(756,266,o),
(773,279,qs),
(783,287,o),
(800,301,o),
(814,314,o),
(826,326,o),
(836,337,o),
(843,349,o),
(849,360,o),
(852,372,o),
(855,384,o),
(856,397,o),
(856,404,qs),
(856,409,o),
(855,418,o),
(854,427,o),
(853,434,o),
(850,441,o),
(847,447,o),
(844,451,o),
(840,454,o),
(835,457,o),
(829,458,o),
(826,458,qs),
(795,458,o),
(795,402,qs),
(795,378,l),
(625,378,l),
(625,423,ls),
(625,437,o),
(628,465,o),
(634,491,o),
(645,516,o),
(659,539,o),
(678,559,o),
(702,577,o),
(731,590,o),
(766,600,o),
(806,605,o),
(830,605,qs),
(848,605,o),
(882,602,o),
(913,596,o),
(941,586,o),
(967,573,o),
(989,557,o),
(1007,536,o),
(1021,512,o),
(1031,484,o),
(1036,452,o),
(1036,434,qs),
(1036,423,o),
(1034,402,o),
(1030,381,o),
(1023,360,o),
(1012,338,o),
(999,315,o),
(982,291,o),
(960,266,o),
(934,238,o),
(904,207,o),
(886,191,qs),
(863,170,l),
(1041,170,l),
(1041,0,l),
(618,0,l)
);
},
{
closed = 1;
nodes = (
(-5,0,l),
(765,1200,l),
(990,1200,l),
(220,0,l)
);
},
{
closed = 1;
nodes = (
(291,1190,l),
(291,595,l),
(111,595,l),
(111,1020,l),
(15,1020,l),
(15,1190,l)
);
}
);
width = 1071;
}
);
unicode = 189;
},
{
glyphname = threequarters;
layers = (
{
layerId = "4B056265-F7A9-4FE5-8F86-068480F74FC7";
shapes = (
{
closed = 1;
nodes = (
(734,234,l),
(834,595,l),
(1142,595,l),
(1142,258,l),
(1182,258,l),
(1182,118,l),
(1142,118,l),
(1142,0,l),
(972,0,l),
(972,118,l),
(734,118,l)
);
},
{
closed = 1;
nodes = (
(115,0,l),
(885,1200,l),
(1110,1200,l),
(340,0,l)
);
},
{
closed = 1;
nodes = (
(245,733,o),
(253,734,o),
(261,737,o),
(268,740,o),
(274,745,o),
(279,751,o),
(283,758,o),
(286,766,o),
(288,775,o),
(289,785,o),
(289,790,qs),
(289,795,o),
(288,805,o),
(286,814,o),
(283,822,o),
(279,829,o),
(274,835,o),
(268,839,o),
(261,843,o),
(254,846,o),
(245,847,o),
(241,847,qs),
(188,847,l),
(188,963,l),
(233,963,ls),
(243,963,o),
(259,970,o),
(270,983,o),
(276,1002,o),
(276,1014,qs),
(276,1019,o),
(275,1027,o),
(273,1035,o),
(271,1041,o),
(267,1048,o),
(263,1053,o),
(258,1057,o),
(253,1061,o),
(247,1063,o),
(240,1064,o),
(236,1064,qs),
(221,1064,o),
(205,1043,o),
(205,1022,qs),
(205,1004,l),
(35,1004,l),
(35,1051,ls),
(35,1065,o),
(40,1091,o),
(49,1114,o),
(63,1135,o),
(81,1153,o),
(104,1168,o),
(130,1181,o),
(160,1190,o),
(193,1197,o),
(230,1200,o),
(250,1200,qs),
(268,1200,o),
(302,1196,o),
(334,1190,o),
(362,1180,o),
(387,1167,o),
(409,1152,o),
(427,1134,o),
(441,1115,o),
(451,1093,o),
(456,1069,o),
(456,1057,qs),
(456,1046,o),
(453,1025,o),
(449,1007,o),
(441,990,o),
(432,975,o),
(421,961,o),
(408,950,o),
(394,940,o),
(378,933,o),
(360,927,o),
(351,925,q),
(351,917,l),
(362,916,o),
(381,910,o),
(399,901,o),
(416,890,o),
(430,876,o),
(442,860,o),
(453,841,o),
(461,819,o),
(466,795,o),
(469,769,o),
(469,755,qs),
(469,740,o),
(463,712,o),
(453,686,o),
(438,663,o),
(418,642,o),
(394,624,o),
(367,609,o),
(336,597,o),
(302,589,o),
(266,585,o),
(247,585,qs),
(227,585,o),
(190,588,o),
(156,595,o),
(126,605,o),
(100,617,o),
(77,633,o),
(59,651,o),
(44,672,o),
(35,696,o),
(30,722,o),
(30,736,qs),
(30,782,l),
(200,782,l),
(200,767,ls),
(200,764,o),
(201,758,o),
(203,753,o),
(205,748,o),
(209,744,o),
(213,740,o),
(218,737,o),
(224,735,o),
(230,734,o),
(236,733,o),
(240,733,qs)
);
},
{
closed = 1;
nodes = (
(972,258,l),
(972,514,l),
(900,258,l)
);
}
);
width = 1212;
}
);
unicode = 190;
},
{
glyphname = questiondown;
layers = (
{
layerId = "4B056265-F7A9-4FE5-8F86-068480F74FC7";
shapes = (
{
closed = 1;
nodes = (
(436,480,l),
(436,453,o),
(426,399,o),
(408,347,o),
(384,295,o),
(357,244,o),
(329,194,o),
(302,145,o),
(278,95,o),
(260,47,o),
(250,-1,o),
(250,-25,qs),
(250,-33,o),
(251,-46,o),
(253,-58,o),
(257,-68,o),
(261,-78,o),
(267,-85,o),
(274,-91,o),
(282,-95,o),
(292,-99,o),
(303,-100,o),
(309,-100,qs),
(370,-100,o),
(370,10,qs),
(370,57,l),
(590,57,l),
(590,-31,ls),
(590,-169,o),
(449,-310,o),
(310,-310,qs),
(282,-310,o),
(232,-304,o),
(187,-293,o),
(147,-277,o),
(113,-255,o),
(84,-228,o),
(61,-197,o),
(43,-160,o),
(31,-119,o),
(25,-72,o),
(25,-47,qs),
(25,-11,o),
(37,57,o),
(56,120,o),
(83,178,o),
(112,233,o),
(144,284,o),
(173,332,o),
(200,377,o),
(219,420,o),
(231,460,o),
(231,480,q)
);
},
{
closed = 1;
nodes = (
(320,612,o),
(299,615,o),
(279,622,o),
(260,632,o),
(244,644,o),
(229,658,o),
(217,675,o),
(207,693,o),
(201,713,o),
(197,735,o),
(197,746,qs),
(197,757,o),
(201,779,o),
(207,799,o),
(217,817,o),
(229,834,o),
(244,848,o),
(260,860,o),
(279,870,o),
(299,877,o),
(320,880,o),
(331,880,qs),
(342,880,o),
(363,877,o),
(383,870,o),
(402,860,o),
(419,848,o),
(434,834,o),
(446,817,o),
(456,799,o),
(462,779,o),
(466,757,o),
(466,746,qs),
(466,735,o),
(462,713,o),
(456,693,o),
(446,675,o),
(434,658,o),
(419,644,o),
(402,632,o),
(383,622,o),
(363,615,o),
(342,612,o),
(331,612,qs)
);
}
);
width = 615;
}
);
unicode = 191;
},
{
glyphname = Agrave;
layers = (
{
layerId = "4B056265-F7A9-4FE5-8F86-068480F74FC7";
shapes = (
{
closed = 1;
nodes = (
(196,1190,l),
(532,1190,l),
(718,0,l),
(483,0,l),
(448,273,l),
(280,273,l),
(245,0,l),
(10,0,l)
);
},
{
closed = 1;
nodes = (
(130,1561,l),
(347,1561,l),
(485,1250,l),
(313,1250,l)
);
},
{
closed = 1;
nodes = (
(380,866,ls),
(379,879,o),
(376,910,o),
(375,945,o),
(374,982,o),
(374,1000,q),
(354,1000,l),
(354,993,o),
(354,978,o),
(354,964,o),
(353,949,o),
(353,935,o),
(352,921,o),
(351,907,o),
(351,894,o),
(350,882,o),
(349,871,o),
(348,866,qs),
(308,493,l),
(420,493,l)
);
}
);
width = 728;
}
);
leftKerningGroup = A2;
rightKerningGroup = A;
unicode = 192;
},
{
glyphname = Aacute;
layers = (
{
layerId = "4B056265-F7A9-4FE5-8F86-068480F74FC7";
shapes = (
{
closed = 1;
nodes = (
(196,1190,l),
(532,1190,l),
(718,0,l),
(483,0,l),
(448,273,l),
(280,273,l),
(245,0,l),
(10,0,l)
);
},
{
closed = 1;
nodes = (
(238,1250,l),
(376,1561,l),
(593,1561,l),
(410,1250,l)
);
},
{
closed = 1;
nodes = (
(380,866,ls),
(379,879,o),
(376,910,o),
(375,945,o),
(374,982,o),
(374,1000,q),
(354,1000,l),
(354,993,o),
(354,978,o),
(354,964,o),
(353,949,o),
(353,935,o),
(352,921,o),
(351,907,o),
(351,894,o),
(350,882,o),
(349,871,o),
(348,866,qs),
(308,493,l),
(420,493,l)
);
}
);
width = 728;
}
);
leftKerningGroup = A2;
rightKerningGroup = A;
unicode = 193;
},
{
glyphname = Acircumflex;
layers = (
{
layerId = "4B056265-F7A9-4FE5-8F86-068480F74FC7";
shapes = (
{
closed = 1;
nodes = (
(196,1190,l),
(532,1190,l),
(718,0,l),
(483,0,l),
(448,273,l),
(280,273,l),
(245,0,l),
(10,0,l)
);
},
{
closed = 1;
nodes = (
(243,1555,l),
(487,1555,l),
(617,1250,l),
(454,1250,l),
(366,1405,l),
(277,1250,l),
(113,1250,l)
);
},
{
closed = 1;
nodes = (
(380,866,ls),
(379,879,o),
(376,910,o),
(375,945,o),
(374,982,o),
(374,1000,q),
(354,1000,l),
(354,993,o),
(354,978,o),
(354,964,o),
(353,949,o),
(353,935,o),
(352,921,o),
(351,907,o),
(351,894,o),
(350,882,o),
(349,871,o),
(348,866,qs),
(308,493,l),
(420,493,l)
);
}
);
width = 728;
}
);
leftKerningGroup = A2;
rightKerningGroup = A;
unicode = 194;
},
{
glyphname = Atilde;
layers = (
{
layerId = "4B056265-F7A9-4FE5-8F86-068480F74FC7";
shapes = (
{
closed = 1;
nodes = (
(196,1190,l),
(532,1190,l),
(718,0,l),
(483,0,l),
(448,273,l),
(280,273,l),
(245,0,l),
(10,0,l)
);
},
{
closed = 1;
nodes = (
(124,1250,l),
(124,1272,o),
(127,1313,o),
(132,1349,o),
(140,1381,o),
(150,1408,o),
(164,1432,o),
(179,1450,o),
(197,1465,o),
(218,1474,o),
(240,1479,o),
(253,1479,qs),
(264,1479,o),
(286,1475,o),
(306,1469,o),
(325,1460,o),
(343,1451,o),
(360,1440,o),
(375,1431,o),
(390,1422,o),
(403,1416,o),
(415,1412,o),
(421,1412,qs),
(430,1412,o),
(444,1422,o),
(455,1440,o),
(461,1464,o),
(461,1479,q),
(611,1479,l),
(611,1364,o),
(547,1250,o),
(481,1250,qs),
(469,1250,o),
(447,1254,o),
(426,1260,o),
(408,1269,o),
(392,1279,o),
(376,1289,o),
(362,1299,o),
(348,1308,o),
(335,1314,o),
(322,1318,o),
(316,1318,qs),
(312,1318,o),
(305,1316,o),
(299,1313,o),
(293,1309,o),
(288,1303,o),
(284,1296,o),
(280,1288,o),
(278,1278,o),
(276,1268,o),
(275,1256,o),
(275,1250,q)
);
},
{
closed = 1;
nodes = (
(380,866,ls),
(379,879,o),
(376,910,o),
(375,945,o),
(374,982,o),
(374,1000,q),
(354,1000,l),
(354,993,o),
(354,978,o),
(354,964,o),
(353,949,o),
(353,935,o),
(352,921,o),
(351,907,o),
(351,894,o),
(350,882,o),
(349,871,o),
(348,866,qs),
(308,493,l),
(420,493,l)
);
}
);
width = 728;
}
);
leftKerningGroup = A2;
rightKerningGroup = A;
unicode = 195;
},
{
glyphname = Adieresis;
layers = (
{
layerId = "4B056265-F7A9-4FE5-8F86-068480F74FC7";
shapes = (
{
closed = 1;
nodes = (
(196,1190,l),
(532,1190,l),
(718,0,l),
(483,0,l),
(448,273,l),
(280,273,l),
(245,0,l),
(10,0,l)
);
},
{
closed = 1;
nodes = (
(85,1381,o),
(88,1400,o),
(94,1418,o),
(102,1435,o),
(112,1449,o),
(124,1462,o),
(139,1472,o),
(154,1480,o),
(172,1486,o),
(190,1489,o),
(200,1489,qs),
(210,1489,o),
(228,1486,o),
(245,1480,o),
(261,1472,o),
(275,1462,o),
(288,1449,o),
(298,1435,o),
(306,1418,o),
(312,1400,o),
(315,1381,o),
(315,1371,qs),
(315,1361,o),
(312,1342,o),
(307,1324,o),
(299,1307,o),
(289,1292,o),
(276,1279,o),
(262,1268,o),
(246,1259,o),
(229,1253,o),
(210,1250,o),
(200,1250,qs),
(190,1250,o),
(172,1253,o),
(154,1259,o),
(139,1268,o),
(124,1279,o),
(112,1292,o),
(102,1307,o),
(94,1324,o),
(88,1342,o),
(85,1361,o),
(85,1371,qs)
);
},
{
closed = 1;
nodes = (
(391,1381,o),
(394,1400,o),
(400,1418,o),
(408,1435,o),
(418,1449,o),
(430,1462,o),
(445,1472,o),
(460,1480,o),
(478,1486,o),
(496,1489,o),
(506,1489,qs),
(516,1489,o),
(534,1486,o),
(551,1480,o),
(567,1472,o),
(581,1462,o),
(594,1449,o),
(604,1435,o),
(612,1418,o),
(618,1400,o),
(621,1381,o),
(621,1371,qs),
(621,1361,o),
(618,1342,o),
(613,1324,o),
(605,1307,o),
(595,1292,o),
(582,1279,o),
(568,1268,o),
(552,1259,o),
(535,1253,o),
(516,1250,o),
(506,1250,qs),
(496,1250,o),
(478,1253,o),
(460,1259,o),
(445,1268,o),
(430,1279,o),
(418,1292,o),
(408,1307,o),
(400,1324,o),
(394,1342,o),
(391,1361,o),
(391,1371,qs)
);
},
{
closed = 1;
nodes = (
(380,866,ls),
(379,879,o),
(376,910,o),
(375,945,o),
(374,982,o),
(374,1000,q),
(354,1000,l),
(354,993,o),
(354,978,o),
(354,964,o),
(353,949,o),
(353,935,o),
(352,921,o),
(351,907,o),
(351,894,o),
(350,882,o),
(349,871,o),
(348,866,qs),
(308,493,l),
(420,493,l)
);
}
);
width = 728;
}
);
leftKerningGroup = A2;
rightKerningGroup = A;
unicode = 196;
},
{
glyphname = Aring;
layers = (
{
layerId = "4B056265-F7A9-4FE5-8F86-068480F74FC7";
shapes = (
{
closed = 1;
nodes = (
(196,1190,l),
(532,1190,l),
(718,0,l),
(483,0,l),
(448,273,l),
(280,273,l),
(245,0,l),
(10,0,l)
);
},
{
closed = 1;
nodes = (
(195,1444,o),
(199,1472,o),
(207,1497,o),
(219,1521,o),
(234,1542,o),
(252,1560,o),
(273,1576,o),
(296,1588,o),
(322,1596,o),
(349,1600,o),
(363,1600,qs),
(377,1600,o),
(405,1596,o),
(430,1588,o),
(454,1576,o),
(474,1560,o),
(493,1542,o),
(508,1521,o),
(520,1497,o),
(528,1472,o),
(532,1444,o),
(532,1429,qs),
(532,1414,o),
(528,1385,o),
(520,1358,o),
(508,1333,o),
(493,1311,o),
(475,1292,o),
(454,1276,o),
(431,1263,o),
(405,1255,o),
(378,1250,o),
(363,1250,qs),
(349,1250,o),
(321,1255,o),
(296,1263,o),
(273,1276,o),
(252,1292,o),
(234,1311,o),
(219,1333,o),
(207,1358,o),
(199,1385,o),
(195,1414,o),
(195,1429,qs)
);
},
{
closed = 1;
nodes = (
(380,866,ls),
(379,879,o),
(376,910,o),
(375,945,o),
(374,982,o),
(374,1000,q),
(354,1000,l),
(354,993,o),
(354,978,o),
(354,964,o),
(353,949,o),
(353,935,o),
(352,921,o),
(351,907,o),
(351,894,o),
(350,882,o),
(349,871,o),
(348,866,qs),
(308,493,l),
(420,493,l)
);
},
{
closed = 1;
nodes = (
(322,1421,o),
(323,1413,o),
(325,1406,o),
(328,1399,o),
(332,1393,o),
(336,1388,o),
(341,1384,o),
(347,1380,o),
(354,1378,o),
(360,1377,o),
(364,1377,qs),
(368,1377,o),
(374,1378,o),
(381,1380,o),
(387,1384,o),
(392,1388,o),
(396,1393,o),
(400,1399,o),
(403,1406,o),
(405,1413,o),
(406,1421,o),
(406,1425,qs),
(406,1429,o),
(405,1437,o),
(403,1444,o),
(400,1451,o),
(396,1457,o),
(392,1462,o),
(387,1466,o),
(381,1470,o),
(374,1472,o),
(368,1473,o),
(364,1473,qs),
(360,1473,o),
(354,1472,o),
(347,1470,o),
(341,1466,o),
(336,1462,o),
(332,1457,o),
(328,1451,o),
(325,1444,o),
(323,1437,o),
(322,1429,o),
(322,1425,qs)
);
}
);
width = 728;
}
);
leftKerningGroup = A2;
rightKerningGroup = A;
unicode = 197;
},
{
glyphname = AE;
layers = (
{
layerId = "4B056265-F7A9-4FE5-8F86-068480F74FC7";
shapes = (
{
closed = 1;
nodes = (
(196,1190,l),
(973,1190,l),
(973,970,l),
(713,970,l),
(713,743,l),
(953,743,l),
(953,523,l),
(713,523,l),
(713,220,l),
(978,220,l),
(978,0,l),
(478,0,l),
(478,273,l),
(280,273,l),
(245,0,l),
(10,0,l)
);
},
{
closed = 1;
nodes = (
(478,493,l),
(478,970,l),
(363,970,l),
(308,493,l)
);
}
);
width = 1008;
}
);
leftKerningGroup = A2;
rightKerningGroup = E;
unicode = 198;
},
{
glyphname = Ccedilla;
layers = (
{
layerId = "4B056265-F7A9-4FE5-8F86-068480F74FC7";
shapes = (
{
closed = 1;
nodes = (
(265,560,o),
(274,498,o),
(290,441,o),
(314,390,o),
(344,344,o),
(381,304,o),
(423,272,o),
(471,246,o),
(523,229,o),
(580,220,o),
(610,220,qs),
(634,220,o),
(680,226,o),
(723,237,o),
(763,254,o),
(799,276,o),
(831,303,o),
(859,334,o),
(883,369,o),
(902,408,o),
(916,451,o),
(921,474,q),
(1161,474,l),
(1157,435,o),
(1139,361,o),
(1111,292,o),
(1074,228,o),
(1029,170,o),
(975,118,o),
(915,74,o),
(848,39,o),
(776,12,o),
(699,-5,o),
(659,-8,q),
(634,-66,l),
(648,-71,o),
(673,-82,o),
(696,-95,o),
(717,-110,o),
(736,-127,o),
(752,-145,o),
(765,-165,o),
(775,-186,o),
(781,-208,o),
(785,-232,o),
(785,-244,qs),
(785,-263,o),
(778,-299,o),
(764,-331,o),
(744,-361,o),
(718,-387,o),
(686,-410,o),
(648,-429,o),
(606,-443,o),
(560,-453,o),
(508,-458,o),
(481,-458,q),
(481,-296,l),
(494,-296,o),
(518,-295,o),
(540,-292,o),
(560,-288,o),
(578,-282,o),
(593,-276,o),
(606,-268,o),
(615,-259,o),
(622,-250,o),
(625,-240,o),
(625,-234,qs),
(625,-229,o),
(622,-220,o),
(618,-212,o),
(611,-204,o),
(601,-197,o),
(590,-191,o),
(578,-186,o),
(563,-182,o),
(547,-179,o),
(530,-178,o),
(521,-178,q),
(520,-74,l),
(550,-7,l),
(505,-2,o),
(421,20,o),
(342,54,o),
(270,100,o),
(206,155,o),
(150,219,o),
(104,292,o),
(68,371,o),
(43,457,o),
(30,548,o),
(30,595,qs),
(30,646,o),
(45,742,o),
(73,833,o),
(114,916,o),
(166,991,o),
(229,1057,o),
(301,1111,o),
(381,1155,o),
(469,1184,o),
(563,1200,o),
(612,1200,qs),
(656,1200,o),
(739,1188,o),
(818,1164,o),
(891,1130,o),
(957,1087,o),
(1016,1034,o),
(1066,974,o),
(1107,908,o),
(1138,835,o),
(1157,757,o),
(1161,716,q),
(921,716,l),
(917,739,o),
(902,782,o),
(883,821,o),
(859,856,o),
(831,887,o),
(799,914,o),
(763,936,o),
(723,953,o),
(680,964,o),
(634,970,o),
(610,970,qs),
(580,970,o),
(523,961,o),
(471,943,o),
(423,918,o),
(381,885,o),
(344,845,o),
(313,799,o),
(290,747,o),
(273,689,o),
(265,626,o),
(265,593,qs)
);
}
);
width = 1191;
}
);
leftKerningGroup = C2;
rightKerningGroup = C;
unicode = 199;
},
{
glyphname = Egrave;
layers = (
{
layerId = "4B056265-F7A9-4FE5-8F86-068480F74FC7";
shapes = (
{
closed = 1;
nodes = (
(60,0,l),
(60,1190,l),
(555,1190,l),
(555,970,l),
(295,970,l),
(295,743,l),
(535,743,l),
(535,523,l),
(295,523,l),
(295,220,l),
(560,220,l),
(560,0,l)
);
},
{
closed = 1;
nodes = (
(111,1561,l),
(328,1561,l),
(466,1250,l),
(294,1250,l)
);
}
);
width = 590;
}
);
rightKerningGroup = E;
unicode = 200;
},
{
glyphname = Eacute;
layers = (
{
layerId = "4B056265-F7A9-4FE5-8F86-068480F74FC7";
shapes = (
{
closed = 1;
nodes = (
(60,0,l),
(60,1190,l),
(555,1190,l),
(555,970,l),
(295,970,l),
(295,743,l),
(535,743,l),
(535,523,l),
(295,523,l),
(295,220,l),
(560,220,l),
(560,0,l)
);
},
{
closed = 1;
nodes = (
(139,1250,l),
(277,1561,l),
(494,1561,l),
(311,1250,l)
);
}
);
width = 590;
}
);
rightKerningGroup = E;
unicode = 201;
},
{
glyphname = Ecircumflex;
layers = (
{
layerId = "4B056265-F7A9-4FE5-8F86-068480F74FC7";
shapes = (
{
closed = 1;
nodes = (
(60,0,l),
(60,1190,l),
(555,1190,l),
(555,970,l),
(295,970,l),
(295,743,l),
(535,743,l),
(535,523,l),
(295,523,l),
(295,220,l),
(560,220,l),
(560,0,l)
);
},
{
closed = 1;
nodes = (
(174,1555,l),
(418,1555,l),
(548,1250,l),
(385,1250,l),
(297,1405,l),
(208,1250,l),
(44,1250,l)
);
}
);
width = 590;
}
);
rightKerningGroup = E;
unicode = 202;
},
{
glyphname = Edieresis;
layers = (
{
layerId = "4B056265-F7A9-4FE5-8F86-068480F74FC7";
shapes = (
{
closed = 1;
nodes = (
(60,0,l),
(60,1190,l),
(555,1190,l),
(555,970,l),
(295,970,l),
(295,743,l),
(535,743,l),
(535,523,l),
(295,523,l),
(295,220,l),
(560,220,l),
(560,0,l)
);
},
{
closed = 1;
nodes = (
(42,1381,o),
(45,1400,o),
(51,1418,o),
(59,1435,o),
(69,1449,o),
(81,1462,o),
(96,1472,o),
(111,1480,o),
(129,1486,o),
(147,1489,o),
(157,1489,qs),
(167,1489,o),
(185,1486,o),
(202,1480,o),
(218,1472,o),
(232,1462,o),
(245,1449,o),
(255,1435,o),
(263,1418,o),
(269,1400,o),
(272,1381,o),
(272,1371,qs),
(272,1361,o),
(269,1342,o),
(264,1324,o),
(256,1307,o),
(246,1292,o),
(233,1279,o),
(219,1268,o),
(203,1259,o),
(186,1253,o),
(167,1250,o),
(157,1250,qs),
(147,1250,o),
(129,1253,o),
(111,1259,o),
(96,1268,o),
(81,1279,o),
(69,1292,o),
(59,1307,o),
(51,1324,o),
(45,1342,o),
(42,1361,o),
(42,1371,qs)
);
},
{
closed = 1;
nodes = (
(348,1381,o),
(351,1400,o),
(357,1418,o),
(365,1435,o),
(375,1449,o),
(387,1462,o),
(402,1472,o),
(417,1480,o),
(435,1486,o),
(453,1489,o),
(463,1489,qs),
(473,1489,o),
(491,1486,o),
(508,1480,o),
(524,1472,o),
(538,1462,o),
(551,1449,o),
(561,1435,o),
(569,1418,o),
(575,1400,o),
(578,1381,o),
(578,1371,qs),
(578,1361,o),
(575,1342,o),
(570,1324,o),
(562,1307,o),
(552,1292,o),
(539,1279,o),
(525,1268,o),
(509,1259,o),
(492,1253,o),
(473,1250,o),
(463,1250,qs),
(453,1250,o),
(435,1253,o),
(417,1259,o),
(402,1268,o),
(387,1279,o),
(375,1292,o),
(365,1307,o),
(357,1324,o),
(351,1342,o),
(348,1361,o),
(348,1371,qs)
);
}
);
width = 590;
}
);
rightKerningGroup = E;
unicode = 203;
},
{
glyphname = Igrave;
layers = (
{
layerId = "4B056265-F7A9-4FE5-8F86-068480F74FC7";
shapes = (
{
closed = 1;
nodes = (
(60,1190,l),
(295,1190,l),
(295,0,l),
(60,0,l)
);
},
{
closed = 1;
nodes = (
(-37,1561,l),
(180,1561,l),
(318,1250,l),
(146,1250,l)
);
}
);
width = 355;
}
);
unicode = 204;
},
{
glyphname = Iacute;
layers = (
{
layerId = "4B056265-F7A9-4FE5-8F86-068480F74FC7";
shapes = (
{
closed = 1;
nodes = (
(60,1190,l),
(295,1190,l),
(295,0,l),
(60,0,l)
);
},
{
closed = 1;
nodes = (
(22,1250,l),
(160,1561,l),
(377,1561,l),
(194,1250,l)
);
}
);
width = 355;
}
);
unicode = 205;
},
{
glyphname = Icircumflex;
layers = (
{
layerId = "4B056265-F7A9-4FE5-8F86-068480F74FC7";
shapes = (
{
closed = 1;
nodes = (
(60,1190,l),
(295,1190,l),
(295,0,l),
(60,0,l)
);
},
{
closed = 1;
nodes = (
(56,1555,l),
(300,1555,l),
(430,1250,l),
(267,1250,l),
(179,1405,l),
(90,1250,l),
(-74,1250,l)
);
}
);
width = 355;
}
);
unicode = 206;
},
{
glyphname = Idieresis;
layers = (
{
layerId = "4B056265-F7A9-4FE5-8F86-068480F74FC7";
shapes = (
{
closed = 1;
nodes = (
(60,1190,l),
(295,1190,l),
(295,0,l),
(60,0,l)
);
},
{
closed = 1;
nodes = (
(-102,1381,o),
(-99,1400,o),
(-93,1418,o),
(-85,1435,o),
(-75,1449,o),
(-63,1462,o),
(-48,1472,o),
(-33,1480,o),
(-15,1486,o),
(3,1489,o),
(13,1489,qs),
(23,1489,o),
(41,1486,o),
(58,1480,o),
(74,1472,o),
(88,1462,o),
(101,1449,o),
(111,1435,o),
(119,1418,o),
(125,1400,o),
(128,1381,o),
(128,1371,qs),
(128,1361,o),
(125,1342,o),
(120,1324,o),
(112,1307,o),
(102,1292,o),
(89,1279,o),
(75,1268,o),
(59,1259,o),
(42,1253,o),
(23,1250,o),
(13,1250,qs),
(3,1250,o),
(-15,1253,o),
(-33,1259,o),
(-48,1268,o),
(-63,1279,o),
(-75,1292,o),
(-85,1307,o),
(-93,1324,o),
(-99,1342,o),
(-102,1361,o),
(-102,1371,qs)
);
},
{
closed = 1;
nodes = (
(204,1381,o),
(207,1400,o),
(213,1418,o),
(221,1435,o),
(231,1449,o),
(243,1462,o),
(258,1472,o),
(273,1480,o),
(291,1486,o),
(309,1489,o),
(319,1489,qs),
(329,1489,o),
(347,1486,o),
(364,1480,o),
(380,1472,o),
(394,1462,o),
(407,1449,o),
(417,1435,o),
(425,1418,o),
(431,1400,o),
(434,1381,o),
(434,1371,qs),
(434,1361,o),
(431,1342,o),
(426,1324,o),
(418,1307,o),
(408,1292,o),
(395,1279,o),
(381,1268,o),
(365,1259,o),
(348,1253,o),
(329,1250,o),
(319,1250,qs),
(309,1250,o),
(291,1253,o),
(273,1259,o),
(258,1268,o),
(243,1279,o),
(231,1292,o),
(221,1307,o),
(213,1324,o),
(207,1342,o),
(204,1361,o),
(204,1371,qs)
);
}
);
width = 355;
}
);
unicode = 207;
},
{
glyphname = Eth;
layers = (
{
layerId = "4B056265-F7A9-4FE5-8F86-068480F74FC7";
shapes = (
{
closed = 1;
nodes = (
(381,1190,ls),
(412,1190,o),
(469,1181,o),
(521,1162,o),
(567,1135,o),
(607,1100,o),
(640,1056,o),
(668,1004,o),
(689,945,o),
(703,878,o),
(710,804,o),
(710,764,qs),
(710,426,ls),
(710,386,o),
(703,312,o),
(689,245,o),
(668,186,o),
(640,134,o),
(607,90,o),
(567,55,o),
(521,28,o),
(469,9,o),
(412,0,o),
(381,0,qs),
(60,0,l),
(60,330,l),
(-22,330,l),
(-22,540,l),
(60,540,l),
(60,1190,l)
);
},
{
closed = 1;
nodes = (
(328,220,ls),
(401,220,o),
(475,324,o),
(475,426,qs),
(475,764,ls),
(475,866,o),
(401,970,o),
(328,970,qs),
(295,970,l),
(295,540,l),
(382,540,l),
(382,330,l),
(295,330,l),
(295,220,l)
);
}
);
width = 750;
}
);
unicode = 208;
},
{
glyphname = Ntilde;
layers = (
{
layerId = "4B056265-F7A9-4FE5-8F86-068480F74FC7";
shapes = (
{
closed = 1;
nodes = (
(295,0,l),
(60,0,l),
(60,1190,l),
(335,1190,l),
(424,870,ls),
(433,838,o),
(451,770,o),
(468,699,o),
(486,625,o),
(502,550,o),
(518,474,o),
(533,398,o),
(547,324,o),
(560,252,o),
(570,183,o),
(575,150,q),
(595,150,l),
(590,183,o),
(579,252,o),
(567,325,o),
(556,401,o),
(545,478,o),
(535,556,o),
(526,633,o),
(518,709,o),
(513,783,o),
(510,854,o),
(510,887,qs),
(510,1190,l),
(745,1190,l),
(745,0,l),
(485,0,l),
(393,309,ls),
(383,342,o),
(364,412,o),
(344,484,o),
(325,560,o),
(307,637,o),
(290,714,o),
(273,790,o),
(258,866,o),
(245,938,o),
(233,1008,o),
(228,1040,q),
(208,1040,l),
(213,1008,o),
(225,938,o),
(236,864,o),
(248,788,o),
(259,710,o),
(270,631,o),
(279,552,o),
(287,474,o),
(292,398,o),
(295,325,o),
(295,291,qs)
);
},
{
closed = 1;
nodes = (
(163,1250,l),
(163,1272,o),
(166,1313,o),
(171,1349,o),
(179,1381,o),
(189,1408,o),
(203,1432,o),
(218,1450,o),
(236,1465,o),
(257,1474,o),
(279,1479,o),
(292,1479,qs),
(303,1479,o),
(325,1475,o),
(345,1469,o),
(364,1460,o),
(382,1451,o),
(399,1440,o),
(414,1431,o),
(429,1422,o),
(442,1416,o),
(454,1412,o),
(460,1412,qs),
(469,1412,o),
(483,1422,o),
(494,1440,o),
(500,1464,o),
(500,1479,q),
(650,1479,l),
(650,1364,o),
(586,1250,o),
(520,1250,qs),
(508,1250,o),
(486,1254,o),
(465,1260,o),
(447,1269,o),
(431,1279,o),
(415,1289,o),
(401,1299,o),
(387,1308,o),
(374,1314,o),
(361,1318,o),
(355,1318,qs),
(351,1318,o),
(344,1316,o),
(338,1313,o),
(332,1309,o),
(327,1303,o),
(323,1296,o),
(319,1288,o),
(317,1278,o),
(315,1268,o),
(314,1256,o),
(314,1250,q)
);
}
);
width = 805;
}
);
unicode = 209;
},
{
glyphname = Ograve;
layers = (
{
layerId = "4B056265-F7A9-4FE5-8F86-068480F74FC7";
shapes = (
{
closed = 1;
nodes = (
(30,651,o),
(46,745,o),
(76,834,o),
(120,916,o),
(175,991,o),
(241,1056,o),
(316,1111,o),
(399,1154,o),
(488,1184,o),
(583,1200,o),
(632,1200,qs),
(681,1200,o),
(776,1184,o),
(865,1154,o),
(947,1111,o),
(1022,1056,o),
(1088,991,o),
(1143,916,o),
(1187,834,o),
(1217,745,o),
(1233,651,o),
(1233,602,qs),
(1233,552,o),
(1217,455,o),
(1187,364,o),
(1144,279,o),
(1089,203,o),
(1023,137,o),
(948,81,o),
(865,37,o),
(776,6,o),
(681,-10,o),
(632,-10,qs),
(583,-10,o),
(487,6,o),
(398,37,o),
(315,81,o),
(240,137,o),
(174,203,o),
(119,279,o),
(76,364,o),
(46,455,o),
(30,552,o),
(30,602,qs)
);
},
{
closed = 1;
nodes = (
(447,1561,l),
(664,1561,l),
(802,1250,l),
(630,1250,l)
);
},
{
closed = 1;
nodes = (
(265,569,o),
(275,508,o),
(293,452,o),
(319,399,o),
(353,352,o),
(393,311,o),
(439,276,o),
(489,249,o),
(544,230,o),
(603,220,o),
(633,220,qs),
(663,220,o),
(721,230,o),
(775,249,o),
(825,276,o),
(871,311,o),
(910,352,o),
(944,399,o),
(970,452,o),
(988,508,o),
(998,568,o),
(998,600,qs),
(998,630,o),
(988,688,o),
(970,743,o),
(944,794,o),
(910,840,o),
(870,881,o),
(825,915,o),
(774,941,o),
(720,960,o),
(663,970,o),
(633,970,qs),
(603,970,o),
(545,960,o),
(490,942,o),
(440,915,o),
(394,881,o),
(353,841,o),
(320,795,o),
(293,744,o),
(275,689,o),
(265,630,o),
(265,600,qs)
);
}
);
width = 1263;
}
);
leftKerningGroup = C2;
rightKerningGroup = C;
unicode = 210;
},
{
glyphname = Oacute;
layers = (
{
layerId = "4B056265-F7A9-4FE5-8F86-068480F74FC7";
shapes = (
{
closed = 1;
nodes = (
(30,651,o),
(46,745,o),
(76,834,o),
(120,916,o),
(175,991,o),
(241,1056,o),
(316,1111,o),
(399,1154,o),
(488,1184,o),
(583,1200,o),
(632,1200,qs),
(681,1200,o),
(776,1184,o),
(865,1154,o),
(947,1111,o),
(1022,1056,o),
(1088,991,o),
(1143,916,o),
(1187,834,o),
(1217,745,o),
(1233,651,o),
(1233,602,qs),
(1233,552,o),
(1217,455,o),
(1187,364,o),
(1144,279,o),
(1089,203,o),
(1023,137,o),
(948,81,o),
(865,37,o),
(776,6,o),
(681,-10,o),
(632,-10,qs),
(583,-10,o),
(487,6,o),
(398,37,o),
(315,81,o),
(240,137,o),
(174,203,o),
(119,279,o),
(76,364,o),
(46,455,o),
(30,552,o),
(30,602,qs)
);
},
{
closed = 1;
nodes = (
(476,1250,l),
(614,1561,l),
(831,1561,l),
(648,1250,l)
);
},
{
closed = 1;
nodes = (
(265,569,o),
(275,508,o),
(293,452,o),
(319,399,o),
(353,352,o),
(393,311,o),
(439,276,o),
(489,249,o),
(544,230,o),
(603,220,o),
(633,220,qs),
(663,220,o),
(721,230,o),
(775,249,o),
(825,276,o),
(871,311,o),
(910,352,o),
(944,399,o),
(970,452,o),
(988,508,o),
(998,568,o),
(998,600,qs),
(998,630,o),
(988,688,o),
(970,743,o),
(944,794,o),
(910,840,o),
(870,881,o),
(825,915,o),
(774,941,o),
(720,960,o),
(663,970,o),
(633,970,qs),
(603,970,o),
(545,960,o),
(490,942,o),
(440,915,o),
(394,881,o),
(353,841,o),
(320,795,o),
(293,744,o),
(275,689,o),
(265,630,o),
(265,600,qs)
);
}
);
width = 1263;
}
);
leftKerningGroup = C2;
rightKerningGroup = C;
unicode = 211;
},
{
glyphname = Ocircumflex;
layers = (
{
layerId = "4B056265-F7A9-4FE5-8F86-068480F74FC7";
shapes = (
{
closed = 1;
nodes = (
(30,651,o),
(46,745,o),
(76,834,o),
(120,916,o),
(175,991,o),
(241,1056,o),
(316,1111,o),
(399,1154,o),
(488,1184,o),
(583,1200,o),
(632,1200,qs),
(681,1200,o),
(776,1184,o),
(865,1154,o),
(947,1111,o),
(1022,1056,o),
(1088,991,o),
(1143,916,o),
(1187,834,o),
(1217,745,o),
(1233,651,o),
(1233,602,qs),
(1233,552,o),
(1217,455,o),
(1187,364,o),
(1144,279,o),
(1089,203,o),
(1023,137,o),
(948,81,o),
(865,37,o),
(776,6,o),
(681,-10,o),
(632,-10,qs),
(583,-10,o),
(487,6,o),
(398,37,o),
(315,81,o),
(240,137,o),
(174,203,o),
(119,279,o),
(76,364,o),
(46,455,o),
(30,552,o),
(30,602,qs)
);
},
{
closed = 1;
nodes = (
(510,1555,l),
(754,1555,l),
(884,1250,l),
(721,1250,l),
(633,1405,l),
(544,1250,l),
(380,1250,l)
);
},
{
closed = 1;
nodes = (
(265,569,o),
(275,508,o),
(293,452,o),
(319,399,o),
(353,352,o),
(393,311,o),
(439,276,o),
(489,249,o),
(544,230,o),
(603,220,o),
(633,220,qs),
(663,220,o),
(721,230,o),
(775,249,o),
(825,276,o),
(871,311,o),
(910,352,o),
(944,399,o),
(970,452,o),
(988,508,o),
(998,568,o),
(998,600,qs),
(998,630,o),
(988,688,o),
(970,743,o),
(944,794,o),
(910,840,o),
(870,881,o),
(825,915,o),
(774,941,o),
(720,960,o),
(663,970,o),
(633,970,qs),
(603,970,o),
(545,960,o),
(490,942,o),
(440,915,o),
(394,881,o),
(353,841,o),
(320,795,o),
(293,744,o),
(275,689,o),
(265,630,o),
(265,600,qs)
);
}
);
width = 1263;
}
);
leftKerningGroup = C2;
rightKerningGroup = C;
unicode = 212;
},
{
glyphname = Otilde;
layers = (
{
layerId = "4B056265-F7A9-4FE5-8F86-068480F74FC7";
shapes = (
{
closed = 1;
nodes = (
(30,651,o),
(46,745,o),
(76,834,o),
(120,916,o),
(175,991,o),
(241,1056,o),
(316,1111,o),
(399,1154,o),
(488,1184,o),
(583,1200,o),
(632,1200,qs),
(681,1200,o),
(776,1184,o),
(865,1154,o),
(947,1111,o),
(1022,1056,o),
(1088,991,o),
(1143,916,o),
(1187,834,o),
(1217,745,o),
(1233,651,o),
(1233,602,qs),
(1233,552,o),
(1217,455,o),
(1187,364,o),
(1144,279,o),
(1089,203,o),
(1023,137,o),
(948,81,o),
(865,37,o),
(776,6,o),
(681,-10,o),
(632,-10,qs),
(583,-10,o),
(487,6,o),
(398,37,o),
(315,81,o),
(240,137,o),
(174,203,o),
(119,279,o),
(76,364,o),
(46,455,o),
(30,552,o),
(30,602,qs)
);
},
{
closed = 1;
nodes = (
(392,1250,l),
(392,1272,o),
(395,1313,o),
(400,1349,o),
(408,1381,o),
(418,1408,o),
(432,1432,o),
(447,1450,o),
(465,1465,o),
(486,1474,o),
(508,1479,o),
(521,1479,qs),
(532,1479,o),
(554,1475,o),
(574,1469,o),
(593,1460,o),
(611,1451,o),
(628,1440,o),
(643,1431,o),
(658,1422,o),
(671,1416,o),
(683,1412,o),
(689,1412,qs),
(698,1412,o),
(712,1422,o),
(723,1440,o),
(729,1464,o),
(729,1479,q),
(879,1479,l),
(879,1364,o),
(815,1250,o),
(749,1250,qs),
(737,1250,o),
(715,1254,o),
(694,1260,o),
(676,1269,o),
(660,1279,o),
(644,1289,o),
(630,1299,o),
(616,1308,o),
(603,1314,o),
(590,1318,o),
(584,1318,qs),
(580,1318,o),
(573,1316,o),
(567,1313,o),
(561,1309,o),
(556,1303,o),
(552,1296,o),
(548,1288,o),
(546,1278,o),
(544,1268,o),
(543,1256,o),
(543,1250,q)
);
},
{
closed = 1;
nodes = (
(265,569,o),
(275,508,o),
(293,452,o),
(319,399,o),
(353,352,o),
(393,311,o),
(439,276,o),
(489,249,o),
(544,230,o),
(603,220,o),
(633,220,qs),
(663,220,o),
(721,230,o),
(775,249,o),
(825,276,o),
(871,311,o),
(910,352,o),
(944,399,o),
(970,452,o),
(988,508,o),
(998,568,o),
(998,600,qs),
(998,630,o),
(988,688,o),
(970,743,o),
(944,794,o),
(910,840,o),
(870,881,o),
(825,915,o),
(774,941,o),
(720,960,o),
(663,970,o),
(633,970,qs),
(603,970,o),
(545,960,o),
(490,942,o),
(440,915,o),
(394,881,o),
(353,841,o),
(320,795,o),
(293,744,o),
(275,689,o),
(265,630,o),
(265,600,qs)
);
}
);
width = 1263;
}
);
leftKerningGroup = C2;
rightKerningGroup = C;
unicode = 213;
},
{
glyphname = Odieresis;
layers = (
{
layerId = "4B056265-F7A9-4FE5-8F86-068480F74FC7";
shapes = (
{
closed = 1;
nodes = (
(30,651,o),
(46,745,o),
(76,834,o),
(120,916,o),
(175,991,o),
(241,1056,o),
(316,1111,o),
(399,1154,o),
(488,1184,o),
(583,1200,o),
(632,1200,qs),
(681,1200,o),
(776,1184,o),
(865,1154,o),
(947,1111,o),
(1022,1056,o),
(1088,991,o),
(1143,916,o),
(1187,834,o),
(1217,745,o),
(1233,651,o),
(1233,602,qs),
(1233,552,o),
(1217,455,o),
(1187,364,o),
(1144,279,o),
(1089,203,o),
(1023,137,o),
(948,81,o),
(865,37,o),
(776,6,o),
(681,-10,o),
(632,-10,qs),
(583,-10,o),
(487,6,o),
(398,37,o),
(315,81,o),
(240,137,o),
(174,203,o),
(119,279,o),
(76,364,o),
(46,455,o),
(30,552,o),
(30,602,qs)
);
},
{
closed = 1;
nodes = (
(265,569,o),
(275,508,o),
(293,452,o),
(319,399,o),
(353,352,o),
(393,311,o),
(439,276,o),
(489,249,o),
(544,230,o),
(603,220,o),
(633,220,qs),
(663,220,o),
(721,230,o),
(775,249,o),
(825,276,o),
(871,311,o),
(910,352,o),
(944,399,o),
(970,452,o),
(988,508,o),
(998,568,o),
(998,600,qs),
(998,630,o),
(988,688,o),
(970,743,o),
(944,794,o),
(910,840,o),
(870,881,o),
(825,915,o),
(774,941,o),
(720,960,o),
(663,970,o),
(633,970,qs),
(603,970,o),
(545,960,o),
(490,942,o),
(440,915,o),
(394,881,o),
(353,841,o),
(320,795,o),
(293,744,o),
(275,689,o),
(265,630,o),
(265,600,qs)
);
},
{
closed = 1;
nodes = (
(352,1381,o),
(355,1400,o),
(361,1418,o),
(369,1435,o),
(379,1449,o),
(391,1462,o),
(406,1472,o),
(421,1480,o),
(439,1486,o),
(457,1489,o),
(467,1489,qs),
(477,1489,o),
(495,1486,o),
(512,1480,o),
(528,1472,o),
(542,1462,o),
(555,1449,o),
(565,1435,o),
(573,1418,o),
(579,1400,o),
(582,1381,o),
(582,1371,qs),
(582,1361,o),
(579,1342,o),
(574,1324,o),
(566,1307,o),
(556,1292,o),
(543,1279,o),
(529,1268,o),
(513,1259,o),
(496,1253,o),
(477,1250,o),
(467,1250,qs),
(457,1250,o),
(439,1253,o),
(421,1259,o),
(406,1268,o),
(391,1279,o),
(379,1292,o),
(369,1307,o),
(361,1324,o),
(355,1342,o),
(352,1361,o),
(352,1371,qs)
);
},
{
closed = 1;
nodes = (
(658,1381,o),
(661,1400,o),
(667,1418,o),
(675,1435,o),
(685,1449,o),
(697,1462,o),
(712,1472,o),
(727,1480,o),
(745,1486,o),
(763,1489,o),
(773,1489,qs),
(783,1489,o),
(801,1486,o),
(818,1480,o),
(834,1472,o),
(848,1462,o),
(861,1449,o),
(871,1435,o),
(879,1418,o),
(885,1400,o),
(888,1381,o),
(888,1371,qs),
(888,1361,o),
(885,1342,o),
(880,1324,o),
(872,1307,o),
(862,1292,o),
(849,1279,o),
(835,1268,o),
(819,1259,o),
(802,1253,o),
(783,1250,o),
(773,1250,qs),
(763,1250,o),
(745,1253,o),
(727,1259,o),
(712,1268,o),
(697,1279,o),
(685,1292,o),
(675,1307,o),
(667,1324,o),
(661,1342,o),
(658,1361,o),
(658,1371,qs)
);
}
);
width = 1263;
}
);
leftKerningGroup = C2;
rightKerningGroup = C;
unicode = 214;
},
{
glyphname = multiply;
layers = (
{
layerId = "4B056265-F7A9-4FE5-8F86-068480F74FC7";
shapes = (
{
closed = 1;
nodes = (
(496,287,l),
(348,435,l),
(199,287,l),
(40,446,l),
(188,594,l),
(40,742,l),
(199,901,l),
(348,753,l),
(496,901,l),
(655,742,l),
(507,594,l),
(655,446,l)
);
}
);
width = 695;
}
);
unicode = 215;
},
{
glyphname = Oslash;
layers = (
{
layerId = "4B056265-F7A9-4FE5-8F86-068480F74FC7";
shapes = (
{
closed = 1;
nodes = (
(30,651,o),
(46,745,o),
(76,834,o),
(120,916,o),
(175,991,o),
(241,1056,o),
(316,1111,o),
(399,1154,o),
(488,1184,o),
(583,1200,o),
(632,1200,qs),
(642,1200,o),
(661,1199,o),
(680,1198,o),
(699,1196,o),
(718,1194,o),
(737,1191,o),
(746,1189,q),
(781,1280,l),
(1006,1280,l),
(942,1112,l),
(968,1096,o),
(1016,1059,o),
(1061,1018,o),
(1101,973,o),
(1137,924,o),
(1168,871,o),
(1193,816,o),
(1213,757,o),
(1226,697,o),
(1233,634,o),
(1233,602,qs),
(1233,552,o),
(1217,455,o),
(1187,364,o),
(1144,279,o),
(1089,203,o),
(1023,137,o),
(948,81,o),
(865,37,o),
(776,6,o),
(681,-10,o),
(632,-10,qs),
(622,-10,o),
(603,-9,o),
(584,-8,o),
(565,-6,o),
(546,-4,o),
(527,-1,o),
(518,1,q),
(483,-90,l),
(258,-90,l),
(322,78,l),
(296,94,o),
(247,132,o),
(202,174,o),
(162,220,o),
(126,271,o),
(95,325,o),
(70,382,o),
(50,442,o),
(37,504,o),
(30,569,o),
(30,602,qs)
);
},
{
closed = 1;
nodes = (
(265,569,o),
(275,508,o),
(293,452,o),
(319,399,o),
(353,352,o),
(393,311,o),
(439,276,o),
(489,249,o),
(544,230,o),
(603,220,o),
(633,220,qs),
(663,220,o),
(721,230,o),
(775,249,o),
(825,276,o),
(871,311,o),
(910,352,o),
(944,399,o),
(970,452,o),
(988,508,o),
(998,568,o),
(998,600,qs),
(998,630,o),
(988,688,o),
(970,743,o),
(944,794,o),
(910,840,o),
(870,881,o),
(825,915,o),
(774,941,o),
(720,960,o),
(663,970,o),
(633,970,qs),
(603,970,o),
(545,960,o),
(490,942,o),
(440,915,o),
(394,881,o),
(353,841,o),
(320,795,o),
(293,744,o),
(275,689,o),
(265,630,o),
(265,600,qs)
);
}
);
width = 1263;
}
);
leftKerningGroup = C2;
rightKerningGroup = C;
unicode = 216;
},
{
glyphname = Ugrave;
layers = (
{
layerId = "4B056265-F7A9-4FE5-8F86-068480F74FC7";
shapes = (
{
closed = 1;
nodes = (
(50,1190,l),
(285,1190,l),
(285,294,ls),
(285,287,o),
(287,274,o),
(291,263,o),
(297,253,o),
(304,244,o),
(312,236,o),
(322,230,o),
(333,225,o),
(344,222,o),
(357,220,o),
(363,220,qs),
(379,220,o),
(407,230,o),
(428,249,o),
(440,277,o),
(440,294,qs),
(440,1190,l),
(675,1190,l),
(675,294,ls),
(675,266,o),
(668,215,o),
(654,168,o),
(634,126,o),
(607,89,o),
(575,57,o),
(537,31,o),
(493,11,o),
(445,-3,o),
(392,-10,o),
(363,-10,qs),
(334,-10,o),
(281,-3,o),
(232,11,o),
(189,31,o),
(151,57,o),
(118,89,o),
(92,126,o),
(71,168,o),
(57,215,o),
(50,266,o),
(50,294,qs)
);
},
{
closed = 1;
nodes = (
(178,1561,l),
(395,1561,l),
(533,1250,l),
(361,1250,l)
);
}
);
width = 725;
}
);
leftKerningGroup = U2;
rightKerningGroup = U;
unicode = 217;
},
{
glyphname = Uacute;
layers = (
{
layerId = "4B056265-F7A9-4FE5-8F86-068480F74FC7";
shapes = (
{
closed = 1;
nodes = (
(50,1190,l),
(285,1190,l),
(285,294,ls),
(285,287,o),
(287,274,o),
(291,263,o),
(297,253,o),
(304,244,o),
(312,236,o),
(322,230,o),
(333,225,o),
(344,222,o),
(357,220,o),
(363,220,qs),
(379,220,o),
(407,230,o),
(428,249,o),
(440,277,o),
(440,294,qs),
(440,1190,l),
(675,1190,l),
(675,294,ls),
(675,266,o),
(668,215,o),
(654,168,o),
(634,126,o),
(607,89,o),
(575,57,o),
(537,31,o),
(493,11,o),
(445,-3,o),
(392,-10,o),
(363,-10,qs),
(334,-10,o),
(281,-3,o),
(232,11,o),
(189,31,o),
(151,57,o),
(118,89,o),
(92,126,o),
(71,168,o),
(57,215,o),
(50,266,o),
(50,294,qs)
);
},
{
closed = 1;
nodes = (
(207,1250,l),
(345,1561,l),
(562,1561,l),
(379,1250,l)
);
}
);
width = 725;
}
);
leftKerningGroup = U2;
rightKerningGroup = U;
unicode = 218;
},
{
glyphname = Ucircumflex;
layers = (
{
layerId = "4B056265-F7A9-4FE5-8F86-068480F74FC7";
shapes = (
{
closed = 1;
nodes = (
(50,1190,l),
(285,1190,l),
(285,294,ls),
(285,287,o),
(287,274,o),
(291,263,o),
(297,253,o),
(304,244,o),
(312,236,o),
(322,230,o),
(333,225,o),
(344,222,o),
(357,220,o),
(363,220,qs),
(379,220,o),
(407,230,o),
(428,249,o),
(440,277,o),
(440,294,qs),
(440,1190,l),
(675,1190,l),
(675,294,ls),
(675,266,o),
(668,215,o),
(654,168,o),
(634,126,o),
(607,89,o),
(575,57,o),
(537,31,o),
(493,11,o),
(445,-3,o),
(392,-10,o),
(363,-10,qs),
(334,-10,o),
(281,-3,o),
(232,11,o),
(189,31,o),
(151,57,o),
(118,89,o),
(92,126,o),
(71,168,o),
(57,215,o),
(50,266,o),
(50,294,qs)
);
},
{
closed = 1;
nodes = (
(241,1555,l),
(485,1555,l),
(615,1250,l),
(452,1250,l),
(364,1405,l),
(275,1250,l),
(111,1250,l)
);
}
);
width = 725;
}
);
leftKerningGroup = U2;
rightKerningGroup = U;
unicode = 219;
},
{
glyphname = Udieresis;
layers = (
{
layerId = "4B056265-F7A9-4FE5-8F86-068480F74FC7";
shapes = (
{
closed = 1;
nodes = (
(50,1190,l),
(285,1190,l),
(285,294,ls),
(285,287,o),
(287,274,o),
(291,263,o),
(297,253,o),
(304,244,o),
(312,236,o),
(322,230,o),
(333,225,o),
(344,222,o),
(357,220,o),
(363,220,qs),
(379,220,o),
(407,230,o),
(428,249,o),
(440,277,o),
(440,294,qs),
(440,1190,l),
(675,1190,l),
(675,294,ls),
(675,266,o),
(668,215,o),
(654,168,o),
(634,126,o),
(607,89,o),
(575,57,o),
(537,31,o),
(493,11,o),
(445,-3,o),
(392,-10,o),
(363,-10,qs),
(334,-10,o),
(281,-3,o),
(232,11,o),
(189,31,o),
(151,57,o),
(118,89,o),
(92,126,o),
(71,168,o),
(57,215,o),
(50,266,o),
(50,294,qs)
);
},
{
closed = 1;
nodes = (
(93,1381,o),
(96,1400,o),
(102,1418,o),
(110,1435,o),
(120,1449,o),
(132,1462,o),
(147,1472,o),
(162,1480,o),
(180,1486,o),
(198,1489,o),
(208,1489,qs),
(218,1489,o),
(236,1486,o),
(253,1480,o),
(269,1472,o),
(283,1462,o),
(296,1449,o),
(306,1435,o),
(314,1418,o),
(320,1400,o),
(323,1381,o),
(323,1371,qs),
(323,1361,o),
(320,1342,o),
(315,1324,o),
(307,1307,o),
(297,1292,o),
(284,1279,o),
(270,1268,o),
(254,1259,o),
(237,1253,o),
(218,1250,o),
(208,1250,qs),
(198,1250,o),
(180,1253,o),
(162,1259,o),
(147,1268,o),
(132,1279,o),
(120,1292,o),
(110,1307,o),
(102,1324,o),
(96,1342,o),
(93,1361,o),
(93,1371,qs)
);
},
{
closed = 1;
nodes = (
(399,1381,o),
(402,1400,o),
(408,1418,o),
(416,1435,o),
(426,1449,o),
(438,1462,o),
(453,1472,o),
(468,1480,o),
(486,1486,o),
(504,1489,o),
(514,1489,qs),
(524,1489,o),
(542,1486,o),
(559,1480,o),
(575,1472,o),
(589,1462,o),
(602,1449,o),
(612,1435,o),
(620,1418,o),
(626,1400,o),
(629,1381,o),
(629,1371,qs),
(629,1361,o),
(626,1342,o),
(621,1324,o),
(613,1307,o),
(603,1292,o),
(590,1279,o),
(576,1268,o),
(560,1259,o),
(543,1253,o),
(524,1250,o),
(514,1250,qs),
(504,1250,o),
(486,1253,o),
(468,1259,o),
(453,1268,o),
(438,1279,o),
(426,1292,o),
(416,1307,o),
(408,1324,o),
(402,1342,o),
(399,1361,o),
(399,1371,qs)
);
}
);
width = 725;
}
);
leftKerningGroup = U2;
rightKerningGroup = U;
unicode = 220;
},
{
glyphname = Yacute;
layers = (
{
layerId = "4B056265-F7A9-4FE5-8F86-068480F74FC7";
shapes = (
{
closed = 1;
nodes = (
(312,863,ls),
(315,850,o),
(321,824,o),
(326,797,o),
(330,769,o),
(334,741,o),
(337,713,o),
(340,685,o),
(342,658,o),
(343,632,o),
(344,607,o),
(344,595,q),
(364,595,l),
(364,607,o),
(365,632,o),
(366,658,o),
(368,685,o),
(371,713,o),
(374,741,o),
(378,769,o),
(382,797,o),
(387,824,o),
(393,850,o),
(396,863,qs),
(473,1190,l),
(708,1190,l),
(472,419,l),
(472,0,l),
(237,0,l),
(237,419,l),
(0,1190,l),
(235,1190,l)
);
},
{
closed = 1;
nodes = (
(198,1250,l),
(336,1561,l),
(553,1561,l),
(370,1250,l)
);
}
);
width = 708;
}
);
leftKerningGroup = V2;
rightKerningGroup = V;
unicode = 221;
},
{
glyphname = Thorn;
layers = (
{
layerId = "4B056265-F7A9-4FE5-8F86-068480F74FC7";
shapes = (
{
closed = 1;
nodes = (
(60,1388,l),
(295,1388,l),
(295,1140,l),
(410,1140,ls),
(454,1140,o),
(530,1117,o),
(594,1073,o),
(643,1009,o),
(677,927,o),
(695,828,o),
(695,771,qs),
(695,737,o),
(689,674,o),
(676,617,o),
(657,565,o),
(633,521,o),
(604,482,o),
(569,451,o),
(529,427,o),
(485,411,o),
(436,403,o),
(410,403,qs),
(295,403,l),
(295,0,l),
(60,0,l)
);
},
{
closed = 1;
nodes = (
(350,623,ls),
(360,623,o),
(379,626,o),
(397,633,o),
(412,642,o),
(425,655,o),
(437,670,o),
(446,688,o),
(453,709,o),
(458,732,o),
(460,757,o),
(460,771,qs),
(460,785,o),
(458,810,o),
(453,833,o),
(446,854,o),
(436,872,o),
(425,888,o),
(411,900,o),
(396,910,o),
(379,917,o),
(360,920,o),
(350,920,qs),
(295,920,l),
(295,623,l)
);
}
);
width = 725;
}
);
rightKerningGroup = P;
unicode = 222;
},
{
glyphname = germandbls;
layers = (
{
layerId = "4B056265-F7A9-4FE5-8F86-068480F74FC7";
shapes = (
{
closed = 1;
nodes = (
(338,233,l),
(342,230,o),
(349,225,o),
(356,220,o),
(364,216,o),
(371,212,o),
(378,209,o),
(385,207,o),
(392,205,o),
(398,204,o),
(404,203,o),
(407,203,qs),
(417,203,o),
(435,212,o),
(449,230,o),
(460,256,o),
(467,290,o),
(471,332,o),
(471,357,qs),
(471,371,o),
(470,398,o),
(467,422,o),
(463,444,o),
(458,463,o),
(452,479,o),
(444,492,o),
(436,503,o),
(426,509,o),
(416,513,o),
(410,513,qs),
(343,513,l),
(343,723,l),
(396,723,ls),
(401,723,o),
(409,726,o),
(417,732,o),
(424,740,o),
(430,752,o),
(435,765,o),
(439,781,o),
(443,800,o),
(445,821,o),
(446,844,o),
(446,856,qs),
(446,872,o),
(444,898,o),
(439,921,o),
(433,940,o),
(425,956,o),
(416,968,o),
(406,977,o),
(395,984,o),
(384,988,o),
(372,990,o),
(366,990,qs),
(359,990,o),
(346,987,o),
(334,982,o),
(323,974,o),
(313,964,o),
(304,950,o),
(297,934,o),
(291,916,o),
(287,894,o),
(285,870,o),
(285,856,qs),
(285,0,l),
(50,0,l),
(50,844,ls),
(50,931,o),
(90,1064,o),
(169,1154,o),
(285,1200,o),
(361,1200,qs),
(390,1200,o),
(444,1193,o),
(494,1180,o),
(538,1161,o),
(577,1136,o),
(611,1105,o),
(638,1069,o),
(659,1028,o),
(674,983,o),
(681,934,o),
(681,907,qs),
(681,886,o),
(676,846,o),
(667,809,o),
(654,775,o),
(636,744,o),
(615,716,o),
(590,692,o),
(561,671,o),
(528,655,o),
(492,642,o),
(473,638,q),
(473,622,l),
(495,619,o),
(535,607,o),
(571,590,o),
(604,568,o),
(632,541,o),
(656,509,o),
(676,473,o),
(691,432,o),
(701,387,o),
(706,339,o),
(706,313,qs),
(706,285,o),
(700,233,o),
(687,184,o),
(670,139,o),
(647,99,o),
(619,65,o),
(588,36,o),
(552,14,o),
(513,-2,o),
(471,-10,o),
(449,-10,qs),
(419,-10,o),
(364,5,o),
(338,20,q)
);
}
);
width = 731;
}
);
unicode = 223;
},
{
glyphname = agrave;
layers = (
{
layerId = "4B056265-F7A9-4FE5-8F86-068480F74FC7";
shapes = (
{
closed = 1;
nodes = (
(25,253,o),
(32,301,o),
(46,344,o),
(68,383,o),
(97,417,o),
(134,447,o),
(179,472,o),
(232,493,o),
(294,511,o),
(364,524,o),
(403,529,q),
(403,595,ls),
(403,601,o),
(401,612,o),
(398,623,o),
(394,633,o),
(388,641,o),
(382,649,o),
(373,655,o),
(364,660,o),
(354,663,o),
(343,665,o),
(337,665,qs),
(331,665,o),
(320,663,o),
(310,660,o),
(300,656,o),
(292,650,o),
(285,643,o),
(279,635,o),
(275,625,o),
(272,615,o),
(270,604,o),
(270,598,qs),
(270,575,l),
(50,575,l),
(50,634,ls),
(50,657,o),
(56,700,o),
(69,738,o),
(87,773,o),
(111,802,o),
(141,828,o),
(176,848,o),
(217,864,o),
(262,875,o),
(313,880,o),
(340,880,qs),
(386,880,o),
(464,865,o),
(528,836,o),
(577,794,o),
(611,739,o),
(628,673,o),
(628,634,qs),
(628,0,l),
(403,0,l),
(403,5,o),
(404,16,o),
(406,26,o),
(408,37,o),
(412,48,o),
(416,59,o),
(421,70,o),
(426,81,o),
(432,92,o),
(439,102,o),
(443,107,q),
(431,117,l),
(424,105,o),
(408,82,o),
(391,62,o),
(373,45,o),
(353,29,o),
(333,16,o),
(311,6,o),
(287,-2,o),
(263,-7,o),
(238,-10,o),
(225,-10,qs),
(206,-10,o),
(172,-4,o),
(141,6,o),
(113,22,o),
(88,42,o),
(68,67,o),
(51,96,o),
(38,129,o),
(29,165,o),
(25,205,o),
(25,226,qs)
);
},
{
closed = 1;
nodes = (
(165,1220,l),
(367,1220,l),
(496,930,l),
(336,930,l)
);
},
{
closed = 1;
nodes = (
(255,253,o),
(257,240,o),
(260,228,o),
(264,218,o),
(270,209,o),
(278,201,o),
(286,195,o),
(296,190,o),
(307,187,o),
(319,185,o),
(325,185,qs),
(343,185,o),
(382,198,o),
(403,210,q),
(403,395,l),
(388,390,o),
(360,380,o),
(336,369,o),
(315,357,o),
(298,344,o),
(283,331,o),
(272,317,o),
(263,302,o),
(258,286,o),
(255,269,o),
(255,260,qs)
);
}
);
width = 678;
}
);
leftKerningGroup = a2;
rightKerningGroup = a;
unicode = 224;
},
{
glyphname = aacute;
layers = (
{
layerId = "4B056265-F7A9-4FE5-8F86-068480F74FC7";
shapes = (
{
closed = 1;
nodes = (
(25,253,o),
(32,301,o),
(46,344,o),
(68,383,o),
(97,417,o),
(134,447,o),
(179,472,o),
(232,493,o),
(294,511,o),
(364,524,o),
(403,529,q),
(403,595,ls),
(403,601,o),
(401,612,o),
(398,623,o),
(394,633,o),
(388,641,o),
(382,649,o),
(373,655,o),
(364,660,o),
(354,663,o),
(343,665,o),
(337,665,qs),
(331,665,o),
(320,663,o),
(310,660,o),
(300,656,o),
(292,650,o),
(285,643,o),
(279,635,o),
(275,625,o),
(272,615,o),
(270,604,o),
(270,598,qs),
(270,575,l),
(50,575,l),
(50,634,ls),
(50,657,o),
(56,700,o),
(69,738,o),
(87,773,o),
(111,802,o),
(141,828,o),
(176,848,o),
(217,864,o),
(262,875,o),
(313,880,o),
(340,880,qs),
(386,880,o),
(464,865,o),
(528,836,o),
(577,794,o),
(611,739,o),
(628,673,o),
(628,634,qs),
(628,0,l),
(403,0,l),
(403,5,o),
(404,16,o),
(406,26,o),
(408,37,o),
(412,48,o),
(416,59,o),
(421,70,o),
(426,81,o),
(432,92,o),
(439,102,o),
(443,107,q),
(431,117,l),
(424,105,o),
(408,82,o),
(391,62,o),
(373,45,o),
(353,29,o),
(333,16,o),
(311,6,o),
(287,-2,o),
(263,-7,o),
(238,-10,o),
(225,-10,qs),
(206,-10,o),
(172,-4,o),
(141,6,o),
(113,22,o),
(88,42,o),
(68,67,o),
(51,96,o),
(38,129,o),
(29,165,o),
(25,205,o),
(25,226,qs)
);
},
{
closed = 1;
nodes = (
(194,930,l),
(323,1220,l),
(525,1220,l),
(354,930,l)
);
},
{
closed = 1;
nodes = (
(255,253,o),
(257,240,o),
(260,228,o),
(264,218,o),
(270,209,o),
(278,201,o),
(286,195,o),
(296,190,o),
(307,187,o),
(319,185,o),
(325,185,qs),
(343,185,o),
(382,198,o),
(403,210,q),
(403,395,l),
(388,390,o),
(360,380,o),
(336,369,o),
(315,357,o),
(298,344,o),
(283,331,o),
(272,317,o),
(263,302,o),
(258,286,o),
(255,269,o),
(255,260,qs)
);
}
);
width = 678;
}
);
leftKerningGroup = a2;
rightKerningGroup = a;
unicode = 225;
},
{
glyphname = acircumflex;
layers = (
{
layerId = "4B056265-F7A9-4FE5-8F86-068480F74FC7";
shapes = (
{
closed = 1;
nodes = (
(25,253,o),
(32,301,o),
(46,344,o),
(68,383,o),
(97,417,o),
(134,447,o),
(179,472,o),
(232,493,o),
(294,511,o),
(364,524,o),
(403,529,q),
(403,595,ls),
(403,601,o),
(401,612,o),
(398,623,o),
(394,633,o),
(388,641,o),
(382,649,o),
(373,655,o),
(364,660,o),
(354,663,o),
(343,665,o),
(337,665,qs),
(331,665,o),
(320,663,o),
(310,660,o),
(300,656,o),
(292,650,o),
(285,643,o),
(279,635,o),
(275,625,o),
(272,615,o),
(270,604,o),
(270,598,qs),
(270,575,l),
(50,575,l),
(50,634,ls),
(50,657,o),
(56,700,o),
(69,738,o),
(87,773,o),
(111,802,o),
(141,828,o),
(176,848,o),
(217,864,o),
(262,875,o),
(313,880,o),
(340,880,qs),
(386,880,o),
(464,865,o),
(528,836,o),
(577,794,o),
(611,739,o),
(628,673,o),
(628,634,qs),
(628,0,l),
(403,0,l),
(403,5,o),
(404,16,o),
(406,26,o),
(408,37,o),
(412,48,o),
(416,59,o),
(421,70,o),
(426,81,o),
(432,92,o),
(439,102,o),
(443,107,q),
(431,117,l),
(424,105,o),
(408,82,o),
(391,62,o),
(373,45,o),
(353,29,o),
(333,16,o),
(311,6,o),
(287,-2,o),
(263,-7,o),
(238,-10,o),
(225,-10,qs),
(206,-10,o),
(172,-4,o),
(141,6,o),
(113,22,o),
(88,42,o),
(68,67,o),
(51,96,o),
(38,129,o),
(29,165,o),
(25,205,o),
(25,226,qs)
);
},
{
closed = 1;
nodes = (
(227,1214,l),
(454,1214,l),
(575,930,l),
(423,930,l),
(341,1074,l),
(258,930,l),
(106,930,l)
);
},
{
closed = 1;
nodes = (
(255,253,o),
(257,240,o),
(260,228,o),
(264,218,o),
(270,209,o),
(278,201,o),
(286,195,o),
(296,190,o),
(307,187,o),
(319,185,o),
(325,185,qs),
(343,185,o),
(382,198,o),
(403,210,q),
(403,395,l),
(388,390,o),
(360,380,o),
(336,369,o),
(315,357,o),
(298,344,o),
(283,331,o),
(272,317,o),
(263,302,o),
(258,286,o),
(255,269,o),
(255,260,qs)
);
}
);
width = 678;
}
);
leftKerningGroup = a2;
rightKerningGroup = a;
unicode = 226;
},
{
glyphname = atilde;
layers = (
{
layerId = "4B056265-F7A9-4FE5-8F86-068480F74FC7";
shapes = (
{
closed = 1;
nodes = (
(25,253,o),
(32,301,o),
(46,344,o),
(68,383,o),
(97,417,o),
(134,447,o),
(179,472,o),
(232,493,o),
(294,511,o),
(364,524,o),
(403,529,q),
(403,595,ls),
(403,601,o),
(401,612,o),
(398,623,o),
(394,633,o),
(388,641,o),
(382,649,o),
(373,655,o),
(364,660,o),
(354,663,o),
(343,665,o),
(337,665,qs),
(331,665,o),
(320,663,o),
(310,660,o),
(300,656,o),
(292,650,o),
(285,643,o),
(279,635,o),
(275,625,o),
(272,615,o),
(270,604,o),
(270,598,qs),
(270,575,l),
(50,575,l),
(50,634,ls),
(50,657,o),
(56,700,o),
(69,738,o),
(87,773,o),
(111,802,o),
(141,828,o),
(176,848,o),
(217,864,o),
(262,875,o),
(313,880,o),
(340,880,qs),
(386,880,o),
(464,865,o),
(528,836,o),
(577,794,o),
(611,739,o),
(628,673,o),
(628,634,qs),
(628,0,l),
(403,0,l),
(403,5,o),
(404,16,o),
(406,26,o),
(408,37,o),
(412,48,o),
(416,59,o),
(421,70,o),
(426,81,o),
(432,92,o),
(439,102,o),
(443,107,q),
(431,117,l),
(424,105,o),
(408,82,o),
(391,62,o),
(373,45,o),
(353,29,o),
(333,16,o),
(311,6,o),
(287,-2,o),
(263,-7,o),
(238,-10,o),
(225,-10,qs),
(206,-10,o),
(172,-4,o),
(141,6,o),
(113,22,o),
(88,42,o),
(68,67,o),
(51,96,o),
(38,129,o),
(29,165,o),
(25,205,o),
(25,226,qs)
);
},
{
closed = 1;
nodes = (
(124,930,l),
(124,981,o),
(139,1059,o),
(169,1113,o),
(213,1140,o),
(242,1140,qs),
(253,1140,o),
(272,1137,o),
(291,1131,o),
(308,1123,o),
(325,1114,o),
(340,1105,o),
(354,1096,o),
(368,1088,o),
(380,1082,o),
(391,1079,o),
(396,1079,qs),
(399,1079,o),
(405,1080,o),
(411,1083,o),
(416,1087,o),
(421,1093,o),
(425,1099,o),
(428,1107,o),
(430,1115,o),
(432,1124,o),
(433,1135,o),
(433,1140,q),
(571,1140,l),
(571,1119,o),
(569,1081,o),
(564,1048,o),
(557,1018,o),
(548,993,o),
(536,972,o),
(522,955,o),
(505,943,o),
(486,934,o),
(464,930,o),
(452,930,qs),
(433,930,o),
(401,939,o),
(374,953,o),
(351,969,o),
(330,983,o),
(311,992,o),
(301,992,qs),
(292,992,o),
(277,983,o),
(267,967,o),
(262,944,o),
(262,930,q)
);
},
{
closed = 1;
nodes = (
(255,253,o),
(257,240,o),
(260,228,o),
(264,218,o),
(270,209,o),
(278,201,o),
(286,195,o),
(296,190,o),
(307,187,o),
(319,185,o),
(325,185,qs),
(343,185,o),
(382,198,o),
(403,210,q),
(403,395,l),
(388,390,o),
(360,380,o),
(336,369,o),
(315,357,o),
(298,344,o),
(283,331,o),
(272,317,o),
(263,302,o),
(258,286,o),
(255,269,o),
(255,260,qs)
);
}
);
width = 678;
}
);
leftKerningGroup = a2;
rightKerningGroup = a;
unicode = 227;
},
{
glyphname = adieresis;
layers = (
{
layerId = "4B056265-F7A9-4FE5-8F86-068480F74FC7";
shapes = (
{
closed = 1;
nodes = (
(25,253,o),
(32,301,o),
(46,344,o),
(68,383,o),
(97,417,o),
(134,447,o),
(179,472,o),
(232,493,o),
(294,511,o),
(364,524,o),
(403,529,q),
(403,595,ls),
(403,601,o),
(401,612,o),
(398,623,o),
(394,633,o),
(388,641,o),
(382,649,o),
(373,655,o),
(364,660,o),
(354,663,o),
(343,665,o),
(337,665,qs),
(331,665,o),
(320,663,o),
(310,660,o),
(300,656,o),
(292,650,o),
(285,643,o),
(279,635,o),
(275,625,o),
(272,615,o),
(270,604,o),
(270,598,qs),
(270,575,l),
(50,575,l),
(50,634,ls),
(50,657,o),
(56,700,o),
(69,738,o),
(87,773,o),
(111,802,o),
(141,828,o),
(176,848,o),
(217,864,o),
(262,875,o),
(313,880,o),
(340,880,qs),
(386,880,o),
(464,865,o),
(528,836,o),
(577,794,o),
(611,739,o),
(628,673,o),
(628,634,qs),
(628,0,l),
(403,0,l),
(403,5,o),
(404,16,o),
(406,26,o),
(408,37,o),
(412,48,o),
(416,59,o),
(421,70,o),
(426,81,o),
(432,92,o),
(439,102,o),
(443,107,q),
(431,117,l),
(424,105,o),
(408,82,o),
(391,62,o),
(373,45,o),
(353,29,o),
(333,16,o),
(311,6,o),
(287,-2,o),
(263,-7,o),
(238,-10,o),
(225,-10,qs),
(206,-10,o),
(172,-4,o),
(141,6,o),
(113,22,o),
(88,42,o),
(68,67,o),
(51,96,o),
(38,129,o),
(29,165,o),
(25,205,o),
(25,226,qs)
);
},
{
closed = 1;
nodes = (
(70,1061,o),
(73,1080,o),
(79,1098,o),
(87,1115,o),
(97,1129,o),
(109,1142,o),
(124,1152,o),
(139,1160,o),
(157,1166,o),
(175,1169,o),
(185,1169,qs),
(195,1169,o),
(213,1166,o),
(230,1160,o),
(246,1152,o),
(260,1142,o),
(273,1129,o),
(283,1115,o),
(291,1098,o),
(297,1080,o),
(300,1061,o),
(300,1051,qs),
(300,1041,o),
(297,1022,o),
(292,1004,o),
(284,987,o),
(274,972,o),
(261,959,o),
(247,948,o),
(231,939,o),
(214,933,o),
(195,930,o),
(185,930,qs),
(175,930,o),
(157,933,o),
(139,939,o),
(124,948,o),
(109,959,o),
(97,972,o),
(87,987,o),
(79,1004,o),
(73,1022,o),
(70,1041,o),
(70,1051,qs)
);
},
{
closed = 1;
nodes = (
(376,1061,o),
(379,1080,o),
(385,1098,o),
(393,1115,o),
(403,1129,o),
(415,1142,o),
(430,1152,o),
(445,1160,o),
(463,1166,o),
(481,1169,o),
(491,1169,qs),
(501,1169,o),
(519,1166,o),
(536,1160,o),
(552,1152,o),
(566,1142,o),
(579,1129,o),
(589,1115,o),
(597,1098,o),
(603,1080,o),
(606,1061,o),
(606,1051,qs),
(606,1041,o),
(603,1022,o),
(598,1004,o),
(590,987,o),
(580,972,o),
(567,959,o),
(553,948,o),
(537,939,o),
(520,933,o),
(501,930,o),
(491,930,qs),
(481,930,o),
(463,933,o),
(445,939,o),
(430,948,o),
(415,959,o),
(403,972,o),
(393,987,o),
(385,1004,o),
(379,1022,o),
(376,1041,o),
(376,1051,qs)
);
},
{
closed = 1;
nodes = (
(255,253,o),
(257,240,o),
(260,228,o),
(264,218,o),
(270,209,o),
(278,201,o),
(286,195,o),
(296,190,o),
(307,187,o),
(319,185,o),
(325,185,qs),
(343,185,o),
(382,198,o),
(403,210,q),
(403,395,l),
(388,390,o),
(360,380,o),
(336,369,o),
(315,357,o),
(298,344,o),
(283,331,o),
(272,317,o),
(263,302,o),
(258,286,o),
(255,269,o),
(255,260,qs)
);
}
);
width = 678;
}
);
leftKerningGroup = a2;
rightKerningGroup = a;
unicode = 228;
},
{
glyphname = aring;
layers = (
{
layerId = "4B056265-F7A9-4FE5-8F86-068480F74FC7";
shapes = (
{
closed = 1;
nodes = (
(25,253,o),
(32,301,o),
(46,344,o),
(68,383,o),
(97,417,o),
(134,447,o),
(179,472,o),
(232,493,o),
(294,511,o),
(364,524,o),
(403,529,q),
(403,595,ls),
(403,601,o),
(401,612,o),
(398,623,o),
(394,633,o),
(388,641,o),
(382,649,o),
(373,655,o),
(364,660,o),
(354,663,o),
(343,665,o),
(337,665,qs),
(331,665,o),
(320,663,o),
(310,660,o),
(300,656,o),
(292,650,o),
(285,643,o),
(279,635,o),
(275,625,o),
(272,615,o),
(270,604,o),
(270,598,qs),
(270,575,l),
(50,575,l),
(50,634,ls),
(50,657,o),
(56,700,o),
(69,738,o),
(87,773,o),
(111,802,o),
(141,828,o),
(176,848,o),
(217,864,o),
(262,875,o),
(313,880,o),
(340,880,qs),
(386,880,o),
(464,865,o),
(528,836,o),
(577,794,o),
(611,739,o),
(628,673,o),
(628,634,qs),
(628,0,l),
(403,0,l),
(403,5,o),
(404,16,o),
(406,26,o),
(408,37,o),
(412,48,o),
(416,59,o),
(421,70,o),
(426,81,o),
(432,92,o),
(439,102,o),
(443,107,q),
(431,117,l),
(424,105,o),
(408,82,o),
(391,62,o),
(373,45,o),
(353,29,o),
(333,16,o),
(311,6,o),
(287,-2,o),
(263,-7,o),
(238,-10,o),
(225,-10,qs),
(206,-10,o),
(172,-4,o),
(141,6,o),
(113,22,o),
(88,42,o),
(68,67,o),
(51,96,o),
(38,129,o),
(29,165,o),
(25,205,o),
(25,226,qs)
);
},
{
closed = 1;
nodes = (
(180,1113,o),
(184,1139,o),
(192,1164,o),
(203,1186,o),
(217,1206,o),
(234,1224,o),
(254,1238,o),
(276,1249,o),
(300,1257,o),
(325,1261,o),
(339,1261,qs),
(353,1261,o),
(379,1257,o),
(403,1249,o),
(425,1238,o),
(445,1224,o),
(462,1206,o),
(476,1186,o),
(487,1164,o),
(495,1139,o),
(499,1113,o),
(499,1099,qs),
(499,1063,o),
(475,1002,o),
(432,956,o),
(374,930,o),
(339,930,qs),
(325,930,o),
(300,934,o),
(276,943,o),
(254,955,o),
(234,970,o),
(217,988,o),
(203,1009,o),
(192,1032,o),
(184,1058,o),
(180,1085,o),
(180,1099,qs)
);
},
{
closed = 1;
nodes = (
(255,253,o),
(257,240,o),
(260,228,o),
(264,218,o),
(270,209,o),
(278,201,o),
(286,195,o),
(296,190,o),
(307,187,o),
(319,185,o),
(325,185,qs),
(343,185,o),
(382,198,o),
(403,210,q),
(403,395,l),
(388,390,o),
(360,380,o),
(336,369,o),
(315,357,o),
(298,344,o),
(283,331,o),
(272,317,o),
(263,302,o),
(258,286,o),
(255,269,o),
(255,260,qs)
);
},
{
closed = 1;
nodes = (
(300,1086,o),
(306,1069,o),
(317,1057,o),
(331,1050,o),
(340,1050,qs),
(343,1050,o),
(350,1051,o),
(355,1053,o),
(361,1056,o),
(366,1060,o),
(370,1065,o),
(373,1071,o),
(376,1077,o),
(378,1084,o),
(379,1092,o),
(379,1096,qs),
(379,1100,o),
(378,1107,o),
(376,1114,o),
(373,1120,o),
(370,1126,o),
(366,1131,o),
(361,1135,o),
(355,1138,o),
(350,1140,o),
(343,1141,o),
(340,1141,qs),
(337,1141,o),
(330,1140,o),
(324,1138,o),
(318,1135,o),
(314,1131,o),
(309,1126,o),
(306,1120,o),
(303,1114,o),
(301,1107,o),
(300,1100,o),
(300,1096,qs)
);
}
);
width = 678;
}
);
leftKerningGroup = a2;
rightKerningGroup = a;
unicode = 229;
},
{
glyphname = ae;
layers = (
{
layerId = "4B056265-F7A9-4FE5-8F86-068480F74FC7";
shapes = (
{
closed = 1;
nodes = (
(1263,365,l),
(655,365,l),
(658,350,o),
(668,322,o),
(681,297,o),
(696,275,o),
(714,256,o),
(734,239,o),
(757,226,o),
(782,216,o),
(809,209,o),
(838,205,o),
(854,205,qs),
(866,205,o),
(889,207,o),
(911,211,o),
(932,217,o),
(952,225,o),
(970,235,o),
(987,246,o),
(1001,259,o),
(1013,273,o),
(1023,289,o),
(1027,297,q),
(1256,297,l),
(1250,270,o),
(1232,220,o),
(1206,173,o),
(1174,130,o),
(1136,93,o),
(1093,60,o),
(1045,33,o),
(993,12,o),
(939,-2,o),
(881,-10,o),
(851,-10,qs),
(832,-10,o),
(795,-7,o),
(759,-1,o),
(725,8,o),
(692,20,o),
(660,34,o),
(630,51,o),
(602,71,o),
(576,93,o),
(551,117,o),
(540,130,q),
(503,94,o),
(431,42,o),
(360,7,o),
(288,-10,o),
(252,-10,qs),
(217,-10,o),
(157,5,o),
(106,34,o),
(67,76,o),
(39,130,o),
(25,195,o),
(25,232,qs),
(25,258,o),
(32,305,o),
(46,347,o),
(68,385,o),
(97,418,o),
(134,447,o),
(179,472,o),
(232,493,o),
(294,511,o),
(364,524,o),
(403,529,q),
(403,595,ls),
(403,601,o),
(401,612,o),
(398,623,o),
(394,633,o),
(388,641,o),
(382,649,o),
(373,655,o),
(364,660,o),
(354,663,o),
(343,665,o),
(337,665,qs),
(331,665,o),
(320,663,o),
(310,660,o),
(300,656,o),
(292,650,o),
(285,643,o),
(279,635,o),
(275,625,o),
(272,615,o),
(270,604,o),
(270,598,qs),
(270,575,l),
(50,575,l),
(50,634,ls),
(50,657,o),
(56,700,o),
(69,738,o),
(87,773,o),
(111,802,o),
(141,828,o),
(176,848,o),
(217,864,o),
(262,875,o),
(313,880,o),
(340,880,qs),
(382,880,o),
(456,867,o),
(517,842,o),
(565,806,o),
(583,782,q),
(594,791,o),
(617,808,o),
(641,824,o),
(667,837,o),
(693,849,o),
(720,859,o),
(749,867,o),
(778,874,o),
(807,878,o),
(838,880,o),
(853,880,qs),
(888,880,o),
(954,868,o),
(1015,846,o),
(1072,815,o),
(1122,774,o),
(1167,726,o),
(1204,671,o),
(1233,610,o),
(1253,544,o),
(1263,474,o),
(1263,438,qs)
);
},
{
closed = 1;
nodes = (
(255,253,o),
(257,240,o),
(260,228,o),
(264,218,o),
(270,209,o),
(278,201,o),
(286,195,o),
(296,190,o),
(307,187,o),
(319,185,o),
(325,185,qs),
(343,185,o),
(382,198,o),
(403,210,q),
(403,395,l),
(388,390,o),
(360,380,o),
(336,369,o),
(315,357,o),
(298,344,o),
(283,331,o),
(272,317,o),
(263,302,o),
(258,286,o),
(255,269,o),
(255,260,qs)
);
},
{
closed = 1;
nodes = (
(1042,515,l),
(1038,528,o),
(1027,553,o),
(1013,576,o),
(997,597,o),
(979,615,o),
(959,631,o),
(937,644,o),
(913,654,o),
(888,661,o),
(862,665,o),
(848,665,qs),
(834,665,o),
(808,661,o),
(784,654,o),
(761,644,o),
(739,631,o),
(720,615,o),
(702,597,o),
(687,576,o),
(674,553,o),
(663,528,o),
(659,515,q)
);
}
);
width = 1288;
}
);
leftKerningGroup = a2;
rightKerningGroup = c;
unicode = 230;
},
{
glyphname = ccedilla;
layers = (
{
layerId = "4B056265-F7A9-4FE5-8F86-068480F74FC7";
shapes = (
{
closed = 1;
nodes = (
(851,383,l),
(850,351,o),
(839,290,o),
(820,233,o),
(793,181,o),
(759,134,o),
(720,93,o),
(675,58,o),
(625,30,o),
(572,9,o),
(515,-5,o),
(485,-8,q),
(464,-56,l),
(477,-60,o),
(500,-71,o),
(522,-83,o),
(541,-97,o),
(559,-112,o),
(573,-129,o),
(585,-147,o),
(594,-167,o),
(601,-187,o),
(604,-209,o),
(604,-220,qs),
(604,-238,o),
(597,-271,o),
(585,-301,o),
(566,-329,o),
(542,-353,o),
(512,-374,o),
(478,-391,o),
(439,-404,o),
(396,-413,o),
(348,-418,o),
(323,-418,q),
(323,-268,l),
(353,-268,o),
(402,-260,o),
(437,-245,o),
(456,-224,o),
(456,-211,qs),
(456,-207,o),
(454,-198,o),
(449,-190,o),
(443,-183,o),
(434,-177,o),
(424,-171,o),
(412,-166,o),
(399,-163,o),
(384,-160,o),
(368,-159,o),
(360,-159,q),
(359,-63,l),
(384,-6,l),
(353,-2,o),
(295,17,o),
(240,43,o),
(191,77,o),
(147,118,o),
(108,165,o),
(76,218,o),
(52,276,o),
(35,339,o),
(26,405,o),
(26,440,qs),
(26,478,o),
(37,550,o),
(57,617,o),
(87,678,o),
(124,732,o),
(169,779,o),
(221,818,o),
(278,848,o),
(341,869,o),
(408,880,o),
(443,880,qs),
(475,880,o),
(538,871,o),
(597,853,o),
(652,827,o),
(702,793,o),
(746,752,o),
(784,704,o),
(814,650,o),
(836,590,o),
(849,524,o),
(850,488,q),
(624,488,l),
(623,504,o),
(618,533,o),
(609,560,o),
(597,585,o),
(581,607,o),
(562,625,o),
(540,641,o),
(515,653,o),
(488,661,o),
(459,665,o),
(444,665,qs),
(427,665,o),
(395,660,o),
(365,649,o),
(338,633,o),
(315,614,o),
(294,589,o),
(277,561,o),
(264,529,o),
(256,494,o),
(251,456,o),
(251,435,qs),
(251,414,o),
(256,376,o),
(264,341,o),
(277,309,o),
(294,281,o),
(315,256,o),
(338,237,o),
(365,221,o),
(395,210,o),
(427,205,o),
(444,205,qs),
(460,205,o),
(489,209,o),
(516,217,o),
(540,229,o),
(562,245,o),
(581,264,o),
(597,285,o),
(609,310,o),
(618,337,o),
(623,367,o),
(624,383,q)
);
}
);
width = 876;
}
);
leftKerningGroup = c2;
rightKerningGroup = c;
unicode = 231;
},
{
glyphname = egrave;
layers = (
{
layerId = "4B056265-F7A9-4FE5-8F86-068480F74FC7";
shapes = (
{
closed = 1;
nodes = (
(855,365,l),
(247,365,l),
(250,350,o),
(260,322,o),
(273,297,o),
(288,275,o),
(306,256,o),
(326,239,o),
(349,226,o),
(374,216,o),
(401,209,o),
(430,205,o),
(446,205,qs),
(458,205,o),
(481,207,o),
(503,211,o),
(524,217,o),
(544,225,o),
(562,235,o),
(579,246,o),
(593,259,o),
(605,273,o),
(615,289,o),
(619,297,q),
(848,297,l),
(842,270,o),
(824,220,o),
(798,173,o),
(766,130,o),
(728,93,o),
(685,60,o),
(637,33,o),
(585,12,o),
(531,-2,o),
(473,-10,o),
(443,-10,qs),
(407,-10,o),
(339,1,o),
(275,22,o),
(218,53,o),
(166,93,o),
(121,141,o),
(84,196,o),
(55,258,o),
(35,326,o),
(25,399,o),
(25,438,qs),
(25,477,o),
(36,549,o),
(57,617,o),
(86,678,o),
(124,732,o),
(170,779,o),
(222,818,o),
(280,848,o),
(343,869,o),
(410,880,o),
(445,880,qs),
(480,880,o),
(546,868,o),
(607,846,o),
(664,815,o),
(714,774,o),
(759,726,o),
(796,671,o),
(825,610,o),
(845,544,o),
(855,474,o),
(855,438,qs)
);
},
{
closed = 1;
nodes = (
(266,1220,l),
(468,1220,l),
(597,930,l),
(437,930,l)
);
},
{
closed = 1;
nodes = (
(634,515,l),
(630,528,o),
(619,553,o),
(605,576,o),
(589,597,o),
(571,615,o),
(551,631,o),
(529,644,o),
(505,654,o),
(480,661,o),
(454,665,o),
(440,665,qs),
(426,665,o),
(400,661,o),
(376,654,o),
(353,644,o),
(331,631,o),
(312,615,o),
(294,597,o),
(279,576,o),
(266,553,o),
(255,528,o),
(251,515,q)
);
}
);
width = 880;
}
);
leftKerningGroup = c2;
rightKerningGroup = c;
unicode = 232;
},
{
glyphname = eacute;
layers = (
{
layerId = "4B056265-F7A9-4FE5-8F86-068480F74FC7";
shapes = (
{
closed = 1;
nodes = (
(855,365,l),
(247,365,l),
(250,350,o),
(260,322,o),
(273,297,o),
(288,275,o),
(306,256,o),
(326,239,o),
(349,226,o),
(374,216,o),
(401,209,o),
(430,205,o),
(446,205,qs),
(458,205,o),
(481,207,o),
(503,211,o),
(524,217,o),
(544,225,o),
(562,235,o),
(579,246,o),
(593,259,o),
(605,273,o),
(615,289,o),
(619,297,q),
(848,297,l),
(842,270,o),
(824,220,o),
(798,173,o),
(766,130,o),
(728,93,o),
(685,60,o),
(637,33,o),
(585,12,o),
(531,-2,o),
(473,-10,o),
(443,-10,qs),
(407,-10,o),
(339,1,o),
(275,22,o),
(218,53,o),
(166,93,o),
(121,141,o),
(84,196,o),
(55,258,o),
(35,326,o),
(25,399,o),
(25,438,qs),
(25,477,o),
(36,549,o),
(57,617,o),
(86,678,o),
(124,732,o),
(170,779,o),
(222,818,o),
(280,848,o),
(343,869,o),
(410,880,o),
(445,880,qs),
(480,880,o),
(546,868,o),
(607,846,o),
(664,815,o),
(714,774,o),
(759,726,o),
(796,671,o),
(825,610,o),
(845,544,o),
(855,474,o),
(855,438,qs)
);
},
{
closed = 1;
nodes = (
(295,930,l),
(424,1220,l),
(626,1220,l),
(455,930,l)
);
},
{
closed = 1;
nodes = (
(634,515,l),
(630,528,o),
(619,553,o),
(605,576,o),
(589,597,o),
(571,615,o),
(551,631,o),
(529,644,o),
(505,654,o),
(480,661,o),
(454,665,o),
(440,665,qs),
(426,665,o),
(400,661,o),
(376,654,o),
(353,644,o),
(331,631,o),
(312,615,o),
(294,597,o),
(279,576,o),
(266,553,o),
(255,528,o),
(251,515,q)
);
}
);
width = 880;
}
);
leftKerningGroup = c2;
rightKerningGroup = c;
unicode = 233;
},
{
glyphname = ecircumflex;
layers = (
{
layerId = "4B056265-F7A9-4FE5-8F86-068480F74FC7";
shapes = (
{
closed = 1;
nodes = (
(855,365,l),
(247,365,l),
(250,350,o),
(260,322,o),
(273,297,o),
(288,275,o),
(306,256,o),
(326,239,o),
(349,226,o),
(374,216,o),
(401,209,o),
(430,205,o),
(446,205,qs),
(458,205,o),
(481,207,o),
(503,211,o),
(524,217,o),
(544,225,o),
(562,235,o),
(579,246,o),
(593,259,o),
(605,273,o),
(615,289,o),
(619,297,q),
(848,297,l),
(842,270,o),
(824,220,o),
(798,173,o),
(766,130,o),
(728,93,o),
(685,60,o),
(637,33,o),
(585,12,o),
(531,-2,o),
(473,-10,o),
(443,-10,qs),
(407,-10,o),
(339,1,o),
(275,22,o),
(218,53,o),
(166,93,o),
(121,141,o),
(84,196,o),
(55,258,o),
(35,326,o),
(25,399,o),
(25,438,qs),
(25,477,o),
(36,549,o),
(57,617,o),
(86,678,o),
(124,732,o),
(170,779,o),
(222,818,o),
(280,848,o),
(343,869,o),
(410,880,o),
(445,880,qs),
(480,880,o),
(546,868,o),
(607,846,o),
(664,815,o),
(714,774,o),
(759,726,o),
(796,671,o),
(825,610,o),
(845,544,o),
(855,474,o),
(855,438,qs)
);
},
{
closed = 1;
nodes = (
(328,1214,l),
(555,1214,l),
(676,930,l),
(524,930,l),
(442,1074,l),
(359,930,l),
(207,930,l)
);
},
{
closed = 1;
nodes = (
(634,515,l),
(630,528,o),
(619,553,o),
(605,576,o),
(589,597,o),
(571,615,o),
(551,631,o),
(529,644,o),
(505,654,o),
(480,661,o),
(454,665,o),
(440,665,qs),
(426,665,o),
(400,661,o),
(376,654,o),
(353,644,o),
(331,631,o),
(312,615,o),
(294,597,o),
(279,576,o),
(266,553,o),
(255,528,o),
(251,515,q)
);
}
);
width = 880;
}
);
leftKerningGroup = c2;
rightKerningGroup = c;
unicode = 234;
},
{
glyphname = edieresis;
layers = (
{
layerId = "4B056265-F7A9-4FE5-8F86-068480F74FC7";
shapes = (
{
closed = 1;
nodes = (
(855,365,l),
(247,365,l),
(250,350,o),
(260,322,o),
(273,297,o),
(288,275,o),
(306,256,o),
(326,239,o),
(349,226,o),
(374,216,o),
(401,209,o),
(430,205,o),
(446,205,qs),
(458,205,o),
(481,207,o),
(503,211,o),
(524,217,o),
(544,225,o),
(562,235,o),
(579,246,o),
(593,259,o),
(605,273,o),
(615,289,o),
(619,297,q),
(848,297,l),
(842,270,o),
(824,220,o),
(798,173,o),
(766,130,o),
(728,93,o),
(685,60,o),
(637,33,o),
(585,12,o),
(531,-2,o),
(473,-10,o),
(443,-10,qs),
(407,-10,o),
(339,1,o),
(275,22,o),
(218,53,o),
(166,93,o),
(121,141,o),
(84,196,o),
(55,258,o),
(35,326,o),
(25,399,o),
(25,438,qs),
(25,477,o),
(36,549,o),
(57,617,o),
(86,678,o),
(124,732,o),
(170,779,o),
(222,818,o),
(280,848,o),
(343,869,o),
(410,880,o),
(445,880,qs),
(480,880,o),
(546,868,o),
(607,846,o),
(664,815,o),
(714,774,o),
(759,726,o),
(796,671,o),
(825,610,o),
(845,544,o),
(855,474,o),
(855,438,qs)
);
},
{
closed = 1;
nodes = (
(482,1061,o),
(485,1080,o),
(491,1098,o),
(499,1115,o),
(509,1129,o),
(521,1142,o),
(536,1152,o),
(551,1160,o),
(569,1166,o),
(587,1169,o),
(597,1169,qs),
(607,1169,o),
(625,1166,o),
(642,1160,o),
(658,1152,o),
(672,1142,o),
(685,1129,o),
(695,1115,o),
(703,1098,o),
(709,1080,o),
(712,1061,o),
(712,1051,qs),
(712,1041,o),
(709,1022,o),
(704,1004,o),
(696,987,o),
(686,972,o),
(673,959,o),
(659,948,o),
(643,939,o),
(626,933,o),
(607,930,o),
(597,930,qs),
(587,930,o),
(569,933,o),
(551,939,o),
(536,948,o),
(521,959,o),
(509,972,o),
(499,987,o),
(491,1004,o),
(485,1022,o),
(482,1041,o),
(482,1051,qs)
);
},
{
closed = 1;
nodes = (
(176,1061,o),
(179,1080,o),
(185,1098,o),
(193,1115,o),
(203,1129,o),
(215,1142,o),
(230,1152,o),
(245,1160,o),
(263,1166,o),
(281,1169,o),
(291,1169,qs),
(301,1169,o),
(319,1166,o),
(336,1160,o),
(352,1152,o),
(366,1142,o),
(379,1129,o),
(389,1115,o),
(397,1098,o),
(403,1080,o),
(406,1061,o),
(406,1051,qs),
(406,1041,o),
(403,1022,o),
(398,1004,o),
(390,987,o),
(380,972,o),
(367,959,o),
(353,948,o),
(337,939,o),
(320,933,o),
(301,930,o),
(291,930,qs),
(281,930,o),
(263,933,o),
(245,939,o),
(230,948,o),
(215,959,o),
(203,972,o),
(193,987,o),
(185,1004,o),
(179,1022,o),
(176,1041,o),
(176,1051,qs)
);
},
{
closed = 1;
nodes = (
(634,515,l),
(630,528,o),
(619,553,o),
(605,576,o),
(589,597,o),
(571,615,o),
(551,631,o),
(529,644,o),
(505,654,o),
(480,661,o),
(454,665,o),
(440,665,qs),
(426,665,o),
(400,661,o),
(376,654,o),
(353,644,o),
(331,631,o),
(312,615,o),
(294,597,o),
(279,576,o),
(266,553,o),
(255,528,o),
(251,515,q)
);
}
);
width = 880;
}
);
leftKerningGroup = c2;
rightKerningGroup = c;
unicode = 235;
},
{
glyphname = igrave;
layers = (
{
layerId = "4B056265-F7A9-4FE5-8F86-068480F74FC7";
shapes = (
{
closed = 1;
nodes = (
(50,870,l),
(275,870,l),
(275,0,l),
(50,0,l)
);
},
{
closed = 1;
nodes = (
(-34,1220,l),
(168,1220,l),
(297,930,l),
(137,930,l)
);
}
);
width = 325;
}
);
unicode = 236;
},
{
glyphname = iacute;
layers = (
{
layerId = "4B056265-F7A9-4FE5-8F86-068480F74FC7";
shapes = (
{
closed = 1;
nodes = (
(50,870,l),
(275,870,l),
(275,0,l),
(50,0,l)
);
},
{
closed = 1;
nodes = (
(20,930,l),
(149,1220,l),
(351,1220,l),
(180,930,l)
);
}
);
width = 325;
}
);
unicode = 237;
},
{
glyphname = icircumflex;
layers = (
{
layerId = "4B056265-F7A9-4FE5-8F86-068480F74FC7";
shapes = (
{
closed = 1;
nodes = (
(50,870,l),
(275,870,l),
(275,0,l),
(50,0,l)
);
},
{
closed = 1;
nodes = (
(50,1214,l),
(277,1214,l),
(398,930,l),
(246,930,l),
(164,1074,l),
(81,930,l),
(-71,930,l)
);
}
);
width = 325;
}
);
unicode = 238;
},
{
glyphname = idieresis;
layers = (
{
layerId = "4B056265-F7A9-4FE5-8F86-068480F74FC7";
shapes = (
{
closed = 1;
nodes = (
(50,870,l),
(275,870,l),
(275,0,l),
(50,0,l)
);
},
{
closed = 1;
nodes = (
(-117,1061,o),
(-114,1080,o),
(-108,1098,o),
(-100,1115,o),
(-90,1129,o),
(-78,1142,o),
(-63,1152,o),
(-48,1160,o),
(-30,1166,o),
(-12,1169,o),
(-2,1169,qs),
(8,1169,o),
(26,1166,o),
(43,1160,o),
(59,1152,o),
(73,1142,o),
(86,1129,o),
(96,1115,o),
(104,1098,o),
(110,1080,o),
(113,1061,o),
(113,1051,qs),
(113,1041,o),
(110,1022,o),
(105,1004,o),
(97,987,o),
(87,972,o),
(74,959,o),
(60,948,o),
(44,939,o),
(27,933,o),
(8,930,o),
(-2,930,qs),
(-12,930,o),
(-30,933,o),
(-48,939,o),
(-63,948,o),
(-78,959,o),
(-90,972,o),
(-100,987,o),
(-108,1004,o),
(-114,1022,o),
(-117,1041,o),
(-117,1051,qs)
);
},
{
closed = 1;
nodes = (
(189,1061,o),
(192,1080,o),
(198,1098,o),
(206,1115,o),
(216,1129,o),
(228,1142,o),
(243,1152,o),
(258,1160,o),
(276,1166,o),
(294,1169,o),
(304,1169,qs),
(314,1169,o),
(332,1166,o),
(349,1160,o),
(365,1152,o),
(379,1142,o),
(392,1129,o),
(402,1115,o),
(410,1098,o),
(416,1080,o),
(419,1061,o),
(419,1051,qs),
(419,1041,o),
(416,1022,o),
(411,1004,o),
(403,987,o),
(393,972,o),
(380,959,o),
(366,948,o),
(350,939,o),
(333,933,o),
(314,930,o),
(304,930,qs),
(294,930,o),
(276,933,o),
(258,939,o),
(243,948,o),
(228,959,o),
(216,972,o),
(206,987,o),
(198,1004,o),
(192,1022,o),
(189,1041,o),
(189,1051,qs)
);
}
);
width = 325;
}
);
unicode = 239;
},
{
glyphname = eth;
layers = (
{
layerId = "4B056265-F7A9-4FE5-8F86-068480F74FC7";
shapes = (
{
closed = 1;
nodes = (
(298,1200,l),
(314,1196,o),
(344,1186,o),
(374,1173,o),
(402,1159,o),
(429,1142,o),
(456,1124,o),
(468,1114,q),
(544,1190,l),
(683,1052,l),
(594,963,l),
(601,950,o),
(614,923,o),
(626,895,o),
(637,866,o),
(646,837,o),
(654,806,o),
(660,775,o),
(665,744,o),
(668,711,o),
(670,679,o),
(670,662,qs),
(670,274,ls),
(670,248,o),
(664,199,o),
(652,155,o),
(633,115,o),
(608,81,o),
(577,51,o),
(539,27,o),
(495,9,o),
(444,-4,o),
(387,-10,o),
(355,-10,qs),
(323,-10,o),
(265,-3,o),
(213,10,o),
(168,29,o),
(129,53,o),
(96,83,o),
(70,118,o),
(50,157,o),
(37,201,o),
(30,248,o),
(30,274,qs),
(30,450,ls),
(30,473,o),
(35,514,o),
(45,551,o),
(60,584,o),
(80,612,o),
(105,636,o),
(134,656,o),
(167,671,o),
(205,681,o),
(247,686,o),
(270,686,qs),
(318,686,o),
(399,664,o),
(434,642,q),
(434,650,o),
(433,665,o),
(432,680,o),
(430,695,o),
(428,709,o),
(426,723,o),
(424,736,o),
(421,750,o),
(418,763,o),
(415,776,o),
(413,782,q),
(355,724,l),
(216,862,l),
(308,954,l),
(254,1002,o),
(176,1029,q)
);
},
{
closed = 1;
nodes = (
(265,296,ls),
(265,281,o),
(270,255,o),
(280,234,o),
(294,217,o),
(313,206,o),
(336,200,o),
(349,200,qs),
(357,200,o),
(372,202,o),
(385,206,o),
(397,213,o),
(407,221,o),
(416,231,o),
(424,243,o),
(429,256,o),
(433,271,o),
(435,287,o),
(435,296,qs),
(435,410,ls),
(435,419,o),
(433,435,o),
(429,450,o),
(424,463,o),
(416,475,o),
(407,485,o),
(397,493,o),
(385,500,o),
(372,504,o),
(357,506,o),
(349,506,qs),
(336,506,o),
(313,500,o),
(294,489,o),
(280,472,o),
(270,451,o),
(265,425,o),
(265,410,qs)
);
}
);
width = 705;
}
);
unicode = 240;
},
{
glyphname = ntilde;
layers = (
{
layerId = "4B056265-F7A9-4FE5-8F86-068480F74FC7";
shapes = (
{
closed = 1;
nodes = (
(275,870,l),
(275,867,o),
(274,859,o),
(272,850,o),
(270,839,o),
(266,828,o),
(262,817,o),
(257,805,o),
(251,792,o),
(245,780,o),
(239,769,o),
(235,763,q),
(247,753,l),
(255,765,o),
(273,788,o),
(291,808,o),
(311,825,o),
(331,841,o),
(352,854,o),
(374,864,o),
(396,872,o),
(419,877,o),
(442,880,o),
(454,880,qs),
(471,880,o),
(501,875,o),
(529,865,o),
(554,851,o),
(575,832,o),
(593,808,o),
(608,780,o),
(619,748,o),
(626,712,o),
(630,672,o),
(630,650,qs),
(630,0,l),
(405,0,l),
(405,610,ls),
(405,616,o),
(404,626,o),
(401,635,o),
(397,642,o),
(393,649,o),
(387,654,o),
(380,659,o),
(373,662,o),
(364,664,o),
(356,665,o),
(351,665,qs),
(347,665,o),
(340,664,o),
(332,663,o),
(325,661,o),
(317,659,o),
(309,656,o),
(301,652,o),
(294,648,o),
(286,644,o),
(279,639,o),
(275,636,q),
(275,0,l),
(50,0,l),
(50,870,l)
);
},
{
closed = 1;
nodes = (
(120,930,l),
(120,981,o),
(135,1059,o),
(165,1113,o),
(209,1140,o),
(238,1140,qs),
(249,1140,o),
(268,1137,o),
(287,1131,o),
(304,1123,o),
(321,1114,o),
(336,1105,o),
(350,1096,o),
(364,1088,o),
(376,1082,o),
(387,1079,o),
(392,1079,qs),
(395,1079,o),
(401,1080,o),
(407,1083,o),
(412,1087,o),
(417,1093,o),
(421,1099,o),
(424,1107,o),
(426,1115,o),
(428,1124,o),
(429,1135,o),
(429,1140,q),
(567,1140,l),
(567,1119,o),
(565,1081,o),
(560,1048,o),
(553,1018,o),
(544,993,o),
(532,972,o),
(518,955,o),
(501,943,o),
(482,934,o),
(460,930,o),
(448,930,qs),
(429,930,o),
(397,939,o),
(370,953,o),
(347,969,o),
(326,983,o),
(307,992,o),
(297,992,qs),
(288,992,o),
(273,983,o),
(263,967,o),
(258,944,o),
(258,930,q)
);
}
);
width = 680;
}
);
rightKerningGroup = h;
unicode = 241;
},
{
glyphname = ograve;
layers = (
{
layerId = "4B056265-F7A9-4FE5-8F86-068480F74FC7";
shapes = (
{
closed = 1;
nodes = (
(428,-10,o),
(358,2,o),
(292,24,o),
(232,56,o),
(177,97,o),
(129,145,o),
(89,201,o),
(58,263,o),
(36,330,o),
(25,401,o),
(25,438,qs),
(25,474,o),
(36,544,o),
(58,610,o),
(89,671,o),
(129,726,o),
(177,774,o),
(232,815,o),
(292,846,o),
(358,868,o),
(428,880,o),
(465,880,qs),
(501,880,o),
(571,868,o),
(636,846,o),
(697,815,o),
(752,774,o),
(800,726,o),
(840,671,o),
(872,610,o),
(893,544,o),
(905,474,o),
(905,438,qs),
(905,401,o),
(893,330,o),
(872,263,o),
(840,201,o),
(800,145,o),
(752,97,o),
(697,56,o),
(636,24,o),
(571,2,o),
(501,-10,o),
(465,-10,qs)
);
},
{
closed = 1;
nodes = (
(484,205,o),
(517,211,o),
(549,222,o),
(579,238,o),
(605,259,o),
(629,284,o),
(648,313,o),
(664,344,o),
(674,379,o),
(680,416,o),
(680,435,qs),
(680,455,o),
(674,492,o),
(664,526,o),
(648,558,o),
(629,586,o),
(605,611,o),
(579,632,o),
(549,648,o),
(517,659,o),
(484,665,o),
(466,665,qs),
(448,665,o),
(414,659,o),
(382,648,o),
(352,632,o),
(325,611,o),
(302,586,o),
(282,558,o),
(266,526,o),
(256,492,o),
(250,454,o),
(250,435,qs),
(250,416,o),
(256,379,o),
(266,344,o),
(282,313,o),
(302,284,o),
(325,259,o),
(352,238,o),
(382,222,o),
(414,211,o),
(448,205,o),
(466,205,qs)
);
},
{
closed = 1;
nodes = (
(271,1220,l),
(473,1220,l),
(602,930,l),
(442,930,l)
);
}
);
width = 930;
}
);
leftKerningGroup = c2;
rightKerningGroup = c;
unicode = 242;
},
{
glyphname = oacute;
layers = (
{
layerId = "4B056265-F7A9-4FE5-8F86-068480F74FC7";
shapes = (
{
closed = 1;
nodes = (
(428,-10,o),
(358,2,o),
(292,24,o),
(232,56,o),
(177,97,o),
(129,145,o),
(89,201,o),
(58,263,o),
(36,330,o),
(25,401,o),
(25,438,qs),
(25,474,o),
(36,544,o),
(58,610,o),
(89,671,o),
(129,726,o),
(177,774,o),
(232,815,o),
(292,846,o),
(358,868,o),
(428,880,o),
(465,880,qs),
(501,880,o),
(571,868,o),
(636,846,o),
(697,815,o),
(752,774,o),
(800,726,o),
(840,671,o),
(872,610,o),
(893,544,o),
(905,474,o),
(905,438,qs),
(905,401,o),
(893,330,o),
(872,263,o),
(840,201,o),
(800,145,o),
(752,97,o),
(697,56,o),
(636,24,o),
(571,2,o),
(501,-10,o),
(465,-10,qs)
);
},
{
closed = 1;
nodes = (
(484,205,o),
(517,211,o),
(549,222,o),
(579,238,o),
(605,259,o),
(629,284,o),
(648,313,o),
(664,344,o),
(674,379,o),
(680,416,o),
(680,435,qs),
(680,455,o),
(674,492,o),
(664,526,o),
(648,558,o),
(629,586,o),
(605,611,o),
(579,632,o),
(549,648,o),
(517,659,o),
(484,665,o),
(466,665,qs),
(448,665,o),
(414,659,o),
(382,648,o),
(352,632,o),
(325,611,o),
(302,586,o),
(282,558,o),
(266,526,o),
(256,492,o),
(250,454,o),
(250,435,qs),
(250,416,o),
(256,379,o),
(266,344,o),
(282,313,o),
(302,284,o),
(325,259,o),
(352,238,o),
(382,222,o),
(414,211,o),
(448,205,o),
(466,205,qs)
);
},
{
closed = 1;
nodes = (
(340,930,l),
(469,1220,l),
(671,1220,l),
(500,930,l)
);
}
);
width = 930;
}
);
leftKerningGroup = c2;
rightKerningGroup = c;
unicode = 243;
},
{
glyphname = ocircumflex;
layers = (
{
layerId = "4B056265-F7A9-4FE5-8F86-068480F74FC7";
shapes = (
{
closed = 1;
nodes = (
(428,-10,o),
(358,2,o),
(292,24,o),
(232,56,o),
(177,97,o),
(129,145,o),
(89,201,o),
(58,263,o),
(36,330,o),
(25,401,o),
(25,438,qs),
(25,474,o),
(36,544,o),
(58,610,o),
(89,671,o),
(129,726,o),
(177,774,o),
(232,815,o),
(292,846,o),
(358,868,o),
(428,880,o),
(465,880,qs),
(501,880,o),
(571,868,o),
(636,846,o),
(697,815,o),
(752,774,o),
(800,726,o),
(840,671,o),
(872,610,o),
(893,544,o),
(905,474,o),
(905,438,qs),
(905,401,o),
(893,330,o),
(872,263,o),
(840,201,o),
(800,145,o),
(752,97,o),
(697,56,o),
(636,24,o),
(571,2,o),
(501,-10,o),
(465,-10,qs)
);
},
{
closed = 1;
nodes = (
(353,1214,l),
(580,1214,l),
(701,930,l),
(549,930,l),
(467,1074,l),
(384,930,l),
(232,930,l)
);
},
{
closed = 1;
nodes = (
(484,205,o),
(517,211,o),
(549,222,o),
(579,238,o),
(605,259,o),
(629,284,o),
(648,313,o),
(664,344,o),
(674,379,o),
(680,416,o),
(680,435,qs),
(680,455,o),
(674,492,o),
(664,526,o),
(648,558,o),
(629,586,o),
(605,611,o),
(579,632,o),
(549,648,o),
(517,659,o),
(484,665,o),
(466,665,qs),
(448,665,o),
(414,659,o),
(382,648,o),
(352,632,o),
(325,611,o),
(302,586,o),
(282,558,o),
(266,526,o),
(256,492,o),
(250,454,o),
(250,435,qs),
(250,416,o),
(256,379,o),
(266,344,o),
(282,313,o),
(302,284,o),
(325,259,o),
(352,238,o),
(382,222,o),
(414,211,o),
(448,205,o),
(466,205,qs)
);
}
);
width = 930;
}
);
leftKerningGroup = c2;
rightKerningGroup = c;
unicode = 244;
},
{
glyphname = otilde;
layers = (
{
layerId = "4B056265-F7A9-4FE5-8F86-068480F74FC7";
shapes = (
{
closed = 1;
nodes = (
(428,-10,o),
(358,2,o),
(292,24,o),
(232,56,o),
(177,97,o),
(129,145,o),
(89,201,o),
(58,263,o),
(36,330,o),
(25,401,o),
(25,438,qs),
(25,474,o),
(36,544,o),
(58,610,o),
(89,671,o),
(129,726,o),
(177,774,o),
(232,815,o),
(292,846,o),
(358,868,o),
(428,880,o),
(465,880,qs),
(501,880,o),
(571,868,o),
(636,846,o),
(697,815,o),
(752,774,o),
(800,726,o),
(840,671,o),
(872,610,o),
(893,544,o),
(905,474,o),
(905,438,qs),
(905,401,o),
(893,330,o),
(872,263,o),
(840,201,o),
(800,145,o),
(752,97,o),
(697,56,o),
(636,24,o),
(571,2,o),
(501,-10,o),
(465,-10,qs)
);
},
{
closed = 1;
nodes = (
(245,930,l),
(245,981,o),
(260,1059,o),
(290,1113,o),
(334,1140,o),
(363,1140,qs),
(374,1140,o),
(393,1137,o),
(412,1131,o),
(429,1123,o),
(446,1114,o),
(461,1105,o),
(475,1096,o),
(489,1088,o),
(501,1082,o),
(512,1079,o),
(517,1079,qs),
(520,1079,o),
(526,1080,o),
(532,1083,o),
(537,1087,o),
(542,1093,o),
(546,1099,o),
(549,1107,o),
(551,1115,o),
(553,1124,o),
(554,1135,o),
(554,1140,q),
(692,1140,l),
(692,1119,o),
(690,1081,o),
(685,1048,o),
(678,1018,o),
(669,993,o),
(657,972,o),
(643,955,o),
(626,943,o),
(607,934,o),
(585,930,o),
(573,930,qs),
(554,930,o),
(522,939,o),
(495,953,o),
(472,969,o),
(451,983,o),
(432,992,o),
(422,992,qs),
(413,992,o),
(398,983,o),
(388,967,o),
(383,944,o),
(383,930,q)
);
},
{
closed = 1;
nodes = (
(484,205,o),
(517,211,o),
(549,222,o),
(579,238,o),
(605,259,o),
(629,284,o),
(648,313,o),
(664,344,o),
(674,379,o),
(680,416,o),
(680,435,qs),
(680,455,o),
(674,492,o),
(664,526,o),
(648,558,o),
(629,586,o),
(605,611,o),
(579,632,o),
(549,648,o),
(517,659,o),
(484,665,o),
(466,665,qs),
(448,665,o),
(414,659,o),
(382,648,o),
(352,632,o),
(325,611,o),
(302,586,o),
(282,558,o),
(266,526,o),
(256,492,o),
(250,454,o),
(250,435,qs),
(250,416,o),
(256,379,o),
(266,344,o),
(282,313,o),
(302,284,o),
(325,259,o),
(352,238,o),
(382,222,o),
(414,211,o),
(448,205,o),
(466,205,qs)
);
}
);
width = 930;
}
);
leftKerningGroup = c2;
rightKerningGroup = c;
unicode = 245;
},
